<?xml version="1.0" encoding="utf-8"?>
<!-- Generator: Adobe Illustrator 27.5.0, SVG Export Plug-In . SVG Version: 6.00 Build 0)  -->
<svg version="1.1" xmlns="http://www.w3.org/2000/svg" xmlns:xlink="http://www.w3.org/1999/xlink" x="0px" y="0px"
	 viewBox="0 0 500 500" style="enable-background:new 0 0 500 500;" xml:space="preserve">
<g id="Background_Simple">
	<g>
		<path style="fill:#C6FF00;" d="M131.916,120.89c0,0-48.27,45.742-39.057,109.201c9.212,63.459,65.692,112.474,110.184,153.25
			s107.551,46.38,153.063,15.167c45.512-31.213,20.841-70.674,46.613-126.946c25.772-56.272,42.495-68.195,28.696-126.426
			c-13.8-58.231-96.385-95.019-178.64-79.625C170.519,80.906,131.916,120.89,131.916,120.89z"/>
		<path style="opacity:0.7;fill:#FFFFFF;" d="M131.916,120.89c0,0-48.27,45.742-39.057,109.201
			c9.212,63.459,65.692,112.474,110.184,153.25s107.551,46.38,153.063,15.167c45.512-31.213,20.841-70.674,46.613-126.946
			c25.772-56.272,42.495-68.195,28.696-126.426c-13.8-58.231-96.385-95.019-178.64-79.625
			C170.519,80.906,131.916,120.89,131.916,120.89z"/>
	</g>
</g>
<g id="Window">
	<g>
		<g>
			<polygon style="fill:#FFFFFF;" points="339.911,111.112 267.689,111.112 268.42,100.575 340.642,100.575 			"/>
			<polygon style="fill:#FFFFFF;" points="339.911,125.864 267.689,125.864 268.42,115.327 340.642,115.327 			"/>
			<polygon style="fill:#FFFFFF;" points="339.911,140.616 267.689,140.616 268.42,130.079 340.642,130.079 			"/>
			<polygon style="fill:#FFFFFF;" points="339.911,155.368 267.689,155.368 268.42,144.831 340.642,144.831 			"/>
			<polygon style="fill:#FFFFFF;" points="339.911,170.12 267.689,170.12 268.42,159.583 340.642,159.583 			"/>
			<polygon style="fill:#FFFFFF;" points="339.911,184.872 267.689,184.872 268.42,174.335 340.642,174.335 			"/>
			<polygon style="fill:#FFFFFF;" points="339.911,199.624 267.689,199.624 268.42,189.087 340.642,189.087 			"/>
			<polygon style="fill:#FFFFFF;" points="339.911,214.376 267.689,214.376 268.42,203.839 340.642,203.839 			"/>
			<polygon style="fill:#FFFFFF;" points="339.911,229.128 267.689,229.128 268.42,218.591 340.642,218.591 			"/>
			<polygon style="fill:#FFFFFF;" points="339.911,243.88 267.689,243.88 268.42,233.343 340.642,233.343 			"/>
			<polygon style="fill:#FFFFFF;" points="339.911,258.632 267.689,258.632 268.42,248.095 340.642,248.095 			"/>
		</g>
		<g>
			<polygon style="fill:#FFFFFF;" points="416.276,111.112 344.053,111.112 344.784,100.575 417.007,100.575 			"/>
			<polygon style="fill:#FFFFFF;" points="416.276,125.864 344.053,125.864 344.784,115.327 417.007,115.327 			"/>
			<polygon style="fill:#FFFFFF;" points="416.276,140.616 344.053,140.616 344.784,130.079 417.007,130.079 			"/>
			<polygon style="fill:#FFFFFF;" points="416.276,155.368 344.053,155.368 344.784,144.831 417.007,144.831 			"/>
			<polygon style="fill:#FFFFFF;" points="416.276,170.12 344.053,170.12 344.784,159.583 417.007,159.583 			"/>
			<polygon style="fill:#FFFFFF;" points="416.276,184.872 344.053,184.872 344.784,174.335 417.007,174.335 			"/>
			<polygon style="fill:#FFFFFF;" points="416.276,199.624 344.053,199.624 344.784,189.087 417.007,189.087 			"/>
			<polygon style="fill:#FFFFFF;" points="416.276,214.376 344.053,214.376 344.784,203.839 417.007,203.839 			"/>
			<polygon style="fill:#FFFFFF;" points="416.276,229.128 344.053,229.128 344.784,218.591 417.007,218.591 			"/>
			<polygon style="fill:#FFFFFF;" points="416.276,243.88 344.053,243.88 344.784,233.343 417.007,233.343 			"/>
			<polygon style="fill:#FFFFFF;" points="416.276,258.632 344.053,258.632 344.784,248.095 417.007,248.095 			"/>
		</g>
	</g>
</g>
<g id="Picture">
	<g>
		<rect x="108.339" y="99.997" style="fill:#C6FF00;" width="149.215" height="128.019"/>
		<g>
			<g>
				<defs>
					<rect id="XMLID_14_" x="115.799" y="106.398" width="134.294" height="115.217"/>
				</defs>
				<use xlink:href="#XMLID_14_"  style="overflow:visible;fill:#FFFFFF;"/>
				<clipPath id="XMLID_00000026870864228800608790000011566767890858551689_">
					<use xlink:href="#XMLID_14_"  style="overflow:visible;"/>
				</clipPath>
				<path style="clip-path:url(#XMLID_00000026870864228800608790000011566767890858551689_);fill:#C6FF00;" d="M250.093,141.332
					c-24.153,17.178-58.744,28.573-98.876,46.488c-14.528,6.486-26.149,13.827-35.418,21.173v12.622h134.294V141.332z"/>
				<path style="clip-path:url(#XMLID_00000026870864228800608790000011566767890858551689_);fill:#C6FF00;" d="M250.093,106.398
					h-53.895c-5.977,5.129-13.089,10.866-21.463,17.007c-30.674,22.494-17.382,44.988,19.427,28.629
					c18.89-8.395,39.92-27.824,55.932-44.758V106.398z"/>
				<g style="clip-path:url(#XMLID_00000026870864228800608790000011566767890858551689_);">
					<path style="fill:#C6FF00;" d="M138.948,119.316c0-9.381-11.688-2.021-23.149,7.445v23.705
						C127.018,139.526,138.948,127.717,138.948,119.316z"/>
				</g>
				<path style="clip-path:url(#XMLID_00000026870864228800608790000011566767890858551689_);fill:#C6FF00;" d="M150.195,156.636
					c0,5.929-4.807,10.736-10.736,10.736c-5.929,0-10.736-4.807-10.736-10.736c0-5.929,4.807-10.736,10.736-10.736
					C145.389,145.9,150.195,150.707,150.195,156.636z"/>
				<path style="opacity:0.75;clip-path:url(#XMLID_00000026870864228800608790000011566767890858551689_);fill:#FFFFFF;" d="
					M250.093,141.332c-24.153,17.178-58.744,28.573-98.876,46.488c-14.528,6.486-26.149,13.827-35.418,21.173v12.622h134.294
					V141.332z"/>
				<path style="opacity:0.75;clip-path:url(#XMLID_00000026870864228800608790000011566767890858551689_);fill:#FFFFFF;" d="
					M250.093,106.398h-53.895c-5.977,5.129-13.089,10.866-21.463,17.007c-30.674,22.494-17.382,44.988,19.427,28.629
					c18.89-8.395,39.92-27.824,55.932-44.758V106.398z"/>
				<g style="opacity:0.75;clip-path:url(#XMLID_00000026870864228800608790000011566767890858551689_);">
					<path style="fill:#FFFFFF;" d="M138.948,119.316c0-9.381-11.688-2.021-23.149,7.445v23.705
						C127.018,139.526,138.948,127.717,138.948,119.316z"/>
				</g>
				<path style="opacity:0.75;clip-path:url(#XMLID_00000026870864228800608790000011566767890858551689_);fill:#FFFFFF;" d="
					M150.195,156.636c0,5.929-4.807,10.736-10.736,10.736c-5.929,0-10.736-4.807-10.736-10.736c0-5.929,4.807-10.736,10.736-10.736
					C145.389,145.9,150.195,150.707,150.195,156.636z"/>
			</g>
			<path style="fill:#FFFFFF;" d="M226.88,190.888c0,7.906-6.409,14.315-14.315,14.315c-7.906,0-14.314-6.409-14.314-14.315
				c0-7.906,6.409-14.314,14.314-14.314C220.471,176.574,226.88,182.983,226.88,190.888z"/>
		</g>
	</g>
</g>
<g id="Plants">
	<g>
		<path style="fill:#C6FF00;" d="M428.741,363.88c-3.852,4.444-4.866,9.267-5.078,10.556l-10.192,5.714v-27.009l0.2,0.273
			l16.232-11.882c2.047,0.321,9.927,1.213,17.108-2.654c8.334-4.488,14.424-19.873,14.424-19.873s-19.873-2.244-26.604,6.09
			c-5.464,6.764-5.648,13.317-5.523,15.545l-15.837,11.592v-19.947c1.905-0.842,9.547-4.772,12.064-14.563
			c2.885-11.219-12.501-33.336-12.501-33.336s-16.027,22.758-12.821,34.297c2.716,9.778,10.015,12.872,12.186,13.591v43.255
			l-11.43-9.525c0.264-2.276,0.466-9.406-5.884-16.55c-7.693-8.654-28.207-8.013-28.207-8.013s8.655,17.309,16.027,23.078
			c6.443,5.042,15.332,2.985,17.472,2.386l12.023,10.019v13.151h-17.869l7.29,45.565h21.871l7.291-45.565h-17.511v-8.698
			l11.195-6.277c2.725,0.756,10.331,2.316,17.536-1.286c8.975-4.488,16.347-14.104,16.347-14.104S437.075,354.264,428.741,363.88z"
			/>
		<path style="opacity:0.5;fill:#FFFFFF;" d="M428.741,363.88c-3.852,4.444-4.866,9.267-5.078,10.556l-10.192,5.714v-27.009
			l0.2,0.273l16.232-11.882c2.047,0.321,9.927,1.213,17.108-2.654c8.334-4.488,14.424-19.873,14.424-19.873
			s-19.873-2.244-26.604,6.09c-5.464,6.764-5.648,13.317-5.523,15.545l-15.837,11.592v-19.947
			c1.905-0.842,9.547-4.772,12.064-14.563c2.885-11.219-12.501-33.336-12.501-33.336s-16.027,22.758-12.821,34.297
			c2.716,9.778,10.015,12.872,12.186,13.591v43.255l-11.43-9.525c0.264-2.276,0.466-9.406-5.884-16.55
			c-7.693-8.654-28.207-8.013-28.207-8.013s8.655,17.309,16.027,23.078c6.443,5.042,15.332,2.985,17.472,2.386l12.023,10.019v13.151
			h-17.869l7.29,45.565h21.871l7.291-45.565h-17.511v-8.698l11.195-6.277c2.725,0.756,10.331,2.316,17.536-1.286
			c8.975-4.488,16.347-14.104,16.347-14.104S437.075,354.264,428.741,363.88z"/>
	</g>
</g>
<g id="Desk">
	<g>
		<g>
			<g>
				<g>
					<path style="fill:#263238;" d="M408.533,226.234l-29.434,0.243c0,0-1.946-0.243-2.432,1.216c0,0-5.108,12.892-5.352,17.514
						c-0.243,4.622,0.973,3.892-0.973,9.973c-1.946,6.081-7.541,20.433-10.704,32.11c-4.25,15.693-5.358,32.349-5.627,48.547
						c-0.043,2.599-1.597,24.965,2.449,24.965c3.358,0,34.326,4.104,34.699-1.866c1.487-23.795-2.81-47.046,5.455-70.188
						c3.21-8.987,6.891-18.48,9.614-27.882c2.734-9.441,3.2-19.173,4.981-28.795C412.425,225.504,408.533,226.234,408.533,226.234z"
						/>
					<path style="fill:#C6FF00;" d="M411.415,229.148c-0.29-3.397-2.882-2.914-2.882-2.914l-29.434,0.243
						c0,0-1.946-0.243-2.432,1.216c0,0-5.108,12.893-5.352,17.514c-0.094,1.787,0.03,2.773,0.105,3.663l0.625,0.958
						c0,0,0.973,8.514,12.649,9c11.676,0.487,18.244-4.865,20.677-9.973c2.433-5.108,3.405-13.379,5.352-18.244
						C410.917,230.124,411.158,229.636,411.415,229.148z"/>
				</g>
				<path style="fill:#C6FF00;" d="M404.592,238.649c-1.974,7.106-0.79,9.08-2.764,21.319c-1.974,12.239-9.08,26.056-11.844,38.69
					c-2.763,12.633-1.579,57.245-1.184,59.219c0.15,0.752,0.186,1.962,0.172,3.172c1.325-0.495,2.128-1.18,2.186-2.111
					c1.487-23.795-2.81-47.046,5.455-70.188c3.21-8.987,6.891-18.48,9.614-27.882c2.734-9.441,3.199-19.173,4.981-28.795
					c0.747-4.036-0.433-5.312-1.455-5.7l-0.029,0.039C409.724,226.411,406.566,231.543,404.592,238.649z"/>
			</g>
			<path style="fill:#263238;" d="M347.742,418.279l-0.197-0.158v-27.477h3.948v-17.371h-14.607v17.371h3.948v27.95l-34.939,11.134
				v2.764c0,1.744,1.414,3.158,3.158,3.158c1.745,0,3.158-1.414,3.158-3.158v-0.395l29.215-3.397v4.187
				c0,1.526,1.237,2.764,2.764,2.764c1.526,0,2.763-1.237,2.763-2.764v-4.324l30.399,3.535v0.395c0,1.744,1.414,3.158,3.158,3.158
				c1.744,0,3.158-1.414,3.158-3.158v-2.764L347.742,418.279z"/>
			<path style="fill:#263238;" d="M389.397,376.473h-86.769c-2.209,0-4-1.791-4-4v-12.148c0-2.209,1.791-4,4-4h86.769
				c2.209,0,4,1.791,4,4v12.148C393.397,374.682,391.607,376.473,389.397,376.473z"/>
		</g>
		<g>
			<g>
				<g>
					<path style="fill:#263238;" d="M47.841,226.234l29.434,0.243c0,0,1.946-0.243,2.433,1.216c0,0,5.108,12.892,5.352,17.514
						c0.243,4.622-0.973,3.892,0.973,9.973c1.946,6.081,7.541,20.433,10.703,32.11c4.25,15.693,5.358,32.349,5.627,48.547
						c0.043,2.599,1.597,24.965-2.449,24.965c-3.358,0-34.326,4.104-34.699-1.866c-1.487-23.795,2.81-47.046-5.455-70.188
						c-3.21-8.987-6.891-18.48-9.614-27.882c-2.734-9.441-3.2-19.173-4.981-28.795C43.949,225.504,47.841,226.234,47.841,226.234z"
						/>
					<path style="fill:#C6FF00;" d="M44.958,229.148c0.29-3.397,2.882-2.914,2.882-2.914l29.434,0.243c0,0,1.946-0.243,2.433,1.216
						c0,0,5.108,12.893,5.352,17.514c0.094,1.787-0.03,2.773-0.105,3.663l-0.625,0.958c0,0-0.973,8.514-12.649,9
						c-11.676,0.487-18.244-4.865-20.677-9.973c-2.433-5.108-3.405-13.379-5.352-18.244
						C45.456,230.124,45.215,229.636,44.958,229.148z"/>
				</g>
				<path style="fill:#C6FF00;" d="M51.781,238.649c1.974,7.106,0.79,9.08,2.764,21.319c1.974,12.239,9.08,26.056,11.844,38.69
					c2.763,12.633,1.579,57.245,1.184,59.219c-0.15,0.752-0.186,1.962-0.173,3.172c-1.325-0.495-2.128-1.18-2.186-2.111
					c-1.487-23.795,2.81-47.046-5.455-70.188c-3.21-8.987-6.891-18.48-9.614-27.882c-2.734-9.441-3.199-19.173-4.981-28.795
					c-0.747-4.036,0.434-5.312,1.456-5.7l0.029,0.039C46.649,226.411,49.807,231.543,51.781,238.649z"/>
			</g>
			<path style="fill:#263238;" d="M108.631,418.279l0.197-0.158v-27.477h-3.948v-17.371h14.607v17.371h-3.948v27.95l34.939,11.134
				v2.764c0,1.744-1.414,3.158-3.158,3.158c-1.744,0-3.158-1.414-3.158-3.158v-0.395l-29.215-3.397v4.187
				c0,1.526-1.237,2.764-2.764,2.764c-1.526,0-2.763-1.237-2.763-2.764v-4.324l-30.399,3.535v0.395c0,1.744-1.414,3.158-3.158,3.158
				c-1.744,0-3.158-1.414-3.158-3.158v-2.764L108.631,418.279z"/>
			<path style="fill:#263238;" d="M66.976,376.473h86.769c2.209,0,4-1.791,4-4v-12.148c0-2.209-1.791-4-4-4H66.976
				c-2.209,0-4,1.791-4,4v12.148C62.976,374.682,64.767,376.473,66.976,376.473z"/>
		</g>
		<g>
			<g>
				<g>
					<g>
						<rect x="134.405" y="299.741" style="fill:#CCCCCC;" width="237.595" height="136.557"/>
					</g>
					<rect x="134.518" y="303.019" style="fill:#263238;" width="237.296" height="3.778"/>
					<rect x="129.115" y="297.502" style="fill:#CCCCCC;" width="244.649" height="5.97"/>
				</g>
			</g>
		</g>
	</g>
</g>
<g id="Characters">
	<g>
		<g>
			<defs>
				<path id="XMLID_7_" d="M197.663,285.643c0,0,2.799,12.512,2.634,15.969c-0.165,3.457-6.75,12.841-6.914,10.701
					c-0.165-2.14,1.152-5.268,1.152-5.268s-2.305,3.128-3.128,2.963c-0.823-0.165,0.658-4.445,0.658-4.445s-2.469,2.469-3.292,1.975
					s1.811-4.116,1.811-4.116s-2.963,3.128-3.128,2.14c-0.165-0.988,2.634-5.103,2.634-5.103s-2.799-5.927-2.963-8.396
					c-0.165-2.469,1.646-4.774,1.646-4.774L197.663,285.643z"/>
			</defs>
			<use xlink:href="#XMLID_7_"  style="overflow:visible;fill:#FFFFFF;"/>
			<clipPath id="XMLID_00000085968035030487759120000005825953955917157543_">
				<use xlink:href="#XMLID_7_"  style="overflow:visible;"/>
			</clipPath>
			<path style="clip-path:url(#XMLID_00000085968035030487759120000005825953955917157543_);fill:#D9D9D9;" d="M197.663,285.643
				c0,0,2.799,12.512,2.634,15.969c-0.165,3.457-6.75,12.841-6.914,10.701c-0.165-2.14,1.152-5.268,1.152-5.268
				s-2.305,3.128-3.128,2.963c-0.823-0.165,0.658-4.445,0.658-4.445s-2.469,2.469-3.292,1.975s1.811-4.116,1.811-4.116
				s-2.963,3.128-3.128,2.14c-0.165-0.988,2.634-5.103,2.634-5.103s-2.799-5.927-2.963-8.396c-0.165-2.469,1.646-4.774,1.646-4.774
				L197.663,285.643z"/>
			
				<use xlink:href="#XMLID_7_"  style="overflow:visible;fill:none;stroke:#263238;stroke-linecap:round;stroke-linejoin:round;stroke-miterlimit:10;"/>
		</g>
		<g>
			<defs>
				<path id="XMLID_6_" d="M197.005,285.643c0,0,1.975,8.725,1.811,11.194c-0.165,2.469-2.634,9.713-4.445,8.396
					c-1.811-1.317,1.152-6.256,1.152-6.256s-5.088-3.566-6.256-6.914c-1.168-3.348-0.494-4.774-0.494-4.774L197.005,285.643z"/>
			</defs>
			<use xlink:href="#XMLID_6_"  style="overflow:visible;fill:#FFFFFF;"/>
			<clipPath id="XMLID_00000183929279628479755660000014336702992131217031_">
				<use xlink:href="#XMLID_6_"  style="overflow:visible;"/>
			</clipPath>
			<path style="clip-path:url(#XMLID_00000183929279628479755660000014336702992131217031_);fill:#D9D9D9;" d="M197.005,285.643
				c0,0,1.975,8.725,1.811,11.194c-0.165,2.469-2.634,9.713-4.445,8.396c-1.811-1.317,1.152-6.256,1.152-6.256
				s-5.088-3.566-6.256-6.914c-1.168-3.348-0.494-4.774-0.494-4.774L197.005,285.643z"/>
			
				<use xlink:href="#XMLID_6_"  style="overflow:visible;fill:none;stroke:#263238;stroke-linecap:round;stroke-linejoin:round;stroke-miterlimit:10;"/>
		</g>
		<polygon style="fill:#263238;stroke:#263238;stroke-linecap:round;stroke-linejoin:round;stroke-miterlimit:10;" points="
			190.968,244.727 197.98,286.484 188.099,288.715 178.218,256.521 		"/>
		<path style="fill:#263238;stroke:#263238;stroke-linecap:round;stroke-linejoin:round;stroke-miterlimit:10;" d="M188.099,265.128
			c0,0,0.638,49.726,1.594,63.113c0.956,13.388-2.55,31.238-5.738,36.338c-3.188,5.1-17.213,36.975-16.575,38.888
			s3.506,7.65,3.506,9.244c0,1.594,0,6.694,0,6.694s15.938,10.519,17.213,10.519c1.275,0,2.869,2.55-0.319,4.462
			c-3.188,1.913-38.888,1.913-40.482,0.638c-1.594-1.275-2.231-3.506-2.231-3.506s-5.1,1.912-4.781-2.869
			c0.319-4.781,6.056-25.182,6.056-25.182s-3.506-22.313-2.231-36.657c1.275-14.344,5.738-31.557,5.738-35.063
			c0-3.506-4.463-26.775-5.1-30.6c-0.637-3.825-9.881-14.663-5.738-23.269c4.144-8.606,7.331-22.313,8.606-23.269
			c1.275-0.956,18.488-1.594,25.5,0C180.13,256.202,187.78,256.202,188.099,265.128z"/>
		<g>
			<defs>
				<path id="XMLID_2_" d="M156.496,164.908c0,0-5.443,4.88-6.382,6.57c-0.938,1.689-12.389,18.02-12.576,29.658
					c-0.188,11.638,8.447,46.927,8.447,46.927l-12.952,33.069l3.754,1.502l3.754-4.13v6.194c0,0,4.317,3.942,15.58,7.696
					c11.262,3.754,25.716-0.563,25.716-0.563l4.317-27.437v27.062l5.068-3.379l0.375-45.082c0,0,4.13-24.214,4.13-30.972
					c0-6.758-11.45-27.969-16.518-34.163s-13.515-11.262-15.955-13.14C160.814,162.844,156.496,164.908,156.496,164.908z"/>
			</defs>
			<use xlink:href="#XMLID_2_"  style="overflow:visible;fill:#263238;"/>
			<clipPath id="XMLID_00000085228567525806760680000009763415006129721230_">
				<use xlink:href="#XMLID_2_"  style="overflow:visible;"/>
			</clipPath>
			<g style="clip-path:url(#XMLID_00000085228567525806760680000009763415006129721230_);">
				<path style="opacity:0.17;fill:#FFFFFF;" d="M156.496,164.908c0,0-5.443,4.88-6.382,6.57
					c-0.938,1.689-12.389,18.02-12.576,29.658c-0.188,11.638,8.447,46.927,8.447,46.927l-12.952,33.069l3.754,1.502l3.754-4.13
					v6.194c0,0,4.317,3.942,15.58,7.696c11.262,3.754,25.716-0.563,25.716-0.563l4.317-27.437v27.062l5.068-3.379l0.375-45.082
					c0,0,4.13-24.214,4.13-30.972c0-6.758-11.45-27.969-16.518-34.163s-13.515-11.262-15.955-13.14
					C160.814,162.844,156.496,164.908,156.496,164.908z"/>
				<path style="fill:none;stroke:#263238;stroke-linecap:round;stroke-linejoin:round;stroke-miterlimit:10;" d="M140.465,204.879
					c0,0,6.815,4.827,11.358,6.531"/>
				<path style="fill:none;stroke:#263238;stroke-linecap:round;stroke-linejoin:round;stroke-miterlimit:10;" d="M142.453,209.99
					c0,0,7.667,1.988,11.642,1.988"/>
				<polyline style="fill:none;stroke:#263238;stroke-linecap:round;stroke-linejoin:round;stroke-miterlimit:10;" points="
					153.527,255.422 175.107,257.978 173.687,262.521 153.811,260.25 				"/>
			</g>
			
				<use xlink:href="#XMLID_2_"  style="overflow:visible;fill:none;stroke:#263238;stroke-linecap:round;stroke-linejoin:round;stroke-miterlimit:10;"/>
		</g>
		<path style="fill:#FFFFFF;stroke:#263238;stroke-linecap:round;stroke-linejoin:round;stroke-miterlimit:10;" d="M155.37,166.035
			l20.836,22.525l12.201,23.276c0,0-2.628-17.269-4.88-21.962c-2.252-4.693-12.389-16.518-13.515-19.146
			C168.885,168.099,155.37,166.035,155.37,166.035z"/>
		<path style="fill:#263238;stroke:#263238;stroke-linecap:round;stroke-linejoin:round;stroke-miterlimit:10;" d="M182.638,200.831
			l5.769,11.005c0,0-1.792-11.768-3.684-18.514l-1.196-3.447c-0.902-1.88-3.072-4.905-5.418-8.024l-3.268-0.654l1.365,7.363
			l4.227,3.448L182.638,200.831z"/>
		<path style="fill:#FFFFFF;stroke:#263238;stroke-linecap:round;stroke-linejoin:round;stroke-miterlimit:10;" d="M177.077,174.486
			l1.079,1.259l3.395,3.96l1.976,10.168l-8.686-8.677C174.84,181.196,175.959,175.977,177.077,174.486z"/>
		<g>
			<g>
				<defs>
					<path id="XMLID_4_" d="M186.905,132.623c0,0,4.567,3.501,5.13,6.88c0.563,3.379-1.126,7.133-0.939,8.447
						c0.188,1.314,3.566,4.317,3.379,5.819c-0.188,1.502-3.003,2.065-3.003,2.065s-3.065,11.14-3.816,13.017
						c-0.751,1.877-4.505,1.314-7.321,0.939l-5.068,15.017l-16.706-19.709l2.628-7.884c0,0-7.133-8.634-7.696-17.832
						c-0.563-9.198,6.758-15.58,17.269-16.894c10.512-1.314,19.334,3.754,20.46,5.819
						C192.349,130.37,186.905,132.623,186.905,132.623z"/>
				</defs>
				<use xlink:href="#XMLID_4_"  style="overflow:visible;fill:#FFFFFF;"/>
				<clipPath id="XMLID_00000024001468704959711590000006408371285061707924_">
					<use xlink:href="#XMLID_4_"  style="overflow:visible;"/>
				</clipPath>
				<path style="clip-path:url(#XMLID_00000024001468704959711590000006408371285061707924_);fill:#D9D9D9;" d="M186.905,132.623
					c0,0,4.567,3.501,5.13,6.88c0.563,3.379-1.126,7.133-0.939,8.447c0.188,1.314,3.566,4.317,3.379,5.819
					c-0.188,1.502-3.003,2.065-3.003,2.065s-3.065,11.14-3.816,13.017c-0.751,1.877-4.505,1.314-7.321,0.939l-5.068,15.017
					l-16.706-19.709l2.628-7.884c0,0-7.133-8.634-7.696-17.832c-0.563-9.198,6.758-15.58,17.269-16.894
					c10.512-1.314,19.334,3.754,20.46,5.819C192.349,130.37,186.905,132.623,186.905,132.623z"/>
				<path style="clip-path:url(#XMLID_00000024001468704959711590000006408371285061707924_);fill:#B8B8B8;" d="M167.434,175.564
					c2.821-0.572,7.544-1.549,11.802-2.517l1.099-3.258c2.348,0.313,5.342,0.751,6.709-0.198
					c-3.206-1.316-11.125-3.634-12.745-6.604c-2.013-3.69,5.033-14.427,5.033-19.795s-6.71-11.407-6.71-11.407
					c-3.236-3.075-9.125-3.962-14.356-4.058c-3.251,2.936-5.063,6.917-4.773,11.654c0.563,9.198,7.696,17.832,7.696,17.832
					l-2.628,7.884L167.434,175.564z"/>
				
					<use xlink:href="#XMLID_4_"  style="overflow:visible;fill:none;stroke:#263238;stroke-linecap:round;stroke-linejoin:round;stroke-miterlimit:10;"/>
			</g>
			<path style="fill:#263238;stroke:#263238;stroke-linecap:round;stroke-linejoin:round;stroke-miterlimit:10;" d="
				M186.905,132.623c0,0,5.444-2.253,4.317-4.317c-1.126-2.065-9.948-7.133-20.46-5.819c-10.512,1.314-17.832,7.696-17.269,16.894
				c0.563,9.198,7.696,17.832,7.696,17.832l-0.399,1.199c3.892,1.895,7.908-1.199,7.908-1.199s-2.252,1.314-4.505-0.751
				c-2.252-2.065-2.44-8.635,0.376-9.198c2.816-0.563,4.693,0.563,4.693,2.628c0,2.065,0.563,0.751,2.065,0.563
				c1.502-0.188,0.188-4.693,1.126-5.443c0.939-0.751,2.253-1.314,3.942-3.567c1.689-2.252-3.191-4.129-3.754-6.194
				C172.076,133.186,186.905,132.623,186.905,132.623z"/>
			<polyline style="fill:none;stroke:#263238;stroke-linecap:round;stroke-linejoin:round;stroke-miterlimit:10;" points="
				188.254,147.281 184.774,148.441 187.923,148.441 			"/>
			<path style="fill:none;stroke:#263238;stroke-linecap:round;stroke-linejoin:round;stroke-miterlimit:10;" d="M189.58,143.801
				c0,0-1.492-2.155-3.149-1.16c-1.657,0.994-1.823,1.657-1.823,1.657"/>
			<path style="fill:none;stroke:#263238;stroke-linecap:round;stroke-linejoin:round;stroke-miterlimit:10;" d="M186.01,158.878
				c0,0,1.337,1.07,3.476,0.802"/>
		</g>
		<polygon style="fill:#FFFFFF;stroke:#263238;stroke-linecap:round;stroke-linejoin:round;stroke-miterlimit:10;" points="
			157.811,161.53 178.834,182.178 176.957,191 154.619,166.973 		"/>
		<path style="fill:#FFFFFF;stroke:#263238;stroke-linecap:round;stroke-linejoin:round;stroke-miterlimit:10;" d="M238.56,240.479
			c0,0-7.399-4.4-8.599-4c-1.2,0.4-12.799,8.799-11.999,10.799s6.999,4.6,10.599,5.999c3.6,1.4,10.999-1.6,10.999-1.6
			L238.56,240.479z"/>
		<g>
			<defs>
				<path id="XMLID_5_" d="M216.962,238.879c0,0,6.399-3.6,7.399-3.6c1,0,6.799,5.199,6.799,5.199l-2.4,3.6c0,0,7.599,3.8,6.799,5.2
					c-0.8,1.4-3.8,3.6-6.999,4c-3.2,0.4-12.199-5.4-12.199-5.4L216.962,238.879z"/>
			</defs>
			<use xlink:href="#XMLID_5_"  style="overflow:visible;fill:#FFFFFF;"/>
			<clipPath id="XMLID_00000062167742532279302770000012394698712777631901_">
				<use xlink:href="#XMLID_5_"  style="overflow:visible;"/>
			</clipPath>
			<path style="clip-path:url(#XMLID_00000062167742532279302770000012394698712777631901_);fill:#D9D9D9;" d="M216.962,238.879
				c0,0,6.399-3.6,7.399-3.6c1,0,6.799,5.199,6.799,5.199l-2.4,3.6c0,0,7.599,3.8,6.799,5.2c-0.8,1.4-3.8,3.6-6.999,4
				c-3.2,0.4-12.199-5.4-12.199-5.4L216.962,238.879z"/>
			
				<use xlink:href="#XMLID_5_"  style="overflow:visible;fill:none;stroke:#263238;stroke-linecap:round;stroke-linejoin:round;stroke-miterlimit:10;"/>
		</g>
		<polygon style="fill:#FFFFFF;stroke:#263238;stroke-linecap:round;stroke-linejoin:round;stroke-miterlimit:10;" points="
			212.563,237.279 218.162,238.279 216.362,247.878 211.563,246.278 		"/>
		<g>
			<defs>
				<path id="XMLID_3_" d="M147.569,181.485c0,0-5.399,10.399-5.999,15.598c-0.6,5.199,21.398,46.595,22.998,47.995
					c1.6,1.4,48.395,2.8,48.395,2.8l2-10.199l-39.996-11.399l-13.599-41.796"/>
			</defs>
			<use xlink:href="#XMLID_3_"  style="overflow:visible;fill:#263238;"/>
			<clipPath id="XMLID_00000033337933663688346990000016428757701262109873_">
				<use xlink:href="#XMLID_3_"  style="overflow:visible;"/>
			</clipPath>
			<path style="opacity:0.17;clip-path:url(#XMLID_00000033337933663688346990000016428757701262109873_);fill:#FFFFFF;" d="
				M147.569,181.485c0,0-5.399,10.399-5.999,15.598c-0.6,5.199,21.398,46.595,22.998,47.995c1.6,1.4,48.395,2.8,48.395,2.8l2-10.199
				l-39.996-11.399l-13.599-41.796"/>
			
				<use xlink:href="#XMLID_3_"  style="overflow:visible;fill:none;stroke:#263238;stroke-linecap:round;stroke-linejoin:round;stroke-miterlimit:10;"/>
		</g>
		<path style="fill:#FFFFFF;stroke:#263238;stroke-linecap:round;stroke-linejoin:round;stroke-miterlimit:10;" d="M231.561,237.479
			c0,0-2.8-2.4-3.8,0.4s-7.199,9.599-4.4,9.799c2.8,0.2,7.999-5.599,7.999-5.599"/>
		<path style="fill:#FFFFFF;stroke:#263238;stroke-linecap:round;stroke-linejoin:round;stroke-miterlimit:10;" d="M219.162,248.678
			c0,0-0.724,3.376,1,4.799c1.204,0.995,1.893-1.802,1.6-3.8C221.458,247.612,219.762,247.078,219.162,248.678z"/>
		<path style="fill:#FFFFFF;stroke:#263238;stroke-linecap:round;stroke-linejoin:round;stroke-miterlimit:10;" d="M221.961,249.478
			c0,0-0.724,3.376,1,4.799c1.204,0.995,1.893-1.802,1.6-3.8C224.258,248.412,222.561,247.878,221.961,249.478z"/>
		<path style="fill:#FFFFFF;stroke:#263238;stroke-linecap:round;stroke-linejoin:round;stroke-miterlimit:10;" d="M224.761,250.678
			c0,0-0.724,3.376,1,4.799c1.204,0.995,1.893-1.802,1.6-3.8C227.058,249.612,225.361,249.078,224.761,250.678z"/>
		<path style="fill:#FFFFFF;stroke:#263238;stroke-linecap:round;stroke-linejoin:round;stroke-miterlimit:10;" d="M227.533,252.308
			c0,0-0.665,2.277,0.919,3.237c1.107,0.671,1.74-1.215,1.471-2.563C229.645,251.589,228.085,251.229,227.533,252.308z"/>
		<polygon style="fill:none;stroke:#263238;stroke-linecap:round;stroke-linejoin:round;stroke-miterlimit:10;" points="
			238.56,240.479 239.16,253.277 243.559,252.077 242.559,240.279 		"/>
		<polygon style="fill:#263238;stroke:#263238;stroke-linecap:round;stroke-linejoin:round;stroke-miterlimit:10;" points="
			241.559,239.279 243.559,254.477 276.956,250.878 277.756,231.08 		"/>
		<path style="fill:none;stroke:#FFFFFF;stroke-linecap:round;stroke-linejoin:round;stroke-miterlimit:10;" d="M182.999,299.872
			c0,0-6.056,40.482-6.056,54.188c0,13.706-9.244,36.657-9.563,49.407"/>
		<g>
			<path style="fill:#FFFFFF;stroke:#263238;stroke-linecap:round;stroke-linejoin:round;stroke-miterlimit:10;" d="
				M147.299,435.023c1.594,1.275,37.294,1.275,40.482-0.638c3.188-1.913,1.594-4.462,0.319-4.462
				c-1.275,0-17.213-10.519-17.213-10.519s-8.606,6.694-13.388,8.288c-4.781,1.594-12.431,1.912-12.431,1.912v1.913
				C145.067,431.517,145.705,433.748,147.299,435.023z"/>
			<path style="fill:#FFFFFF;stroke:#263238;stroke-linecap:round;stroke-linejoin:round;stroke-miterlimit:10;" d="M187.78,434.385
				c1.681-1.008,2.026-2.191,1.796-3.087c-3.556,0.766-8.283,1.332-14.227,1.493c-9.63,0.26-24.779-0.329-30.017-0.554
				c0.32,0.763,0.945,1.968,1.967,2.786C148.892,436.298,184.593,436.298,187.78,434.385z"/>
		</g>
		<path style="fill:#263238;stroke:#263238;stroke-linecap:round;stroke-linejoin:round;stroke-miterlimit:10;" d="M144.141,431.767
			l0.927-2.163l1.275-26.138c0,0-5.738,20.4-6.056,25.182C140.054,432.128,142.687,432.061,144.141,431.767z"/>
		<path style="fill:#263238;stroke:#263238;stroke-linecap:round;stroke-linejoin:round;stroke-miterlimit:10;" d="M281.813,291.903
			c0,0-3.188,47.494,0,66.619c3.188,19.125,11.156,52.276,12.431,56.419s0.956,7.65,0.956,7.65l17.85,2.55
			c0,0-5.419-62.794-5.419-70.126c0-7.331,6.056-62.157,6.056-62.157L281.813,291.903z"/>
		<path style="fill:#263238;stroke:#263238;stroke-linecap:round;stroke-linejoin:round;stroke-miterlimit:10;" d="M295.2,422.592
			c0,0-19.444,8.288-21.675,9.881c-2.231,1.594,4.781,3.825,13.388,3.825c8.606,0,17.213-0.956,17.213-0.956l3.506-1.913
			l0.319,2.231h9.244c0,0,1.594-7.65,0.956-9.563c-0.638-1.913-1.594-3.825-1.594-3.825L295.2,422.592z"/>
		<g>
			<path style="fill:#263238;stroke:#263238;stroke-linecap:round;stroke-linejoin:round;stroke-miterlimit:10;" d="
				M278.944,288.078c0,0,1.594,45.582,5.419,61.838c3.825,16.256,10.519,55.782,10.519,59.926s-0.956,7.013-0.956,7.013
				l-1.275,4.144c0.319,1.594,0.956,2.869,0.956,2.869s8.288,1.913,13.706,1.913s10.026-1.505,10.026-1.505s0.174-9.97,0.493-14.751
				c0.319-4.781-1.275-35.382-1.275-42.713c0-7.331-1.912-11.475-1.912-20.4c0-8.925-1.594-32.832-1.275-36.657
				c0.319-3.825,4.781-7.969,5.738-12.75c0.956-4.781,1.913-9.881,1.913-9.881L278.944,288.078z"/>
			<path style="fill:none;stroke:#FFFFFF;stroke-linecap:round;stroke-linejoin:round;stroke-miterlimit:10;" d="M282.764,336.013
				c0,0,8.909,61.809,11.137,65.707c2.227,3.898,0.98,8.122,0.98,8.122"/>
		</g>
		<path style="fill:#263238;stroke:#263238;stroke-linecap:round;stroke-linejoin:round;stroke-miterlimit:10;" d="M271.294,252.059
			c0,0-1.195,12.192-1.195,21.516c0,5.197-0.049,11.953-0.093,16.916c-0.037,4.163,2.874,7.77,6.952,8.608
			c2.114,0.434,4.396,0.773,6.37,0.773l-7.491-46.379C275.836,253.493,272.489,247.755,271.294,252.059z"/>
		<path style="fill:#263238;stroke:#263238;stroke-linecap:round;stroke-linejoin:round;stroke-miterlimit:10;" d="M306.675,169.023
			c0,0,3.347,1.753,4.941,3.666c1.594,1.912,3.347,5.259,3.347,5.259s13.547,15.619,13.866,17.213
			c0.319,1.594-7.65,51.797-7.65,51.797l9.085,47.494c0,0-14.663,8.128-25.819,8.606c-7.857,0.337-19.666-2.172-25.964-3.686
			c-2.591-0.623-4.489-2.815-4.735-5.469c-0.617-6.672-1.775-19.957-2.452-32.603c-0.785-14.653,1.434-43.669,3.028-53.869
			c1.594-10.2,6.534-24.066,10.359-29.803C288.506,171.892,299.025,165.995,306.675,169.023z"/>
		<g>
			<defs>
				<path id="XMLID_1_" d="M314.963,177.949c0,0-1.753-3.347-3.347-5.259c-1.594-1.913-4.941-3.666-4.941-3.666
					c-6.355-2.516-14.677,1.131-19.51,5.726c-0.631,1.423-5.674,12.921-8.063,22.324c-2.55,10.041-2.231,22.631-2.231,22.631
					s8.447-10.837,19.922-23.588c7.632-8.48,14.766-14.488,18.691-17.564C315.155,178.17,314.963,177.949,314.963,177.949z"/>
			</defs>
			<use xlink:href="#XMLID_1_"  style="overflow:visible;fill:#263238;"/>
			<clipPath id="XMLID_00000022536382586644769500000015644062238336709054_">
				<use xlink:href="#XMLID_1_"  style="overflow:visible;"/>
			</clipPath>
			<path style="opacity:0.17;clip-path:url(#XMLID_00000022536382586644769500000015644062238336709054_);fill:#FFFFFF;" d="
				M314.963,177.949c0,0-1.753-3.347-3.347-5.259c-1.594-1.913-4.941-3.666-4.941-3.666c-6.355-2.516-14.677,1.131-19.51,5.726
				c-0.631,1.423-5.674,12.921-8.063,22.324c-2.55,10.041-2.231,22.631-2.231,22.631s8.447-10.837,19.922-23.588
				c7.632-8.48,14.766-14.488,18.691-17.564C315.155,178.17,314.963,177.949,314.963,177.949z"/>
			
				<use xlink:href="#XMLID_1_"  style="overflow:visible;fill:none;stroke:#263238;stroke-linecap:round;stroke-linejoin:round;stroke-miterlimit:10;"/>
		</g>
		<path style="fill:#FFFFFF;stroke:#263238;stroke-linecap:round;stroke-linejoin:round;stroke-miterlimit:10;" d="M286.116,182.132
			c0,0-4.303,13.507-5.618,17.332c-1.315,3.825-1.434,9.802-1.434,9.802s16.137-24.146,20.081-28.21
			c3.945-4.064,9.085-10.399,9.085-10.399l-3.466-0.956L286.116,182.132z"/>
		<path style="fill:#FFFFFF;stroke:#263238;stroke-linecap:round;stroke-linejoin:round;stroke-miterlimit:10;" d="M287.311,177.231
			c0,0-1.913,5.618-1.913,5.977s-0.478,5.738-0.478,5.738l6.813-9.204L287.311,177.231z"/>
		<polygon style="fill:#FFFFFF;stroke:#263238;stroke-linecap:round;stroke-linejoin:round;stroke-miterlimit:10;" points="
			304.643,165.995 285.996,181.176 288.865,189.543 307.99,170.059 		"/>
		<g>
			<path style="fill:#FFFFFF;stroke:#263238;stroke-linecap:round;stroke-linejoin:round;stroke-miterlimit:10;" d="
				M302.234,286.399c0,0-2.655,6.588-3.442,8.752c-0.787,2.163-0.393,10.62-0.295,11.505s1.672,1.082,1.672,1.082
				s0.492,6.785,1.082,6.982c0.59,0.197,1.868,0.295,1.868,0.295s1.082,3.442,2.458,3.147c1.377-0.295,1.573-1.868,1.573-1.868
				s1.475,0.197,2.36-1.082c0.885-1.278,1.377-2.655,1.377-2.655s2.36-1.18,2.557-2.065c0.197-0.885,0.787-4.032,0.787-4.032
				s0.688-0.197,0.688-2.262s-1.573-14.75-1.573-14.75L302.234,286.399z"/>
			
				<line style="fill:none;stroke:#263238;stroke-linecap:round;stroke-linejoin:round;stroke-miterlimit:10;" x1="300.169" y1="307.738" x2="300.459" y2="301.761"/>
			
				<line style="fill:none;stroke:#263238;stroke-linecap:round;stroke-linejoin:round;stroke-miterlimit:10;" x1="303.119" y1="315.014" x2="303.76" y2="306.163"/>
			
				<line style="fill:none;stroke:#263238;stroke-linecap:round;stroke-linejoin:round;stroke-miterlimit:10;" x1="307.15" y1="316.293" x2="307.612" y2="306.713"/>
			
				<line style="fill:none;stroke:#263238;stroke-linecap:round;stroke-linejoin:round;stroke-miterlimit:10;" x1="310.887" y1="312.556" x2="311.463" y2="305.888"/>
		</g>
		<g>
			<path style="fill:#263238;stroke:#263238;stroke-linecap:round;stroke-linejoin:round;stroke-miterlimit:10;" d="
				M321.657,190.858l7.172,4.303l-2.391,49.566l-12.75,46.857l-12.113-3.188l3.825-36.975l-1.913-37.294
				c0,0,2.709-8.686,8.925-13.467"/>
			<path style="fill:none;stroke:#FFFFFF;stroke-linecap:round;stroke-linejoin:round;stroke-miterlimit:10;" d="M306.914,199.225
				c0,0-3.267,8.288-3.427,14.902"/>
			<path style="fill:none;stroke:#FFFFFF;stroke-linecap:round;stroke-linejoin:round;stroke-miterlimit:10;" d="M309.631,203.174
				c0,0-5.584,9.111-5.584,13.225c0,4.114,1.47,38.5,1.47,38.5l-3.821,29.683"/>
		</g>
		<g>
			<g>
				<defs>
					<path id="XMLID_8_" d="M274.999,135.634c0,0-3.825,10.878-3.467,12.431c0.359,1.554,0.717,3.945,0.717,3.945
						s-5.977,7.411-5.259,8.248c0.717,0.837,4.064,1.793,4.064,1.793s2.749,11.475,3.825,12.551c1.076,1.076,7.77-1.315,7.77-1.315
						l7.172,9.085l14.702-14.105l-1.793-7.411c0,0,7.77-13.627,7.65-20.081c-0.12-6.455-13.388-15.061-22.831-14.942
						c-9.443,0.12-18.288,3.586-16.495,6.096C272.848,134.439,274.999,135.634,274.999,135.634z"/>
				</defs>
				<use xlink:href="#XMLID_8_"  style="overflow:visible;fill:#FFFFFF;"/>
				<clipPath id="XMLID_00000030470420426878380380000007351615824460486057_">
					<use xlink:href="#XMLID_8_"  style="overflow:visible;"/>
				</clipPath>
				<path style="clip-path:url(#XMLID_00000030470420426878380380000007351615824460486057_);fill:#B8B8B8;" d="M305.735,133.304
					c-1.748,0.265-3.537,0.73-5.285,1.5l-14.091,5.704c0,0-6.71,5.704-6.039,10.065c0.671,4.362,6.71,10.401,5.368,14.762
					c-1.342,4.362-9.73,9.059-9.73,9.059l2.631,0.095c2.012-0.472,4.061-1.202,4.061-1.202l1.096,1.388l13.586,0.491l7.192-6.9
					l-1.793-7.411c0,0,7.77-13.627,7.65-20.081C310.337,138.395,308.503,135.723,305.735,133.304z"/>
				
					<use xlink:href="#XMLID_8_"  style="overflow:visible;fill:none;stroke:#263238;stroke-linecap:round;stroke-linejoin:round;stroke-miterlimit:10;"/>
			</g>
			<path style="fill:#263238;stroke:#263238;stroke-linecap:round;stroke-linejoin:round;stroke-miterlimit:10;" d="
				M302.731,160.855c0,0,7.77-13.627,7.65-20.081c-0.12-6.455-13.388-15.061-22.831-14.942c-9.443,0.12-18.288,3.586-16.495,6.096
				c1.793,2.51,3.945,3.706,3.945,3.706s5.857,2.749,5.857,3.466c0,0.717-3.466,4.542-2.271,6.216
				c1.195,1.673,6.933,3.706,6.933,3.706s-0.956,3.227,0.478,3.586c1.434,0.359,2.152-1.076,3.108-2.032
				c0.956-0.956,4.303-2.271,4.781,1.793c0.478,4.064-1.673,7.889-2.152,8.248c-0.478,0.359,6.096,4.781,8.965,3.466
				c0.756-0.346,1.627-0.792,2.508-1.261L302.731,160.855z"/>
			
				<ellipse style="fill:none;stroke:#263238;stroke-linecap:round;stroke-linejoin:round;stroke-miterlimit:10;" cx="274.043" cy="151.771" rx="0.837" ry="3.227"/>
			
				<line style="fill:none;stroke:#263238;stroke-linecap:round;stroke-linejoin:round;stroke-miterlimit:10;" x1="274.999" y1="150.456" x2="289.104" y2="150.576"/>
			<path style="fill:none;stroke:#263238;stroke-linecap:round;stroke-linejoin:round;stroke-miterlimit:10;" d="M272.682,146.569
				c0,0,1.337-2.139,2.674,0.535"/>
			<path style="fill:none;stroke:#263238;stroke-linecap:round;stroke-linejoin:round;stroke-miterlimit:10;" d="M272.415,163.949
				c0,0,2.139-0.802,4.011-2.407"/>
		</g>
	</g>
</g>
<g id="Ground_1_">
	
		<line style="fill:none;stroke:#263238;stroke-width:2;stroke-miterlimit:10;" x1="53.266" y1="436.298" x2="446.844" y2="436.298"/>
</g>
</svg>
