<?xml version="1.0" encoding="utf-8"?>
<!-- Generator: Adobe Illustrator 27.5.0, SVG Export Plug-In . SVG Version: 6.00 Build 0)  -->
<svg version="1.1" xmlns="http://www.w3.org/2000/svg" xmlns:xlink="http://www.w3.org/1999/xlink" x="0px" y="0px"
	 viewBox="0 0 500 500" style="enable-background:new 0 0 500 500;" xml:space="preserve">
<g id="Background_Simple">
	<g>
		<path style="fill:#C6FF00;" d="M101.168,344.285c0,0,40.415,51.175,109.473,53.258c69.058,2.083,130.817-40.967,181.77-74.523
			c50.953-33.556,67.666-89.684,42.233-135.98c-25.433-46.296-71.607-30.455-127.056-63.006
			c-55.449-32.552-65.277-49.637-129.559-46.712C113.748,80.248,60.541,148.92,62.885,225.86
			C65.229,302.8,101.168,344.285,101.168,344.285z"/>
		<path style="opacity:0.7;fill:#FFFFFF;" d="M101.168,344.285c0,0,40.415,51.175,109.473,53.258
			c69.058,2.083,130.817-40.967,181.77-74.523c50.953-33.556,67.666-89.684,42.233-135.98
			c-25.433-46.296-71.607-30.455-127.056-63.006c-55.449-32.552-65.277-49.637-129.559-46.712
			C113.748,80.248,60.541,148.92,62.885,225.86C65.229,302.8,101.168,344.285,101.168,344.285z"/>
	</g>
</g>
<g id="Plants">
	<g>
		<g>
			<g>
				<path style="fill:#C6FF00;" d="M113.728,91.076c-0.057,0.006,0.697-3.728,0.771-3.958c0.864-2.663,4.098-7.303,7.233-7.297
					c2.259,0.004,3.789,2.06,3.566,4.216c-0.227,2.202-2.205,4.079-3.994,5.163C119.205,90.471,113.733,91.075,113.728,91.076z"/>
				<path style="fill:#C6FF00;" d="M107.657,65.96c2.951,1.059,4.419,6.52,4.327,9.319c-0.008,0.242-0.567,4.01-0.619,3.985
					c0,0-0.048-0.024-0.06-0.03c0.238,0.86,0.484,1.785,0.732,2.802c0.443,1.88,0.926,4.009,1.296,6.361
					c0.376,2.349,0.718,4.913,0.834,7.645c0.121,2.739,0.108,5.626-0.29,8.599c-0.004,0.034-0.013,0.068-0.018,0.102
					c0.386-0.833,1.545-3.128,1.654-3.294c1.536-2.341,5.88-5.962,8.903-5.128c2.178,0.601,3.111,2.988,2.326,5.008
					c-0.801,2.064-3.204,3.352-5.215,3.924c-2.268,0.646-7.325-0.117-7.728-0.179c-0.405,2.828-1.051,5.697-1.864,8.564
					c-0.463,1.64-0.98,3.277-1.52,4.912c0.357-0.71,0.682-1.342,0.737-1.425c1.536-2.341,5.88-5.961,8.903-5.128
					c2.178,0.601,3.11,2.987,2.327,5.008c-0.8,2.064-3.204,3.352-5.215,3.925c-2.041,0.581-6.366,0.017-7.508-0.147
					c-0.214,0.625-0.42,1.252-0.636,1.876c-1.035,2.995-2.082,5.98-3.019,8.939c-0.331,1.042-0.618,2.081-0.909,3.12
					c0.318-0.63,0.591-1.158,0.641-1.234c1.536-2.341,5.88-5.962,8.903-5.128c2.178,0.6,3.111,2.988,2.326,5.009
					c-0.8,2.063-3.204,3.352-5.215,3.924c-1.948,0.554-5.944,0.07-7.303-0.119c-0.266,1.072-0.534,2.146-0.744,3.197
					c-0.127,0.721-0.299,1.406-0.386,2.137c-0.101,0.722-0.202,1.437-0.301,2.145c-0.141,1.371-0.296,2.784-0.4,4.124
					c-0.08,0.932-0.138,1.821-0.2,2.717c0.317-1.042,0.98-3.068,1.055-3.231c0.773-1.692,2.688-4.124,4.799-5.463
					c0.113-0.25,0.247-0.49,0.405-0.716c1.243-1.775,3.746-2.327,5.456-0.851c2.374,2.049,1.78,7.673,0.689,10.251
					c-0.064,0.152-0.948,1.724-1.521,2.707c0.425-0.527,0.831-1.043,1.276-1.579c0.871-1.067,1.771-2.106,2.736-3.228
					c0.485-0.525,0.975-1.056,1.47-1.591c0.479-0.542,1.054-1.053,1.584-1.588c1.255-1.212,2.585-2.38,3.951-3.527
					c-0.932-0.765-4.205-3.529-5.146-5.407c-0.937-1.87-1.611-4.512-0.63-6.496c0.96-1.943,3.35-2.868,5.264-1.668
					c2.657,1.665,2.923,7.315,2.234,10.029c-0.043,0.169-0.756,2.061-1.167,3.093c0.827-0.683,1.648-1.369,2.507-2.032
					c2.479-1.916,5.047-3.778,7.601-5.648c0.783-0.572,1.555-1.152,2.332-1.729c-0.335-0.269-4.295-3.47-5.349-5.574
					c-0.937-1.869-1.611-4.512-0.63-6.496c0.96-1.943,3.35-2.868,5.264-1.668c2.657,1.666,2.922,7.315,2.234,10.029
					c-0.052,0.204-1.082,2.925-1.377,3.605c1.708-1.272,3.399-2.555,5.015-3.888c2.232-1.836,4.32-3.76,6.205-5.775
					c-0.156-0.125-4.305-3.447-5.385-5.602c-0.937-1.87-1.611-4.512-0.63-6.496c0.96-1.943,3.35-2.868,5.264-1.668
					c2.657,1.666,2.922,7.315,2.234,10.029c-0.045,0.178-0.828,2.254-1.223,3.231c0.083,0.052,0.068,0.043,0.151,0.095
					c1.994-2.182,3.65-4.547,5.091-6.837c0.837-1.325,1.564-2.638,2.241-3.931c-0.836-0.539-4.63-3.048-5.816-4.88
					c-1.136-1.756-2.096-4.308-1.34-6.388c0.741-2.037,3.015-3.219,5.049-2.236c2.824,1.364,3.708,6.949,3.322,9.722
					c-0.021,0.151-0.404,1.66-0.698,2.756c0.297-0.588,0.614-1.19,0.887-1.76c1.032-2.135,1.844-4.154,2.55-5.948
					c0.393-1.023,0.728-1.956,1.032-2.832c-0.544-0.958-2.689-4.844-2.894-6.977c-0.2-2.082,0.125-4.789,1.755-6.287
					c1.596-1.466,4.159-1.467,5.512,0.342c1.877,2.512,0.088,7.876-1.532,10.16c-0.14,0.197-2.685,3.032-2.714,2.982
					c0,0-0.027-0.047-0.033-0.058c-0.276,0.849-0.581,1.756-0.935,2.741c-0.668,1.813-1.439,3.855-2.428,6.021
					c-0.983,2.167-2.111,4.494-3.521,6.837c-1.41,2.351-3.014,4.752-4.986,7.012c-0.022,0.026-0.049,0.049-0.071,0.075
					c0.782-0.482,3.014-1.756,3.196-1.834c2.573-1.105,8.193-1.728,10.255,0.634c1.485,1.702,0.946,4.208-0.822,5.461
					c-1.806,1.28-4.521,1.028-6.515,0.396c-2.248-0.713-6.046-4.139-6.347-4.413c-1.898,2.135-4.019,4.172-6.279,6.115
					c-1.291,1.112-2.626,2.193-3.977,3.259c0.69-0.395,1.309-0.743,1.401-0.782c2.573-1.105,8.194-1.728,10.255,0.635
					c1.485,1.702,0.946,4.208-0.822,5.461c-1.806,1.28-4.521,1.028-6.515,0.396c-2.023-0.642-5.319-3.497-6.181-4.265
					c-0.523,0.404-1.04,0.812-1.565,1.214c-2.516,1.927-5.036,3.839-7.449,5.79c-0.851,0.687-1.664,1.395-2.48,2.1
					c0.613-0.35,1.132-0.64,1.216-0.676c2.573-1.105,8.194-1.728,10.255,0.635c1.485,1.702,0.946,4.208-0.823,5.461
					c-1.806,1.279-4.521,1.028-6.515,0.396c-1.93-0.612-4.996-3.221-6.025-4.128c-0.813,0.748-1.63,1.495-2.384,2.256
					c-0.503,0.532-1.025,1.008-1.501,1.57c-0.483,0.546-0.961,1.087-1.435,1.623c-0.874,1.065-1.783,2.159-2.609,3.219
					c-0.581,0.733-1.12,1.442-1.666,2.156c0.839-0.694,2.51-2.018,2.662-2.113c2.375-1.482,7.837-2.95,10.233-0.926
					c1.726,1.458,1.573,4.016,0.014,5.522c-1.591,1.538-4.313,1.701-6.38,1.379c-2.275-0.356-6.393-3.038-6.905-3.376
					c-0.899,1.183-1.762,2.342-2.559,3.449c-2.771,3.831-4.934,7.126-6.413,9.45c-0.053,0.083-0.1,0.157-0.15,0.237l-1.919-0.931
					c0.099-0.15,0.195-0.296,0.302-0.456c1.548-2.319,3.803-5.598,6.686-9.405c0.908-1.205,1.902-2.474,2.935-3.768
					c-0.266-0.291-1.769-1.955-2.977-3.686c-2.203,0.863-6.79,0.897-7.383,0.898c-0.097,1.482-0.177,2.925-0.231,4.288
					c-0.198,4.724-0.184,8.666-0.136,11.42c0.002,0.113,0.004,0.213,0.007,0.322l-2.109-1.023c0.021-2.737,0.104-6.438,0.383-10.815
					c0.092-1.506,0.221-3.113,0.369-4.762c-0.585-0.147-5.355-1.372-7.156-2.811c-1.634-1.305-3.353-3.422-3.294-5.635
					c0.058-2.167,1.841-4.008,4.081-3.72c3.11,0.399,5.718,5.417,6.23,8.17c0.03,0.162,0.161,1.961,0.225,3.097
					c0.064-0.673,0.118-1.328,0.193-2.021c0.138-1.37,0.316-2.734,0.502-4.202c0.115-0.706,0.23-1.418,0.348-2.138
					c0.101-0.716,0.298-1.46,0.445-2.198c0.378-1.703,0.843-3.411,1.35-5.121c-1.2-0.124-5.454-0.624-7.275-1.671
					c-1.813-1.043-3.833-2.875-4.109-5.071c-0.271-2.15,1.212-4.241,3.471-4.296c3.135-0.076,6.473,4.489,7.396,7.132
					c0.058,0.165,0.507,2.136,0.733,3.224c0.313-1.026,0.619-2.051,0.97-3.078c1.01-2.965,2.125-5.936,3.224-8.904
					c0.337-0.909,0.662-1.819,0.991-2.728c-0.427-0.039-5.497-0.525-7.536-1.698c-1.813-1.042-3.832-2.875-4.109-5.071
					c-0.271-2.15,1.212-4.241,3.471-4.295c3.135-0.076,6.473,4.489,7.396,7.132c0.069,0.199,0.712,3.036,0.84,3.766
					c0.723-2.004,1.426-4.007,2.038-6.009c0.849-2.762,1.528-5.52,1.99-8.239c-0.199-0.018-5.492-0.5-7.581-1.702
					c-1.813-1.043-3.833-2.875-4.109-5.071c-0.271-2.15,1.212-4.24,3.471-4.295c3.135-0.076,6.473,4.489,7.396,7.132
					c0.061,0.174,0.552,2.334,0.762,3.368c0.099-0.003,0.08-0.002,0.179-0.005c0.459-2.919,0.535-5.805,0.474-8.51
					c-0.032-1.567-0.151-3.063-0.299-4.515c-0.995,0.011-5.543,0.012-7.543-0.862c-1.916-0.837-4.125-2.436-4.642-4.589
					c-0.506-2.108,0.739-4.348,2.978-4.651c3.107-0.42,6.926,3.751,8.134,6.277c0.066,0.137,0.579,1.608,0.938,2.684
					c-0.077-0.654-0.144-1.331-0.23-1.957c-0.318-2.35-0.753-4.482-1.154-6.367c-0.237-1.07-0.472-2.033-0.702-2.932
					c-0.982-0.498-4.915-2.557-6.263-4.223c-1.315-1.626-2.538-4.063-2.004-6.212C103.394,66.611,105.531,65.196,107.657,65.96z"/>
				<path style="fill:#C6FF00;" d="M164.342,114.293c-2.453-0.098-7.351-2.613-7.355-2.614c-0.051-0.026,2.637-2.725,2.826-2.876
					c2.19-1.745,7.446-3.83,10.059-2.096c1.882,1.25,2.024,3.809,0.649,5.484C169.117,113.902,166.431,114.376,164.342,114.293z"/>
			</g>
			<g style="opacity:0.5;">
				<path style="fill:#FFFFFF;" d="M113.728,91.076c-0.057,0.006,0.697-3.728,0.771-3.958c0.864-2.663,4.098-7.303,7.233-7.297
					c2.259,0.004,3.789,2.06,3.566,4.216c-0.227,2.202-2.205,4.079-3.994,5.163C119.205,90.471,113.733,91.075,113.728,91.076z"/>
				<path style="fill:#FFFFFF;" d="M107.657,65.96c2.951,1.059,4.419,6.52,4.327,9.319c-0.008,0.242-0.567,4.01-0.619,3.985
					c0,0-0.048-0.024-0.06-0.03c0.238,0.86,0.484,1.785,0.732,2.802c0.443,1.88,0.926,4.009,1.296,6.361
					c0.376,2.349,0.718,4.913,0.834,7.645c0.121,2.739,0.108,5.626-0.29,8.599c-0.004,0.034-0.013,0.068-0.018,0.102
					c0.386-0.833,1.545-3.128,1.654-3.294c1.536-2.341,5.88-5.962,8.903-5.128c2.178,0.601,3.111,2.988,2.326,5.008
					c-0.801,2.064-3.204,3.352-5.215,3.924c-2.268,0.646-7.325-0.117-7.728-0.179c-0.405,2.828-1.051,5.697-1.864,8.564
					c-0.463,1.64-0.98,3.277-1.52,4.912c0.357-0.71,0.682-1.342,0.737-1.425c1.536-2.341,5.88-5.961,8.903-5.128
					c2.178,0.601,3.11,2.987,2.327,5.008c-0.8,2.064-3.204,3.352-5.215,3.925c-2.041,0.581-6.366,0.017-7.508-0.147
					c-0.214,0.625-0.42,1.252-0.636,1.876c-1.035,2.995-2.082,5.98-3.019,8.939c-0.331,1.042-0.618,2.081-0.909,3.12
					c0.318-0.63,0.591-1.158,0.641-1.234c1.536-2.341,5.88-5.962,8.903-5.128c2.178,0.6,3.111,2.988,2.326,5.009
					c-0.8,2.063-3.204,3.352-5.215,3.924c-1.948,0.554-5.944,0.07-7.303-0.119c-0.266,1.072-0.534,2.146-0.744,3.197
					c-0.127,0.721-0.299,1.406-0.386,2.137c-0.101,0.722-0.202,1.437-0.301,2.145c-0.141,1.371-0.296,2.784-0.4,4.124
					c-0.08,0.932-0.138,1.821-0.2,2.717c0.317-1.042,0.98-3.068,1.055-3.231c0.773-1.692,2.688-4.124,4.799-5.463
					c0.113-0.25,0.247-0.49,0.405-0.716c1.243-1.775,3.746-2.327,5.456-0.851c2.374,2.049,1.78,7.673,0.689,10.251
					c-0.064,0.152-0.948,1.724-1.521,2.707c0.425-0.527,0.831-1.043,1.276-1.579c0.871-1.067,1.771-2.106,2.736-3.228
					c0.485-0.525,0.975-1.056,1.47-1.591c0.479-0.542,1.054-1.053,1.584-1.588c1.255-1.212,2.585-2.38,3.951-3.527
					c-0.932-0.765-4.205-3.529-5.146-5.407c-0.937-1.87-1.611-4.512-0.63-6.496c0.96-1.943,3.35-2.868,5.264-1.668
					c2.657,1.665,2.923,7.315,2.234,10.029c-0.043,0.169-0.756,2.061-1.167,3.093c0.827-0.683,1.648-1.369,2.507-2.032
					c2.479-1.916,5.047-3.778,7.601-5.648c0.783-0.572,1.555-1.152,2.332-1.729c-0.335-0.269-4.295-3.47-5.349-5.574
					c-0.937-1.869-1.611-4.512-0.63-6.496c0.96-1.943,3.35-2.868,5.264-1.668c2.657,1.666,2.922,7.315,2.234,10.029
					c-0.052,0.204-1.082,2.925-1.377,3.605c1.708-1.272,3.399-2.555,5.015-3.888c2.232-1.836,4.32-3.76,6.205-5.775
					c-0.156-0.125-4.305-3.447-5.385-5.602c-0.937-1.87-1.611-4.512-0.63-6.496c0.96-1.943,3.35-2.868,5.264-1.668
					c2.657,1.666,2.922,7.315,2.234,10.029c-0.045,0.178-0.828,2.254-1.223,3.231c0.083,0.052,0.068,0.043,0.151,0.095
					c1.994-2.182,3.65-4.547,5.091-6.837c0.837-1.325,1.564-2.638,2.241-3.931c-0.836-0.539-4.63-3.048-5.816-4.88
					c-1.136-1.756-2.096-4.308-1.34-6.388c0.741-2.037,3.015-3.219,5.049-2.236c2.824,1.364,3.708,6.949,3.322,9.722
					c-0.021,0.151-0.404,1.66-0.698,2.756c0.297-0.588,0.614-1.19,0.887-1.76c1.032-2.135,1.844-4.154,2.55-5.948
					c0.393-1.023,0.728-1.956,1.032-2.832c-0.544-0.958-2.689-4.844-2.894-6.977c-0.2-2.082,0.125-4.789,1.755-6.287
					c1.596-1.466,4.159-1.467,5.512,0.342c1.877,2.512,0.088,7.876-1.532,10.16c-0.14,0.197-2.685,3.032-2.714,2.982
					c0,0-0.027-0.047-0.033-0.058c-0.276,0.849-0.581,1.756-0.935,2.741c-0.668,1.813-1.439,3.855-2.428,6.021
					c-0.983,2.167-2.111,4.494-3.521,6.837c-1.41,2.351-3.014,4.752-4.986,7.012c-0.022,0.026-0.049,0.049-0.071,0.075
					c0.782-0.482,3.014-1.756,3.196-1.834c2.573-1.105,8.193-1.728,10.255,0.634c1.485,1.702,0.946,4.208-0.822,5.461
					c-1.806,1.28-4.521,1.028-6.515,0.396c-2.248-0.713-6.046-4.139-6.347-4.413c-1.898,2.135-4.019,4.172-6.279,6.115
					c-1.291,1.112-2.626,2.193-3.977,3.259c0.69-0.395,1.309-0.743,1.401-0.782c2.573-1.105,8.194-1.728,10.255,0.635
					c1.485,1.702,0.946,4.208-0.822,5.461c-1.806,1.28-4.521,1.028-6.515,0.396c-2.023-0.642-5.319-3.497-6.181-4.265
					c-0.523,0.404-1.04,0.812-1.565,1.214c-2.516,1.927-5.036,3.839-7.449,5.79c-0.851,0.687-1.664,1.395-2.48,2.1
					c0.613-0.35,1.132-0.64,1.216-0.676c2.573-1.105,8.194-1.728,10.255,0.635c1.485,1.702,0.946,4.208-0.823,5.461
					c-1.806,1.279-4.521,1.028-6.515,0.396c-1.93-0.612-4.996-3.221-6.025-4.128c-0.813,0.748-1.63,1.495-2.384,2.256
					c-0.503,0.532-1.025,1.008-1.501,1.57c-0.483,0.546-0.961,1.087-1.435,1.623c-0.874,1.065-1.783,2.159-2.609,3.219
					c-0.581,0.733-1.12,1.442-1.666,2.156c0.839-0.694,2.51-2.018,2.662-2.113c2.375-1.482,7.837-2.95,10.233-0.926
					c1.726,1.458,1.573,4.016,0.014,5.522c-1.591,1.538-4.313,1.701-6.38,1.379c-2.275-0.356-6.393-3.038-6.905-3.376
					c-0.899,1.183-1.762,2.342-2.559,3.449c-2.771,3.831-4.934,7.126-6.413,9.45c-0.053,0.083-0.1,0.157-0.15,0.237l-1.919-0.931
					c0.099-0.15,0.195-0.296,0.302-0.456c1.548-2.319,3.803-5.598,6.686-9.405c0.908-1.205,1.902-2.474,2.935-3.768
					c-0.266-0.291-1.769-1.955-2.977-3.686c-2.203,0.863-6.79,0.897-7.383,0.898c-0.097,1.482-0.177,2.925-0.231,4.288
					c-0.198,4.724-0.184,8.666-0.136,11.42c0.002,0.113,0.004,0.213,0.007,0.322l-2.109-1.023c0.021-2.737,0.104-6.438,0.383-10.815
					c0.092-1.506,0.221-3.113,0.369-4.762c-0.585-0.147-5.355-1.372-7.156-2.811c-1.634-1.305-3.353-3.422-3.294-5.635
					c0.058-2.167,1.841-4.008,4.081-3.72c3.11,0.399,5.718,5.417,6.23,8.17c0.03,0.162,0.161,1.961,0.225,3.097
					c0.064-0.673,0.118-1.328,0.193-2.021c0.138-1.37,0.316-2.734,0.502-4.202c0.115-0.706,0.23-1.418,0.348-2.138
					c0.101-0.716,0.298-1.46,0.445-2.198c0.378-1.703,0.843-3.411,1.35-5.121c-1.2-0.124-5.454-0.624-7.275-1.671
					c-1.813-1.043-3.833-2.875-4.109-5.071c-0.271-2.15,1.212-4.241,3.471-4.296c3.135-0.076,6.473,4.489,7.396,7.132
					c0.058,0.165,0.507,2.136,0.733,3.224c0.313-1.026,0.619-2.051,0.97-3.078c1.01-2.965,2.125-5.936,3.224-8.904
					c0.337-0.909,0.662-1.819,0.991-2.728c-0.427-0.039-5.497-0.525-7.536-1.698c-1.813-1.042-3.832-2.875-4.109-5.071
					c-0.271-2.15,1.212-4.241,3.471-4.295c3.135-0.076,6.473,4.489,7.396,7.132c0.069,0.199,0.712,3.036,0.84,3.766
					c0.723-2.004,1.426-4.007,2.038-6.009c0.849-2.762,1.528-5.52,1.99-8.239c-0.199-0.018-5.492-0.5-7.581-1.702
					c-1.813-1.043-3.833-2.875-4.109-5.071c-0.271-2.15,1.212-4.24,3.471-4.295c3.135-0.076,6.473,4.489,7.396,7.132
					c0.061,0.174,0.552,2.334,0.762,3.368c0.099-0.003,0.08-0.002,0.179-0.005c0.459-2.919,0.535-5.805,0.474-8.51
					c-0.032-1.567-0.151-3.063-0.299-4.515c-0.995,0.011-5.543,0.012-7.543-0.862c-1.916-0.837-4.125-2.436-4.642-4.589
					c-0.506-2.108,0.739-4.348,2.978-4.651c3.107-0.42,6.926,3.751,8.134,6.277c0.066,0.137,0.579,1.608,0.938,2.684
					c-0.077-0.654-0.144-1.331-0.23-1.957c-0.318-2.35-0.753-4.482-1.154-6.367c-0.237-1.07-0.472-2.033-0.702-2.932
					c-0.982-0.498-4.915-2.557-6.263-4.223c-1.315-1.626-2.538-4.063-2.004-6.212C103.394,66.611,105.531,65.196,107.657,65.96z"/>
				<path style="fill:#FFFFFF;" d="M164.342,114.293c-2.453-0.098-7.351-2.613-7.355-2.614c-0.051-0.026,2.637-2.725,2.826-2.876
					c2.19-1.745,7.446-3.83,10.059-2.096c1.882,1.25,2.024,3.809,0.649,5.484C169.117,113.902,166.431,114.376,164.342,114.293z"/>
			</g>
		</g>
		<g>
			<g>
				<path style="fill:#C6FF00;" d="M135.73,175.65c0,0-14.865-35.842-23.19-34.284s14.271,57.14,14.271,57.14
					s-26.163-49.348-44.002-49.348s6.541,54.543,29.136,72.723c0,0-35.677-38.439-56.488-30.128
					c-20.812,8.311,41.623,47.27,41.623,47.27s-36.271-11.428-32.109-2.597c4.162,8.831,15.46,10.389,15.46,10.389L90,248.892h52
					l8.001-3.117c0,0,33.298-16.622,24.379-23.375c-8.919-6.753-28.542,7.792-28.542,7.792s33.893-37.4,27.352-51.426
					c-6.541-14.025-35.677,25.453-35.677,25.453s23.785-50.387,19.028-59.217C151.785,136.171,135.73,175.65,135.73,175.65z"/>
				<path style="opacity:0.4;fill:#FFFFFF;" d="M135.73,175.65c0,0-14.865-35.842-23.19-34.284s14.271,57.14,14.271,57.14
					s-26.163-49.348-44.002-49.348s6.541,54.543,29.136,72.723c0,0-35.677-38.439-56.488-30.128
					c-20.812,8.311,41.623,47.27,41.623,47.27s-36.271-11.428-32.109-2.597c4.162,8.831,15.46,10.389,15.46,10.389L96,248.892h42
					l12.001-3.117c0,0,33.298-16.622,24.379-23.375c-8.919-6.753-28.542,7.792-28.542,7.792s33.893-37.4,27.352-51.426
					c-6.541-14.025-35.677,25.453-35.677,25.453s23.785-50.387,19.028-59.217C151.785,136.171,135.73,175.65,135.73,175.65z"/>
			</g>
			<g>
				<path style="fill:none;stroke:#263238;stroke-linecap:round;stroke-linejoin:round;stroke-miterlimit:10;" d="M140.487,177.538
					c-13.081,38.65-13.081,66.003-13.081,66.003s15.46,0.594,31.515-11.298"/>
				<path style="fill:none;stroke:#263238;stroke-linecap:round;stroke-linejoin:round;stroke-miterlimit:10;" d="M133.946,198.35
					c0,0-2.973-14.271-10.703-33.893"/>
				<path style="fill:none;stroke:#263238;stroke-linecap:round;stroke-linejoin:round;stroke-miterlimit:10;" d="M95.296,175.755
					l33.298,49.353c0,0,22.596-19.028,30.325-29.731"/>
				<path style="fill:none;stroke:#263238;stroke-linecap:round;stroke-linejoin:round;stroke-miterlimit:10;" d="M128,237
					c0,0-35.082-16.649-49.353-26.163"/>
			</g>
		</g>
	</g>
</g>
<g id="Shelf">
	<g>
		
			<rect x="226.377" y="95.631" style="fill:#C2C2C2;stroke:#ABABAB;stroke-linecap:round;stroke-linejoin:round;stroke-miterlimit:10;" width="7.225" height="301.29"/>
		
			<rect x="96.324" y="95.631" style="fill:#C2C2C2;stroke:#ABABAB;stroke-linecap:round;stroke-linejoin:round;stroke-miterlimit:10;" width="7.225" height="301.29"/>
		
			<rect x="161.35" y="95.631" style="fill:#C2C2C2;stroke:#ABABAB;stroke-linecap:round;stroke-linejoin:round;stroke-miterlimit:10;" width="7.225" height="301.29"/>
		
			<rect x="291.403" y="95.631" style="fill:#C2C2C2;stroke:#ABABAB;stroke-linecap:round;stroke-linejoin:round;stroke-miterlimit:10;" width="7.225" height="301.29"/>
		
			<rect x="93.99" y="105.024" style="fill:#C2C2C2;stroke:#ABABAB;stroke-linecap:round;stroke-linejoin:round;stroke-miterlimit:10;" width="202.471" height="13.728"/>
		
			<rect x="166.161" y="105.024" style="fill:#A6A6A6;stroke:#ABABAB;stroke-linecap:round;stroke-linejoin:round;stroke-miterlimit:10;" width="130.3" height="13.728"/>
		
			<rect x="93.99" y="243.267" style="fill:#C2C2C2;stroke:#ABABAB;stroke-linecap:round;stroke-linejoin:round;stroke-miterlimit:10;" width="202.471" height="13.728"/>
		
			<rect x="166.161" y="243.267" style="fill:#A6A6A6;stroke:#ABABAB;stroke-linecap:round;stroke-linejoin:round;stroke-miterlimit:10;" width="130.3" height="13.728"/>
		
			<rect x="93.99" y="381.51" style="fill:#C2C2C2;stroke:#ABABAB;stroke-linecap:round;stroke-linejoin:round;stroke-miterlimit:10;" width="202.471" height="13.728"/>
		
			<rect x="166.161" y="381.51" style="fill:#A6A6A6;stroke:#ABABAB;stroke-linecap:round;stroke-linejoin:round;stroke-miterlimit:10;" width="130.3" height="13.728"/>
	</g>
</g>
<g id="Boxes">
	<g>
		<g>
			<g>
				<defs>
					<rect id="XMLID_6_" x="60.228" y="307.801" width="105.96" height="89.007"/>
				</defs>
				<use xlink:href="#XMLID_6_"  style="overflow:visible;fill:#C6FF00;"/>
				<clipPath id="XMLID_00000163788928778724773980000011838072048245192345_">
					<use xlink:href="#XMLID_6_"  style="overflow:visible;"/>
				</clipPath>
				
					<rect x="60.228" y="307.801" style="opacity:0.6;clip-path:url(#XMLID_00000163788928778724773980000011838072048245192345_);fill:#FFFFFF;stroke:#696969;stroke-linecap:round;stroke-linejoin:round;stroke-miterlimit:10;" width="105.96" height="89.007"/>
				
					<use xlink:href="#XMLID_6_"  style="overflow:visible;fill:none;stroke:#696969;stroke-linecap:round;stroke-linejoin:round;stroke-miterlimit:10;"/>
			</g>
			<g>
				<defs>
					<rect id="XMLID_5_" x="130.981" y="307.801" width="35.208" height="89.007"/>
				</defs>
				<use xlink:href="#XMLID_5_"  style="overflow:visible;fill:#C6FF00;"/>
				<clipPath id="XMLID_00000111193246935301184090000001061152683614810506_">
					<use xlink:href="#XMLID_5_"  style="overflow:visible;"/>
				</clipPath>
				
					<rect x="130.981" y="307.801" style="opacity:0.39;clip-path:url(#XMLID_00000111193246935301184090000001061152683614810506_);fill:#FFFFFF;stroke:#696969;stroke-linecap:round;stroke-linejoin:round;stroke-miterlimit:10;" width="35.208" height="89.007"/>
				
					<use xlink:href="#XMLID_5_"  style="overflow:visible;fill:none;stroke:#696969;stroke-linecap:round;stroke-linejoin:round;stroke-miterlimit:10;"/>
			</g>
			
				<line style="fill:none;stroke:#696969;stroke-linecap:round;stroke-linejoin:round;stroke-miterlimit:10;" x1="148.951" y1="308.041" x2="148.951" y2="396.921"/>
		</g>
		<g>
			<g>
				<defs>
					<rect id="XMLID_8_" x="65.576" y="218.928" width="105.96" height="89.007"/>
				</defs>
				<use xlink:href="#XMLID_8_"  style="overflow:visible;fill:#C6FF00;"/>
				<clipPath id="XMLID_00000000214480682577707710000004943716896402884030_">
					<use xlink:href="#XMLID_8_"  style="overflow:visible;"/>
				</clipPath>
				
					<rect x="65.576" y="218.928" style="opacity:0.6;clip-path:url(#XMLID_00000000214480682577707710000004943716896402884030_);fill:#FFFFFF;stroke:#696969;stroke-linecap:round;stroke-linejoin:round;stroke-miterlimit:10;" width="105.96" height="89.007"/>
				
					<use xlink:href="#XMLID_8_"  style="overflow:visible;fill:none;stroke:#696969;stroke-linecap:round;stroke-linejoin:round;stroke-miterlimit:10;"/>
			</g>
			<g>
				<defs>
					<rect id="XMLID_7_" x="136.329" y="218.928" width="35.208" height="89.007"/>
				</defs>
				<use xlink:href="#XMLID_7_"  style="overflow:visible;fill:#C6FF00;"/>
				<clipPath id="XMLID_00000078724271525818509970000017164739094981877913_">
					<use xlink:href="#XMLID_7_"  style="overflow:visible;"/>
				</clipPath>
				
					<rect x="136.329" y="218.928" style="opacity:0.39;clip-path:url(#XMLID_00000078724271525818509970000017164739094981877913_);fill:#FFFFFF;stroke:#696969;stroke-linecap:round;stroke-linejoin:round;stroke-miterlimit:10;" width="35.208" height="89.007"/>
				
					<use xlink:href="#XMLID_7_"  style="overflow:visible;fill:none;stroke:#696969;stroke-linecap:round;stroke-linejoin:round;stroke-miterlimit:10;"/>
			</g>
			
				<line style="fill:none;stroke:#696969;stroke-linecap:round;stroke-linejoin:round;stroke-miterlimit:10;" x1="154.299" y1="219.169" x2="154.299" y2="308.048"/>
		</g>
	</g>
	<g>
		<g>
			<g>
				<defs>
					<rect id="XMLID_9_" x="341.319" y="307.801" width="105.96" height="89.007"/>
				</defs>
				<use xlink:href="#XMLID_9_"  style="overflow:visible;fill:#C6FF00;"/>
				<clipPath id="XMLID_00000080892925736051261790000012650514454306117259_">
					<use xlink:href="#XMLID_9_"  style="overflow:visible;"/>
				</clipPath>
				
					<rect x="341.319" y="307.801" style="opacity:0.6;clip-path:url(#XMLID_00000080892925736051261790000012650514454306117259_);fill:#FFFFFF;stroke:#919191;stroke-linecap:round;stroke-linejoin:round;stroke-miterlimit:10;" width="105.96" height="89.007"/>
				
					<use xlink:href="#XMLID_9_"  style="overflow:visible;fill:none;stroke:#919191;stroke-linecap:round;stroke-linejoin:round;stroke-miterlimit:10;"/>
			</g>
			<g>
				<defs>
					<rect id="XMLID_4_" x="412.071" y="307.801" width="35.208" height="89.007"/>
				</defs>
				<use xlink:href="#XMLID_4_"  style="overflow:visible;fill:#C6FF00;"/>
				<clipPath id="XMLID_00000066476771722060745730000017697076522088916650_">
					<use xlink:href="#XMLID_4_"  style="overflow:visible;"/>
				</clipPath>
				
					<rect x="412.071" y="307.801" style="opacity:0.39;clip-path:url(#XMLID_00000066476771722060745730000017697076522088916650_);fill:#FFFFFF;stroke:#919191;stroke-linecap:round;stroke-linejoin:round;stroke-miterlimit:10;" width="35.208" height="89.007"/>
				
					<use xlink:href="#XMLID_4_"  style="overflow:visible;fill:none;stroke:#919191;stroke-linecap:round;stroke-linejoin:round;stroke-miterlimit:10;"/>
			</g>
			
				<line style="fill:none;stroke:#919191;stroke-linecap:round;stroke-linejoin:round;stroke-miterlimit:10;" x1="430.042" y1="308.041" x2="430.042" y2="396.921"/>
		</g>
		<g>
			<g>
				<defs>
					<rect id="XMLID_11_" x="341.319" y="218.7" width="105.96" height="89.007"/>
				</defs>
				<use xlink:href="#XMLID_11_"  style="overflow:visible;fill:#C6FF00;"/>
				<clipPath id="XMLID_00000161594508708333104150000002280375316461816246_">
					<use xlink:href="#XMLID_11_"  style="overflow:visible;"/>
				</clipPath>
				
					<rect x="341.319" y="218.7" style="opacity:0.6;clip-path:url(#XMLID_00000161594508708333104150000002280375316461816246_);fill:#FFFFFF;stroke:#919191;stroke-linecap:round;stroke-linejoin:round;stroke-miterlimit:10;" width="105.96" height="89.007"/>
				
					<use xlink:href="#XMLID_11_"  style="overflow:visible;fill:none;stroke:#919191;stroke-linecap:round;stroke-linejoin:round;stroke-miterlimit:10;"/>
			</g>
			<g>
				<defs>
					<rect id="XMLID_10_" x="412.071" y="218.7" width="35.208" height="89.007"/>
				</defs>
				<use xlink:href="#XMLID_10_"  style="overflow:visible;fill:#C6FF00;"/>
				<clipPath id="XMLID_00000132045907919831221830000000647502362500959396_">
					<use xlink:href="#XMLID_10_"  style="overflow:visible;"/>
				</clipPath>
				
					<rect x="412.071" y="218.7" style="opacity:0.39;clip-path:url(#XMLID_00000132045907919831221830000000647502362500959396_);fill:#FFFFFF;stroke:#919191;stroke-linecap:round;stroke-linejoin:round;stroke-miterlimit:10;" width="35.208" height="89.007"/>
				
					<use xlink:href="#XMLID_10_"  style="overflow:visible;fill:none;stroke:#919191;stroke-linecap:round;stroke-linejoin:round;stroke-miterlimit:10;"/>
			</g>
			
				<line style="fill:none;stroke:#919191;stroke-linecap:round;stroke-linejoin:round;stroke-miterlimit:10;" x1="430.042" y1="218.941" x2="430.042" y2="307.82"/>
		</g>
		<g>
			<g>
				<defs>
					<rect id="XMLID_13_" x="350.319" y="145" width="87.65" height="73.626"/>
				</defs>
				<use xlink:href="#XMLID_13_"  style="overflow:visible;fill:#C6FF00;"/>
				<clipPath id="XMLID_00000000936177593287455660000016793601078317712051_">
					<use xlink:href="#XMLID_13_"  style="overflow:visible;"/>
				</clipPath>
				
					<rect x="350.319" y="145" style="opacity:0.6;clip-path:url(#XMLID_00000000936177593287455660000016793601078317712051_);fill:#FFFFFF;stroke:#919191;stroke-linecap:round;stroke-linejoin:round;stroke-miterlimit:10;" width="87.65" height="73.626"/>
				
					<use xlink:href="#XMLID_13_"  style="overflow:visible;fill:none;stroke:#919191;stroke-linecap:round;stroke-linejoin:round;stroke-miterlimit:10;"/>
			</g>
			<g>
				<defs>
					<rect id="XMLID_12_" x="408.845" y="145" width="29.124" height="73.626"/>
				</defs>
				<use xlink:href="#XMLID_12_"  style="overflow:visible;fill:#C6FF00;"/>
				<clipPath id="XMLID_00000155141574352550751270000003362830065956558767_">
					<use xlink:href="#XMLID_12_"  style="overflow:visible;"/>
				</clipPath>
				
					<rect x="408.845" y="145" style="opacity:0.39;clip-path:url(#XMLID_00000155141574352550751270000003362830065956558767_);fill:#FFFFFF;stroke:#919191;stroke-linecap:round;stroke-linejoin:round;stroke-miterlimit:10;" width="29.124" height="73.626"/>
				
					<use xlink:href="#XMLID_12_"  style="overflow:visible;fill:none;stroke:#919191;stroke-linecap:round;stroke-linejoin:round;stroke-miterlimit:10;"/>
			</g>
			
				<line style="fill:none;stroke:#919191;stroke-linecap:round;stroke-linejoin:round;stroke-miterlimit:10;" x1="423.71" y1="145.199" x2="423.71" y2="218.72"/>
		</g>
	</g>
</g>
<g id="Hand_Truck">
	<g>
		
			<rect x="413.025" y="363.352" style="fill:#FFFFFF;stroke:#263238;stroke-linecap:round;stroke-linejoin:round;stroke-miterlimit:10;" width="13.734" height="8.595"/>
		
			<circle style="fill:#263238;stroke:#263238;stroke-linecap:round;stroke-linejoin:round;stroke-miterlimit:10;" cx="297.561" cy="388.621" r="8.3"/>
		<g>
			
				<rect x="429.244" y="251.238" style="fill:#263238;stroke:#263238;stroke-linecap:round;stroke-linejoin:round;stroke-miterlimit:10;" width="4.905" height="137.568"/>
			<g>
				<path style="fill:#263238;" d="M431.534,299.359l-11.594-9.215c-10.056-7.993-14.541-21.211-11.425-33.673
					c0.923-3.691,4.226-6.27,8.031-6.27h29.976c3.805,0,7.107,2.578,8.03,6.27l0,0c3.116,12.462-1.369,25.68-11.425,33.673
					L431.534,299.359z M416.546,254.89c-1.65,0-3.081,1.117-3.48,2.718c-2.672,10.683,1.172,22.013,9.793,28.865l8.676,6.896
					l8.675-6.896c8.621-6.852,12.465-18.182,9.793-28.865l0,0c-0.399-1.6-1.831-2.718-3.48-2.718H416.546z"/>
			</g>
		</g>
		<g>
			<defs>
				<rect id="XMLID_3_" x="251.029" y="367.649" width="151.728" height="17.658"/>
			</defs>
			<use xlink:href="#XMLID_3_"  style="overflow:visible;fill:#FFFFFF;"/>
			<clipPath id="XMLID_00000042710741384449671480000000240111497544066969_">
				<use xlink:href="#XMLID_3_"  style="overflow:visible;"/>
			</clipPath>
			
				<rect x="251.029" y="367.649" style="opacity:0.28;clip-path:url(#XMLID_00000042710741384449671480000000240111497544066969_);stroke:#263238;stroke-linecap:round;stroke-linejoin:round;stroke-miterlimit:10;" width="151.728" height="17.658"/>
			
				<use xlink:href="#XMLID_3_"  style="overflow:visible;fill:none;stroke:#263238;stroke-linecap:round;stroke-linejoin:round;stroke-miterlimit:10;"/>
		</g>
		
			<rect x="251.029" y="367.649" style="fill:none;stroke:#263238;stroke-linecap:round;stroke-linejoin:round;stroke-miterlimit:10;" width="17.004" height="17.658"/>
		
			<rect x="385.753" y="367.649" style="fill:none;stroke:#263238;stroke-linecap:round;stroke-linejoin:round;stroke-miterlimit:10;" width="17.004" height="17.658"/>
		
			<rect x="318.391" y="367.649" style="fill:none;stroke:#263238;stroke-linecap:round;stroke-linejoin:round;stroke-miterlimit:10;" width="17.004" height="17.658"/>
		<polygon style="fill:#FFFFFF;stroke:#263238;stroke-linecap:round;stroke-linejoin:round;stroke-miterlimit:10;" points="
			402.757,385.307 413.221,385.307 426.301,335.603 415.837,335.603 		"/>
		
			<rect x="424.83" y="356.531" style="fill:#FFFFFF;stroke:#263238;stroke-linecap:round;stroke-linejoin:round;stroke-miterlimit:10;" width="13.734" height="22.236"/>
		<path style="fill:#263238;" d="M428.332,396.921L428.332,396.921c-1.63,0-2.951-1.321-2.951-2.951v-11.067
			c0-1.63,1.321-2.951,2.951-2.951l0,0c1.63,0,2.951,1.321,2.951,2.951v11.067C431.283,395.6,429.962,396.921,428.332,396.921z"/>
		<path style="fill:#263238;" d="M435.341,396.921L435.341,396.921c-1.63,0-2.951-1.321-2.951-2.951v-11.067
			c0-1.63,1.321-2.951,2.951-2.951l0,0c1.63,0,2.951,1.321,2.951,2.951v11.067C438.292,395.6,436.971,396.921,435.341,396.921z"/>
	</g>
</g>
<g id="Floor">
	
		<line style="fill:none;stroke:#263238;stroke-linecap:round;stroke-linejoin:round;stroke-miterlimit:10;" x1="46.824" y1="396.921" x2="460.634" y2="396.921"/>
</g>
<g id="Character">
	<g>
		<g>
			<ellipse style="fill:#C6FF00;" cx="189.587" cy="417.034" rx="72.238" ry="8.78"/>
			<ellipse style="opacity:0.5;fill:#FFFFFF;" cx="189.587" cy="417.034" rx="72.238" ry="8.78"/>
		</g>
		<g>
			<path style="fill:#C6FF00;" d="M339.076,417.034c0,2.417-16.122,4.377-36.01,4.377s-36.01-1.96-36.01-4.377
				c0-2.417,16.122-4.377,36.01-4.377S339.076,414.616,339.076,417.034z"/>
			<path style="opacity:0.5;fill:#FFFFFF;" d="M339.076,417.034c0,2.417-16.122,4.377-36.01,4.377s-36.01-1.96-36.01-4.377
				c0-2.417,16.122-4.377,36.01-4.377S339.076,414.616,339.076,417.034z"/>
		</g>
		<g>
			<g>
				
					<path id="XMLID_19_" style="fill:#263238;stroke:#263238;stroke-linecap:round;stroke-linejoin:round;stroke-miterlimit:10;" d="
					M203.976,127.785c0,0-5.587-4.39-11.972-2.195c-6.385,2.195-11.274,12.87-12.97,21.549c-1.696,8.68-8.38,15.264-6.784,25.441
					c1.596,10.176,13.169,11.772,27.137,13.269c13.967,1.497,21.549-0.199,28.134-9.378c6.585-9.178,3.791-20.352-0.1-30.229
					c-3.891-9.877-10.376-19.055-15.763-20.751C206.27,123.795,203.976,127.785,203.976,127.785z"/>
				<g>
					<path style="fill:none;stroke:#FFFFFF;stroke-linecap:round;stroke-linejoin:round;stroke-miterlimit:10;" d="M180.898,180.02
						c1.62,0.724,2.927,0.996,2.927,0.996"/>
					<path style="fill:none;stroke:#FFFFFF;stroke-linecap:round;stroke-linejoin:round;stroke-miterlimit:10;" d="M202.599,134.896
						c0,0-2.857,6.938-8.571,14.285c-5.714,7.346-18.366,14.285-19.182,22.04c-0.259,2.461,0.551,4.346,1.777,5.774"/>
					<path style="fill:none;stroke:#FFFFFF;stroke-linecap:round;stroke-linejoin:round;stroke-miterlimit:10;" d="M225.807,171.772
						c-0.392,0.917-0.91,1.825-1.576,2.713"/>
					<path style="fill:none;stroke:#FFFFFF;stroke-linecap:round;stroke-linejoin:round;stroke-miterlimit:10;" d="M220.966,152.446
						c0,0,6.438,7.428,5.813,15.342"/>
					<path style="fill:none;stroke:#FFFFFF;stroke-linecap:round;stroke-linejoin:round;stroke-miterlimit:10;" d="M201.375,130.815
						c0,0-7.755-1.224-13.469,5.306c-0.224,0.256-0.438,0.515-0.641,0.777"/>
				</g>
			</g>
			<g>
				
					<path id="XMLID_33_" style="fill:#FFFFFF;stroke:#263238;stroke-linecap:round;stroke-linejoin:round;stroke-miterlimit:10;" d="
					M164.488,319.296l-1.245,19.242c0,0-5.32,25.807-7.018,36.447c-1.698,10.64-4.754,26.826-5.32,26.826
					c-0.566,0-9.734,5.546-12.677,10.074c-2.943,4.528,0.792,6.452,4.867,4.98c4.075-1.471,9.621-5.546,11.432-10.414
					c1.811-4.867,2.717-6.678,2.83-7.47c0.113-0.792,19.469-52.747,21.393-58.293c1.924-5.546,5.999-21.846,5.999-21.846
					l9.508-32.259c0,0,10.187,33.165,10.3,34.636c0.113,1.471,10.527,86.251,10.979,89.42c0.453,3.169,0.34,5.433,2.264,6.112
					c1.924,0.679,6.452,0.679,8.829,0.679c2.377,0,10.64,1.245,14.715,0.226c4.075-1.019,4.528-1.698,1.698-3.735
					c-2.83-2.038-18.55-3.343-20.035-9.282c-0.113-0.453-0.226-87.722-0.226-87.722s-1.358-28.863-3.622-37.013h-52.294
					L164.488,319.296z"/>
				
					<path id="XMLID_38_" style="fill:#263238;stroke:#263238;stroke-linecap:round;stroke-linejoin:round;stroke-miterlimit:10;" d="
					M143.095,416.866c4.075-1.471,9.621-5.546,11.432-10.414c0.133-0.357,0.259-0.692,0.382-1.017
					c-2.308,2.461-6.042,5.884-6.042,5.884s-0.339-1.924-1.471-3.169c-1.132-1.245-2.603-0.792-2.603-0.792l3.957-4.397
					c-3.036,1.862-8.399,5.658-10.522,8.924C135.285,416.413,139.02,418.338,143.095,416.866z"/>
				
					<path id="XMLID_39_" style="fill:#263238;stroke:#263238;stroke-linecap:round;stroke-linejoin:round;stroke-miterlimit:10;" d="
					M243.042,413.923c-1.937-1.395-9.911-2.447-15.228-4.876c-0.216,0.194-0.399,0.422-0.505,0.688
					c-0.453,1.132-0.792,2.943-0.792,2.943l-11.022-2.35c0.018,0.134,0.033,0.247,0.042,0.313c0.453,3.169,0.339,5.433,2.264,6.112
					c1.924,0.679,6.452,0.679,8.829,0.679c2.377,0,10.64,1.245,14.715,0.226C245.419,416.64,245.871,415.961,243.042,413.923z"/>
			</g>
			<g>
				
					<path id="XMLID_32_" style="fill:#263238;stroke:#263238;stroke-linecap:round;stroke-linejoin:round;stroke-miterlimit:10;" d="
					M179.732,233.039c0,0-5.188,2.394-11.473,13.668c-6.866,12.315-5.687,19.155-5.786,34.02c-0.1,14.865-0.399,39.508-0.399,39.508
					s18.956,5.088,32.624,4.29c13.668-0.798,30.928-3.891,30.928-3.891s-3.691-50.282-7.183-64.748
					c-3.492-14.466-5.587-20.951-5.587-20.951s-8.779,1.496-20.352,0.299C180.93,234.037,179.732,233.039,179.732,233.039z"/>
				<g>
					<path style="fill:none;stroke:#FFFFFF;stroke-linecap:round;stroke-linejoin:round;stroke-miterlimit:10;" d="M201.587,277.466
						c0.52,1.713,0.999,3.445,1.421,5.176"/>
					<path style="fill:none;stroke:#FFFFFF;stroke-linecap:round;stroke-linejoin:round;stroke-miterlimit:10;" d="M189.539,249.175
						c0,0,5.869,10.463,10.344,23.115"/>
				</g>
			</g>
			<g>
				
					<path id="XMLID_35_" style="fill:#FFFFFF;stroke:#263238;stroke-linecap:round;stroke-linejoin:round;stroke-miterlimit:10;" d="
					M307.116,223.442c-0.599-0.399-10.423-1.942-10.423-1.942l-1.924-0.792c0,0,11.898,0.952,11.998,0.453
					c0.1-0.499,0.499-1.097-0.299-1.197c-0.798-0.1-16.113-3.217-16.113-3.217s3.891-3.68,4.39-4.478
					c0.499-0.798,1.197-2.394,0.399-2.394c-0.798,0-0.998,0.499-2.095,1.197c-1.097,0.698-5.387,2.394-6.585,3.392
					c-1.197,0.998-4.789,3.592-4.789,3.592l-41.577-5.723c0,0-14.602-17.997-17.771-21.846c-3.169-3.848-7.471-6.791-7.471-6.791
					c-3.056-1.358-2.943,0.906-2.943,0.906l6.339,28.411c0,0,16.526,9.848,17.544,9.848c1.019,0,45.679,1.481,45.679,1.481
					s2.993,1.397,4.889,2.594s13.867,4.988,13.867,4.988s0.798-0.399-0.1-1.097c-0.898-0.698-6.684-3.492-6.684-3.492l11.972,2.594
					c0,0,0.698-0.499,0.399-0.998c-0.299-0.499-10.974-4.589-10.974-4.589l11.972,0.599
					C306.817,224.939,307.715,223.841,307.116,223.442z"/>
				<path style="fill:#FFFFFF;stroke:#263238;stroke-linecap:round;stroke-linejoin:round;stroke-miterlimit:10;" d="
					M237.592,209.243c-4.316-5.317-12.918-15.909-15.264-18.757c-3.169-3.848-7.471-6.791-7.471-6.791
					c-3.056-1.358-2.943,0.906-2.943,0.906l6.339,28.411c0,0,7.457,4.443,12.662,7.361L237.592,209.243z"/>
			</g>
			<g>
				
					<path id="XMLID_30_" style="fill:#FFFFFF;stroke:#263238;stroke-linecap:round;stroke-linejoin:round;stroke-miterlimit:10;" d="
					M193.4,181.26c0,0-8.68,0.399-13.967,6.285s-4.689,18.856-2.494,26.638c2.195,7.782,4.988,12.072,4.39,14.766
					c-0.599,2.694-2.793,3.592-1.596,6.086c1.197,2.494,8.081,5.188,20.253,4.789c12.171-0.399,14.466-2.993,14.566-5.288
					c0.1-2.295-0.798-4.19-0.499-5.587c0.299-1.397,9.079-9.178,9.079-17.758c0-8.58-3.791-11.573-4.689-17.758
					c-0.898-6.186-0.599-7.083-4.29-9.777C210.46,180.961,198.289,179.564,193.4,181.26z"/>
				<path style="fill:none;stroke:#263238;stroke-linecap:round;stroke-linejoin:round;stroke-miterlimit:10;" d="M189.462,211.044
					c0,0-4.786,4.068-9.571,5.982"/>
				<path style="fill:none;stroke:#263238;stroke-linecap:round;stroke-linejoin:round;stroke-miterlimit:10;" d="M190.42,212.001
					c0,0-2.154,6.939-7.418,10.768"/>
			</g>
			<g>
				<g>
					
						<polygon id="XMLID_29_" style="fill:#FFFFFF;stroke:#263238;stroke-linecap:round;stroke-linejoin:round;stroke-miterlimit:10;" points="
						211.957,187.545 212.955,197.123 208.764,192.234 					"/>
					
						<polygon id="XMLID_28_" style="fill:#FFFFFF;stroke:#263238;stroke-linecap:round;stroke-linejoin:round;stroke-miterlimit:10;" points="
						206.37,197.921 211.957,187.545 206.869,182.058 					"/>
				</g>
				
					<path id="XMLID_21_" style="fill:#FFFFFF;stroke:#263238;stroke-linecap:round;stroke-linejoin:round;stroke-miterlimit:10;" d="
					M195.595,164.3c0,0,1.497,5.687,1.297,10.575c-0.2,4.888-0.698,6.884-0.698,6.884l10.176,16.162l2.893-14.965l1.896-10.376
					C211.159,172.581,199.586,171.882,195.595,164.3z"/>
				<g>
					
						<polygon id="XMLID_27_" style="fill:#FFFFFF;stroke:#263238;stroke-linecap:round;stroke-linejoin:round;stroke-miterlimit:10;" points="
						205.771,189.241 206.37,197.921 203.377,193.232 					"/>
					
						<polygon id="XMLID_25_" style="fill:#FFFFFF;stroke:#263238;stroke-linecap:round;stroke-linejoin:round;stroke-miterlimit:10;" points="
						192.802,181.36 202.08,198.021 205.771,189.241 195.895,175.673 					"/>
				</g>
			</g>
			<g>
				<g>
					<defs>
						<rect id="XMLID_37_" x="271.169" y="189.128" width="84.213" height="69.103"/>
					</defs>
					<use xlink:href="#XMLID_37_"  style="overflow:visible;fill:#C6FF00;"/>
					<clipPath id="XMLID_00000054229159003032124070000005563453779156697017_">
						<use xlink:href="#XMLID_37_"  style="overflow:visible;"/>
					</clipPath>
					
						<rect id="XMLID_1_" x="271.169" y="189.128" style="opacity:0.2;clip-path:url(#XMLID_00000054229159003032124070000005563453779156697017_);" width="84.213" height="69.103"/>
					
						<use xlink:href="#XMLID_37_"  style="overflow:visible;fill:none;stroke:#263238;stroke-linecap:round;stroke-linejoin:round;stroke-miterlimit:10;"/>
				</g>
				
					<rect id="XMLID_34_" x="253.342" y="189.128" style="fill:#C6FF00;stroke:#263238;stroke-linecap:round;stroke-linejoin:round;stroke-miterlimit:10;" width="84.213" height="69.103"/>
				<g>
					<defs>
						<path id="XMLID_60_" d="M369.248,281.491c-2.697-4.282-13.865-23.26-13.865-23.26h-17.827l9.173,23.26H369.248z"/>
					</defs>
					<use xlink:href="#XMLID_60_"  style="overflow:visible;fill:#C6FF00;"/>
					<clipPath id="XMLID_00000091722136296873733880000010363546246361042314_">
						<use xlink:href="#XMLID_60_"  style="overflow:visible;"/>
					</clipPath>
					<path id="XMLID_2_" style="opacity:0.2;clip-path:url(#XMLID_00000091722136296873733880000010363546246361042314_);" d="
						M369.248,281.491c-2.697-4.282-13.865-23.26-13.865-23.26h-17.827l9.173,23.26H369.248z"/>
					
						<use xlink:href="#XMLID_60_"  style="overflow:visible;fill:none;stroke:#263238;stroke-linecap:round;stroke-linejoin:round;stroke-miterlimit:10;"/>
				</g>
				
					<path id="XMLID_41_" style="fill:#C6FF00;stroke:#263238;stroke-linecap:round;stroke-linejoin:round;stroke-miterlimit:10;" d="
					M239.42,281.491c2.697-4.282,13.865-23.26,13.865-23.26h17.827l-9.173,23.26H239.42z"/>
				
					<polygon id="XMLID_36_" style="fill:#C6FF00;stroke:#263238;stroke-linecap:round;stroke-linejoin:round;stroke-miterlimit:10;" points="
					253.285,258.23 245.532,281.491 333.481,281.491 337.555,258.23 				"/>
				<g>
					
						<line style="fill:none;stroke:#263238;stroke-linecap:round;stroke-linejoin:round;stroke-miterlimit:10;" x1="366.219" y1="214.135" x2="366.219" y2="237.269"/>
					
						<line style="fill:none;stroke:#263238;stroke-linecap:round;stroke-linejoin:round;stroke-miterlimit:10;" x1="370.595" y1="224.139" x2="370.595" y2="242.897"/>
					
						<line style="fill:none;stroke:#263238;stroke-linecap:round;stroke-linejoin:round;stroke-miterlimit:10;" x1="244.291" y1="237.269" x2="244.291" y2="251.65"/>
					
						<line style="fill:none;stroke:#263238;stroke-linecap:round;stroke-linejoin:round;stroke-miterlimit:10;" x1="240.54" y1="245.398" x2="240.54" y2="256.653"/>
				</g>
			</g>
			<g id="XMLID_31_">
				
					<path id="XMLID_26_" style="fill:#FFFFFF;stroke:#263238;stroke-linecap:round;stroke-linejoin:round;stroke-miterlimit:10;" d="
					M178.934,206.102c0,0,4.29,5.088,10.276,8.68c5.986,3.592,28.034,16.062,29.73,16.761c1.696,0.698,54.273-7.882,54.273-7.882
					s2.993,1.397,4.889,2.594c1.896,1.197,13.868,4.988,13.868,4.988s0.798-0.399-0.1-1.097c-0.898-0.698-6.684-3.492-6.684-3.492
					l11.972,2.594c0,0,0.698-0.499,0.399-0.998c-0.299-0.499-10.974-4.589-10.974-4.589l11.972,0.598c0,0,0.898-1.097,0.299-1.496
					c-0.599-0.399-12.87-3.193-12.87-3.193s13.069-1.097,13.169-1.596c0.1-0.499,0.499-1.098-0.299-1.197
					c-0.798-0.1-17.16-1.696-17.16-1.696s4.29-2.694,4.789-3.492c0.499-0.798,1.197-2.394,0.399-2.394s-0.998,0.499-2.095,1.197
					c-1.097,0.698-5.387,2.394-6.585,3.392c-1.197,0.998-4.789,3.592-4.789,3.592l-48.087,0.1l-29.83-23.545"/>
				
					<path id="XMLID_40_" style="fill:#FFFFFF;stroke:#263238;stroke-linecap:round;stroke-linejoin:round;stroke-miterlimit:10;" d="
					M298.853,216.777c-0.798-0.1-17.16-1.696-17.16-1.696s4.29-2.694,4.789-3.492c0.499-0.798,1.197-2.394,0.399-2.394
					s-0.998,0.499-2.095,1.197c-1.097,0.698-5.387,2.394-6.585,3.392c-1.197,0.998-4.789,3.592-4.789,3.592l-48.087,0.1
					l-5.356-4.228c-2.04,3.508-5.742,10.09-8.174,14.429c3.744,2.087,6.58,3.633,7.146,3.866c1.696,0.698,54.273-7.882,54.273-7.882
					s2.993,1.397,4.889,2.594c1.896,1.197,13.868,4.988,13.868,4.988s0.798-0.399-0.1-1.097c-0.898-0.698-6.684-3.492-6.684-3.492
					l11.972,2.594c0,0,0.698-0.499,0.399-0.998c-0.299-0.499-10.974-4.589-10.974-4.589l11.972,0.599c0,0,0.898-1.098,0.299-1.497
					c-0.599-0.399-12.87-3.192-12.87-3.192s13.069-1.097,13.169-1.596C299.253,217.475,299.652,216.877,298.853,216.777z"/>
			</g>
			<g>
				
					<path id="XMLID_17_" style="fill:#FFFFFF;stroke:#263238;stroke-linecap:round;stroke-linejoin:round;stroke-miterlimit:10;" d="
					M218.342,155.919c0-0.299,1.995-1.297,2.494,0.599c0.499,1.896-0.499,5.088-1.596,6.186s-2.095,1.397-2.095,0
					S218.342,155.919,218.342,155.919z"/>
				<g>
					
						<path id="XMLID_18_" style="fill:#FFFFFF;stroke:#263238;stroke-linecap:round;stroke-linejoin:round;stroke-miterlimit:10;" d="
						M206.059,138.436c0,0-0.196,7.436-5.87,12.915c-5.675,5.479-10.762,8.023-10.762,8.023s0.587,3.131,1.761,4.109
						c1.174,0.978,3.522,0.783,3.522,0.783s1.761,5.479,6.457,9.784c4.696,4.305,10.175,3.914,13.306-2.544
						c3.131-6.457,4.696-12.915,4.305-16.633c-0.391-3.718-0.391-3.718-0.391-3.718S208.211,145.48,206.059,138.436z"/>
					<g>
						<ellipse id="XMLID_20_" style="fill:#263238;" cx="205.468" cy="156.178" rx="0.898" ry="1.596"/>
						<ellipse id="XMLID_24_" style="fill:#263238;" cx="210.356" cy="168.948" rx="0.898" ry="1.596"/>
						<ellipse id="XMLID_22_" style="fill:#263238;" cx="214.147" cy="156.178" rx="0.898" ry="1.596"/>
						<path id="XMLID_23_" style="fill:none;stroke:#263238;stroke-linecap:round;stroke-linejoin:round;stroke-miterlimit:10;" d="
							M212.352,154.482c0,0-0.599,1.995-0.299,3.691c0.299,1.696,1.696,4.589,0.499,5.088c-1.197,0.499-2.794,0.299-3.392-0.399"/>
						<path id="XMLID_15_" style="fill:none;stroke:#263238;stroke-linecap:round;stroke-linejoin:round;stroke-miterlimit:10;" d="
							M202.873,153.295c0,0,0.472-3.068,4.484-2.714"/>
						<path id="XMLID_16_" style="fill:none;stroke:#263238;stroke-linecap:round;stroke-linejoin:round;stroke-miterlimit:10;" d="
							M213.612,151.525c0,0,3.738-3.012,4.951,2.481"/>
					</g>
				</g>
			</g>
		</g>
	</g>
</g>
</svg>
