<svg xmlns="http://www.w3.org/2000/svg" viewBox="0 0 500 500"><g id="freepik--background-simple--inject-2"><path d="M99.52,391s-29.65,12.53-51.25-31.37S30.85,274.62,81,248.84s72.47-100.35,138.67-121.95,116.37,7.67,138.67,39,18.81,51.57,58.53,78.74,49.48,55,46.69,88.5-43.2,57.14-43.2,57.14Z" style="fill:#A9FF02"></path><path d="M99.52,391s-29.65,12.53-51.25-31.37S30.85,274.62,81,248.84s72.47-100.35,138.67-121.95,116.37,7.67,138.67,39,18.81,51.57,58.53,78.74,49.48,55,46.69,88.5-43.2,57.14-43.2,57.14Z" style="fill:#fff;opacity:0.7000000000000001"></path></g><g id="freepik--Chart--inject-2"><path d="M132.57,81.4s2-2.62,13.76-2S191.86,84,207.26,83s40-5.9,44.22-3.28S249.84,87,249.84,87l-112.68-.33Z" style="fill:#fff;stroke:#263238;stroke-linecap:round;stroke-linejoin:round"></path><path d="M137.16,86.64s.65-5.57-4.59-5.24-7.21,6.55-4.26,13.43,5.57,6.55,10.16,22.93,1.63,76.65,1.63,91.72.33,19,.33,19l11.47-1.64s-2.3-102.53-5.57-118.91S137.16,86.64,137.16,86.64Z" style="fill:#263238;stroke:#263238;stroke-linecap:round;stroke-linejoin:round"></path><path d="M166.67,224.33c0,1.31-4.9,145.35-4.9,145.35l5.56-1,5.21-142.15Z" style="fill:#fff;stroke:#263238;stroke-linecap:round;stroke-linejoin:round"></path><polygon points="161.77 369.68 166.64 225.53 162.38 224.88 157 367.33 161.77 369.68" style="fill:#263238;stroke:#263238;stroke-linecap:round;stroke-linejoin:round"></polygon><path d="M240,214.66c.1,1.3,13.69,144,13.69,144l-4.34-2.34-15-139.07Z" style="fill:#263238;stroke:#263238;stroke-linecap:round;stroke-linejoin:round"></path><polygon points="253.67 358.67 240.1 215.85 244.3 214.89 258.67 357.67 253.67 358.67" style="fill:#fff;stroke:#263238;stroke-linecap:round;stroke-linejoin:round;stroke-width:0.710934px"></polygon><path d="M191.54,218c0,.93-3.48,103.33-3.48,103.33l3.95-.72,3.7-101.06Z" style="fill:#fff;stroke:#263238;stroke-linecap:round;stroke-linejoin:round;stroke-width:0.710934px"></path><polygon points="188.06 321.33 191.52 218.85 188.49 218.39 184.67 319.66 188.06 321.33" style="fill:#263238;stroke:#263238;stroke-linecap:round;stroke-linejoin:round;stroke-width:0.710934px"></polygon><path d="M137.16,86.64c.32,1.64,8.84,145.12,8.84,145.12l116.62-5.57L249.84,87Z" style="fill:#fff;stroke:#263238;stroke-linecap:round;stroke-linejoin:round"></path><polygon points="174.51 159.37 165.11 159.54 160.82 105.24 170.23 105.07 174.51 159.37" style="fill:#263238"></polygon><polygon points="188.26 159.12 178.85 159.29 175.84 121.08 185.24 120.91 188.26 159.12" style="fill:#A9FF02"></polygon><polygon points="202 158.87 192.6 159.04 190.59 133.56 199.99 133.39 202 158.87" style="fill:#263238"></polygon><polygon points="215.74 158.62 206.34 158.79 202.05 104.49 211.46 104.31 215.74 158.62" style="fill:#A9FF02"></polygon><line x1="150.91" y1="108.11" x2="156.7" y2="108" style="fill:none;stroke:#263238;stroke-linecap:round;stroke-linejoin:round;stroke-width:0.75px"></line><line x1="151.49" y1="115.48" x2="157.28" y2="115.38" style="fill:none;stroke:#263238;stroke-linecap:round;stroke-linejoin:round;stroke-width:0.75px"></line><line x1="152.07" y1="122.86" x2="157.86" y2="122.75" style="fill:none;stroke:#263238;stroke-linecap:round;stroke-linejoin:round;stroke-width:0.75px"></line><line x1="152.66" y1="130.23" x2="158.44" y2="130.12" style="fill:none;stroke:#263238;stroke-linecap:round;stroke-linejoin:round;stroke-width:0.75px"></line><line x1="153.24" y1="137.6" x2="159.03" y2="137.5" style="fill:none;stroke:#263238;stroke-linecap:round;stroke-linejoin:round;stroke-width:0.75px"></line><line x1="153.82" y1="144.98" x2="159.61" y2="144.87" style="fill:none;stroke:#263238;stroke-linecap:round;stroke-linejoin:round;stroke-width:0.75px"></line><line x1="154.4" y1="152.35" x2="160.19" y2="152.25" style="fill:none;stroke:#263238;stroke-linecap:round;stroke-linejoin:round;stroke-width:0.75px"></line><line x1="154.99" y1="159.73" x2="160.77" y2="159.62" style="fill:none;stroke:#263238;stroke-linecap:round;stroke-linejoin:round;stroke-width:0.75px"></line><path d="M207.59,192.39c0-.26,0-.53,0-.79a22.17,22.17,0,0,0-5.51-14.66L185.31,191.6Z" style="fill:#A9FF02;stroke:#fff;stroke-linecap:round;stroke-linejoin:round"></path><path d="M187.06,169.38c-.58,0-1.16-.08-1.75-.08a22.3,22.3,0,0,0-9.87,42.29l9.87-20Z" style="fill:#263238;stroke:#fff;stroke-linecap:round;stroke-linejoin:round"></path><path d="M185.31,191.6l-9.87,20a22.06,22.06,0,0,0,9.87,2.31,22.29,22.29,0,0,0,22.28-21.51Z" style="fill:#A9FF02;stroke:#fff;stroke-linecap:round;stroke-linejoin:round"></path><path d="M202.1,176.94a22.2,22.2,0,0,0-15-7.56l-1.75,22.22Z" style="fill:#A9FF02;stroke:#fff;stroke-linecap:round;stroke-linejoin:round"></path></g><g id="freepik--Plants--inject-2"><path d="M327.24,183.86a3.82,3.82,0,0,1,3.07-4.78c3.2-.43,7.13,3.86,8.37,6.46.11.22,1.38,3.93,1.32,3.93s-5.67.13-8-.88C330.05,187.73,327.77,186.08,327.24,183.86ZM409.42,174c-.48,2.23-2.7,3.93-4.65,4.85s-6.56,1.07-7.7,1.09c-.61.73-1.26,1.52-2,2.4-1.21,1.57-2.58,3.35-3.93,5.38-.36.54-.72,1.14-1.09,1.71.82-.84,1.95-2,2.08-2.06,2.25-1.8,7.66-3.95,10.35-2.16a3.82,3.82,0,0,1,.67,5.64c-1.45,1.77-4.21,2.25-6.36,2.17s-6.46-2.14-7.37-2.59c-.79,1.27-1.58,2.61-2.31,4a50.09,50.09,0,0,0-3.39,8.09l.17.09c.66-.86,2.08-2.64,2.22-2.78,2-2,7.18-4.76,10.05-3.28a3.82,3.82,0,0,1,1.28,5.54c-1.24,1.91-3.93,2.7-6.08,2.85-2.47.17-7.59-1.76-7.79-1.83a68.7,68.7,0,0,0-1.86,8.52c-.33,2.13-.58,4.3-.81,6.48.45-.62,2.32-3,2.47-3.11,2-2,7.19-4.76,10.05-3.28a3.83,3.83,0,0,1,1.29,5.54c-1.25,1.91-3.94,2.7-6.09,2.85-2.41.17-7.32-1.66-7.74-1.82-.1,1-.21,2-.31,3-.31,3.24-.61,6.5-1,9.7-.14,1.1-.32,2.19-.49,3.28.7-.9,2-2.53,2.13-2.65,2-2,7.19-4.76,10-3.28a3.81,3.81,0,0,1,1.29,5.53c-1.25,1.91-3.94,2.7-6.09,2.85s-6.32-1.3-7.48-1.72c-.3,1.81-.64,3.6-1.06,5.35-.19.75-.34,1.52-.57,2.23s-.43,1.43-.64,2.14c-.49,1.44-.93,2.78-1.42,4.12-.24.67-.49,1.3-.73,1.95.57-1,1.5-2.63,1.6-2.76,1.71-2.32,6.38-5.8,9.44-4.77a3.83,3.83,0,0,1,2.11,5.28c-.94,2.07-3.49,3.26-5.59,3.74-2.31.52-7.28-.49-7.89-.62-.6,1.6-1.2,3.14-1.79,4.58-1.86,4.55-3.59,8.26-4.83,10.85l-.2.42h9.05l-3.12,60.93a8.72,8.72,0,0,1-8.7,8.27h0a8.72,8.72,0,0,1-8.7-8.27l-3.12-60.93h9.71c0-.42-.09-.87-.15-1.37-.33-2.82-.85-6.84-1.69-11.63-.24-1.39-.52-2.85-.82-4.35-.63.09-5.65.72-7.91,0-2.06-.63-4.51-2-5.29-4.15a3.81,3.81,0,0,1,2.49-5.1c3.13-.8,7.53,3,9.06,5.45.1.16,1.05,2.14,1.52,3.15-.19-.9-.37-1.8-.58-2.74-.28-1.35-.63-2.77-1-4.15l-.6-2.15c-.19-.73-.46-1.41-.69-2.13-.36-1-.78-2.1-1.19-3.16-1.36.38-5.37,1.42-7.44,1.12s-4.75-1.3-5.85-3.3a3.81,3.81,0,0,1,1.69-5.42c3-1.26,7.9,1.84,9.78,4,.06.07.41.57.82,1.17-.43-1-.87-2-1.35-3.06-1.36-2.89-2.83-5.79-4.29-8.71-.31-.61-.6-1.22-.91-1.83-1.14.33-5.48,1.49-7.64,1.18s-4.75-1.3-5.85-3.3a3.81,3.81,0,0,1,1.69-5.42c3-1.27,7.9,1.84,9.78,4,.07.07.49.68.95,1.35-.78-1.59-1.53-3.19-2.22-4.8a68.26,68.26,0,0,1-3.07-8.49c-.4.12-5.45,1.59-7.86,1.24-2.13-.31-4.75-1.3-5.85-3.3a3.81,3.81,0,0,1,1.69-5.42c3-1.26,7.9,1.84,9.78,4,.14.15,1.63,2.33,2.14,3.13a.38.38,0,0,1,0-.1,49,49,0,0,1-1.47-8.73,69.29,69.29,0,0,1-.19-7.91c.06-2.46.26-4.69.46-6.67.11-1.07.24-2.05.36-3l-.05,0c-.05,0-1.13-3.74-1.18-4-.47-2.84.28-8.61,3.15-10.1a3.83,3.83,0,0,1,5.26,2.16c.83,2.12-.08,4.78-1.2,6.61S342,176.31,341,177c-.11,1-.22,2-.31,3.09-.16,2-.31,4.21-.31,6.65,0,.65,0,1.35,0,2,.22-1.15.54-2.72.59-2.87.89-2.74,4.22-7.51,7.44-7.51a3.82,3.82,0,0,1,3.67,4.34c-.23,2.27-2.27,4.2-4.11,5.32s-6.56,1.78-7.58,1.9c.05,1.5.13,3,.31,4.65a50.17,50.17,0,0,0,1.64,8.62l.19,0c.07-1.08.28-3.36.32-3.54.58-2.83,3.36-7.94,6.57-8.28a3.82,3.82,0,0,1,4.13,3.91c0,2.27-1.8,4.42-3.51,5.73-2,1.51-7.3,2.72-7.5,2.76a66.84,66.84,0,0,0,3.15,8.14c.9,2,1.89,3.91,2.9,5.85,0-.76.3-3.74.34-3.95.58-2.83,3.37-7.94,6.58-8.29a3.81,3.81,0,0,1,4.12,3.91c0,2.28-1.79,4.43-3.5,5.74-1.92,1.47-7,2.66-7.46,2.75l1.38,2.65c1.53,2.88,3.07,5.76,4.5,8.65.5,1,.95,2,1.41,3,.08-1.14.27-3.22.31-3.39.58-2.83,3.37-7.94,6.58-8.28a3.81,3.81,0,0,1,4.12,3.91c0,2.27-1.79,4.42-3.5,5.73s-6,2.4-7.2,2.69c.75,1.68,1.46,3.36,2.08,5,.25.74.55,1.47.75,2.18s.43,1.43.65,2.14c.39,1.47.75,2.84,1.08,4.22.17.69.31,1.35.47,2-.09-1.17-.2-3-.19-3.19.15-2.88,2.13-8.35,5.24-9.18a3.82,3.82,0,0,1,4.67,3.24,4,4,0,0,1,.06.84,14.92,14.92,0,0,1,2,7.22c0,.18-.3,2.36-.48,3.46.35-.85.69-1.7,1-2.6.5-1.29,1-2.67,1.48-4,.22-.7.45-1.41.68-2.12s.4-1.43.61-2.15c.27-1.07.51-2.19.74-3.3-1.34-.43-5.26-1.78-6.81-3.17s-3.25-3.71-3.07-6a3.83,3.83,0,0,1,4.41-3.59c3.17.59,5.57,5.89,5.94,8.75,0,.09,0,.7,0,1.43.19-1.09.39-2.18.56-3.3.46-3.16.83-6.39,1.22-9.63.08-.67.17-1.35.25-2-1.13-.36-5.39-1.78-7-3.24s-3.25-3.71-3.06-6a3.82,3.82,0,0,1,4.4-3.59c3.18.59,5.57,5.89,5.94,8.75,0,.1,0,.83,0,1.65.24-1.76.5-3.5.8-5.23a67.65,67.65,0,0,1,2.13-8.77c-.4-.12-5.43-1.69-7.24-3.3-1.6-1.44-3.25-3.71-3.06-6a3.81,3.81,0,0,1,4.4-3.59c3.17.58,5.57,5.89,5.94,8.75,0,.2.07,2.84.05,3.79l0-.1a49.49,49.49,0,0,1,3.6-8.1,68.63,68.63,0,0,1,4.2-6.7c1.4-2,2.81-3.77,4.06-5.31.69-.83,1.33-1.57,1.94-2.26h-.07c-.06,0,1.12-3.74,1.22-4,1.17-2.63,5-7,8.19-6.68A3.83,3.83,0,0,1,409.42,174Zm-37,77.43c-.55-.27-4.78-2.36-6.44-4.15a41.11,41.11,0,0,1-4.41,2.08c.38,1.66.73,3.28,1,4.8,1,4.82,1.57,8.87,2,11.72.08.6.15,1.14.22,1.64H365l.71-1.38c1.28-2.53,3.07-6.17,5-10.64C371.26,254.23,371.83,252.86,372.41,251.44Zm16.9-61.61c.05,0,1-3.76,1.07-4,.4-2.85-.51-8.6-3.42-10a3.82,3.82,0,0,0-5.2,2.3c-.77,2.14.21,4.76,1.38,6.57C384.52,186.81,389.31,189.83,389.31,189.83Z" style="fill:#A9FF02"></path><path d="M327.24,183.86a3.82,3.82,0,0,1,3.07-4.78c3.2-.43,7.13,3.86,8.37,6.46.11.22,1.38,3.93,1.32,3.93s-5.67.13-8-.88C330.05,187.73,327.77,186.08,327.24,183.86ZM409.42,174c-.48,2.23-2.7,3.93-4.65,4.85s-6.56,1.07-7.7,1.09c-.61.73-1.26,1.52-2,2.4-1.21,1.57-2.58,3.35-3.93,5.38-.36.54-.72,1.14-1.09,1.71.82-.84,1.95-2,2.08-2.06,2.25-1.8,7.66-3.95,10.35-2.16a3.82,3.82,0,0,1,.67,5.64c-1.45,1.77-4.21,2.25-6.36,2.17s-6.46-2.14-7.37-2.59c-.79,1.27-1.58,2.61-2.31,4a50.09,50.09,0,0,0-3.39,8.09l.17.09c.66-.86,2.08-2.64,2.22-2.78,2-2,7.18-4.76,10.05-3.28a3.82,3.82,0,0,1,1.28,5.54c-1.24,1.91-3.93,2.7-6.08,2.85-2.47.17-7.59-1.76-7.79-1.83a68.7,68.7,0,0,0-1.86,8.52c-.33,2.13-.58,4.3-.81,6.48.45-.62,2.32-3,2.47-3.11,2-2,7.19-4.76,10.05-3.28a3.83,3.83,0,0,1,1.29,5.54c-1.25,1.91-3.94,2.7-6.09,2.85-2.41.17-7.32-1.66-7.74-1.82-.1,1-.21,2-.31,3-.31,3.24-.61,6.5-1,9.7-.14,1.1-.32,2.19-.49,3.28.7-.9,2-2.53,2.13-2.65,2-2,7.19-4.76,10-3.28a3.81,3.81,0,0,1,1.29,5.53c-1.25,1.91-3.94,2.7-6.09,2.85s-6.32-1.3-7.48-1.72c-.3,1.81-.64,3.6-1.06,5.35-.19.75-.34,1.52-.57,2.23s-.43,1.43-.64,2.14c-.49,1.44-.93,2.78-1.42,4.12-.24.67-.49,1.3-.73,1.95.57-1,1.5-2.63,1.6-2.76,1.71-2.32,6.38-5.8,9.44-4.77a3.83,3.83,0,0,1,2.11,5.28c-.94,2.07-3.49,3.26-5.59,3.74-2.31.52-7.28-.49-7.89-.62-.6,1.6-1.2,3.14-1.79,4.58-1.86,4.55-3.59,8.26-4.83,10.85l-.2.42h9.05l-3.12,60.93a8.72,8.72,0,0,1-8.7,8.27h0a8.72,8.72,0,0,1-8.7-8.27l-3.12-60.93h9.71c0-.42-.09-.87-.15-1.37-.33-2.82-.85-6.84-1.69-11.63-.24-1.39-.52-2.85-.82-4.35-.63.09-5.65.72-7.91,0-2.06-.63-4.51-2-5.29-4.15a3.81,3.81,0,0,1,2.49-5.1c3.13-.8,7.53,3,9.06,5.45.1.16,1.05,2.14,1.52,3.15-.19-.9-.37-1.8-.58-2.74-.28-1.35-.63-2.77-1-4.15l-.6-2.15c-.19-.73-.46-1.41-.69-2.13-.36-1-.78-2.1-1.19-3.16-1.36.38-5.37,1.42-7.44,1.12s-4.75-1.3-5.85-3.3a3.81,3.81,0,0,1,1.69-5.42c3-1.26,7.9,1.84,9.78,4,.06.07.41.57.82,1.17-.43-1-.87-2-1.35-3.06-1.36-2.89-2.83-5.79-4.29-8.71-.31-.61-.6-1.22-.91-1.83-1.14.33-5.48,1.49-7.64,1.18s-4.75-1.3-5.85-3.3a3.81,3.81,0,0,1,1.69-5.42c3-1.27,7.9,1.84,9.78,4,.07.07.49.68.95,1.35-.78-1.59-1.53-3.19-2.22-4.8a68.26,68.26,0,0,1-3.07-8.49c-.4.12-5.45,1.59-7.86,1.24-2.13-.31-4.75-1.3-5.85-3.3a3.81,3.81,0,0,1,1.69-5.42c3-1.26,7.9,1.84,9.78,4,.14.15,1.63,2.33,2.14,3.13a.38.38,0,0,1,0-.1,49,49,0,0,1-1.47-8.73,69.29,69.29,0,0,1-.19-7.91c.06-2.46.26-4.69.46-6.67.11-1.07.24-2.05.36-3l-.05,0c-.05,0-1.13-3.74-1.18-4-.47-2.84.28-8.61,3.15-10.1a3.83,3.83,0,0,1,5.26,2.16c.83,2.12-.08,4.78-1.2,6.61S342,176.31,341,177c-.11,1-.22,2-.31,3.09-.16,2-.31,4.21-.31,6.65,0,.65,0,1.35,0,2,.22-1.15.54-2.72.59-2.87.89-2.74,4.22-7.51,7.44-7.51a3.82,3.82,0,0,1,3.67,4.34c-.23,2.27-2.27,4.2-4.11,5.32s-6.56,1.78-7.58,1.9c.05,1.5.13,3,.31,4.65a50.17,50.17,0,0,0,1.64,8.62l.19,0c.07-1.08.28-3.36.32-3.54.58-2.83,3.36-7.94,6.57-8.28a3.82,3.82,0,0,1,4.13,3.91c0,2.27-1.8,4.42-3.51,5.73-2,1.51-7.3,2.72-7.5,2.76a66.84,66.84,0,0,0,3.15,8.14c.9,2,1.89,3.91,2.9,5.85,0-.76.3-3.74.34-3.95.58-2.83,3.37-7.94,6.58-8.29a3.81,3.81,0,0,1,4.12,3.91c0,2.28-1.79,4.43-3.5,5.74-1.92,1.47-7,2.66-7.46,2.75l1.38,2.65c1.53,2.88,3.07,5.76,4.5,8.65.5,1,.95,2,1.41,3,.08-1.14.27-3.22.31-3.39.58-2.83,3.37-7.94,6.58-8.28a3.81,3.81,0,0,1,4.12,3.91c0,2.27-1.79,4.42-3.5,5.73s-6,2.4-7.2,2.69c.75,1.68,1.46,3.36,2.08,5,.25.74.55,1.47.75,2.18s.43,1.43.65,2.14c.39,1.47.75,2.84,1.08,4.22.17.69.31,1.35.47,2-.09-1.17-.2-3-.19-3.19.15-2.88,2.13-8.35,5.24-9.18a3.82,3.82,0,0,1,4.67,3.24,4,4,0,0,1,.06.84,14.92,14.92,0,0,1,2,7.22c0,.18-.3,2.36-.48,3.46.35-.85.69-1.7,1-2.6.5-1.29,1-2.67,1.48-4,.22-.7.45-1.41.68-2.12s.4-1.43.61-2.15c.27-1.07.51-2.19.74-3.3-1.34-.43-5.26-1.78-6.81-3.17s-3.25-3.71-3.07-6a3.83,3.83,0,0,1,4.41-3.59c3.17.59,5.57,5.89,5.94,8.75,0,.09,0,.7,0,1.43.19-1.09.39-2.18.56-3.3.46-3.16.83-6.39,1.22-9.63.08-.67.17-1.35.25-2-1.13-.36-5.39-1.78-7-3.24s-3.25-3.71-3.06-6a3.82,3.82,0,0,1,4.4-3.59c3.18.59,5.57,5.89,5.94,8.75,0,.1,0,.83,0,1.65.24-1.76.5-3.5.8-5.23a67.65,67.65,0,0,1,2.13-8.77c-.4-.12-5.43-1.69-7.24-3.3-1.6-1.44-3.25-3.71-3.06-6a3.81,3.81,0,0,1,4.4-3.59c3.17.58,5.57,5.89,5.94,8.75,0,.2.07,2.84.05,3.79l0-.1a49.49,49.49,0,0,1,3.6-8.1,68.63,68.63,0,0,1,4.2-6.7c1.4-2,2.81-3.77,4.06-5.31.69-.83,1.33-1.57,1.94-2.26h-.07c-.06,0,1.12-3.74,1.22-4,1.17-2.63,5-7,8.19-6.68A3.83,3.83,0,0,1,409.42,174Zm-37,77.43c-.55-.27-4.78-2.36-6.44-4.15a41.11,41.11,0,0,1-4.41,2.08c.38,1.66.73,3.28,1,4.8,1,4.82,1.57,8.87,2,11.72.08.6.15,1.14.22,1.64H365l.71-1.38c1.28-2.53,3.07-6.17,5-10.64C371.26,254.23,371.83,252.86,372.41,251.44Zm16.9-61.61c.05,0,1-3.76,1.07-4,.4-2.85-.51-8.6-3.42-10a3.82,3.82,0,0,0-5.2,2.3c-.77,2.14.21,4.76,1.38,6.57C384.52,186.81,389.31,189.83,389.31,189.83Z" style="fill:#fff;opacity:0.30000000000000004"></path></g><g id="freepik--Character--inject-2"><path d="M322.5,226.35s10.16-7.37,10.81-7.86,9.67,3.44,10.16,5.9.16,3.11-.49,3.44-18.67,5.24-19.17,5.4S322.5,226.35,322.5,226.35Z" style="fill:#A9FF02;stroke:#263238;stroke-linecap:round;stroke-linejoin:round"></path><path d="M251.2,165.5a6.94,6.94,0,0,1,.14-4.61c1-2.24,2.52-2.94,1.82-4.62s-4.9-5.46-5.32-7.56-1.68-2-2.38-.7a3.07,3.07,0,0,0,.84,3.92,3.33,3.33,0,0,1,1.68,2.24c0,.42-1,1-1,1s-4.19-3.78-5.17-4.06-1.26,0-1.26,1.68-.27,8.83.85,11.35,6,5,6,5Z" style="fill:#fff;stroke:#263238;stroke-linecap:round;stroke-linejoin:round"></path><path d="M247.24,163.53a1.42,1.42,0,0,0,.77-1.83l-21.65-55.24-1,.33,20,55.91a1.43,1.43,0,0,0,1.9.83Z" style="fill:#263238"></path><path d="M286.59,163.24a.16.16,0,0,0-.3,0,105.1,105.1,0,0,0-5.56,14.47,67,67,0,0,1-8.11,16.65s-11.48-14.41-14.84-19.17-6.58-9.66-6.58-9.66l-4.76,3.08a187.78,187.78,0,0,0,7.42,17.92c3.5,6.85,11.53,18.3,16.43,22.92s8.38,5.08,11.42,3.11c1.33-.86,6-9.1,6-9.1s2-14.13,1.26-24.49A80.15,80.15,0,0,0,286.59,163.24Z" style="fill:#A9FF02;stroke:#263238;stroke-linecap:round;stroke-linejoin:round"></path><path d="M325.1,254.09c0-11.61-.28-27.71-.28-27.71a195.83,195.83,0,0,1-20.16,1.82c-8.53.14-17.77-6.72-17.77-6.72s-1.26,3.92-1.26,14.7S286.89,285,286.89,285s1.86,14.1,2.39,22,7.93,52.31,7.93,52.31-5.29,5.28-9,8.45-8.45,5.28-5.28,6.87,10.29-.26,11.88-.78c.83-.28,3.07-2.41,5.26-3.51a6,6,0,0,1,2.23-.68,4.65,4.65,0,0,0,2.22-.79l1.66-1.11s.53,6.34.53,9,1.58,9,3.7,9.51,4.16.28,6.27-3.94S316,360,316,360s1.57-8.75,2.37-14.88C319.3,337.76,325.1,262.55,325.1,254.09Z" style="fill:#263238;stroke:#263238;stroke-linecap:round;stroke-linejoin:round"></path><path d="M313.86,234.11s1.21,4.46,3.24,6.69,6.48,2,6.48,2" style="fill:none;stroke:#fff;stroke-linecap:round;stroke-linejoin:round;stroke-width:0.75px"></path><polyline points="297.85 236.34 298.46 247.48 300.69 250.12 301.5 238.77" style="fill:none;stroke:#fff;stroke-linecap:round;stroke-linejoin:round;stroke-width:0.75px"></polyline><path d="M298.33,359.33A18.3,18.3,0,0,0,306,363" style="fill:none;stroke:#fff;stroke-linecap:round;stroke-linejoin:round;stroke-width:0.75px"></path><path d="M316,360s-4,6-8.64,1.36" style="fill:none;stroke:#fff;stroke-linecap:round;stroke-linejoin:round;stroke-width:0.75px"></path><path d="M296.52,244.56l5.23,7.32,4.58,107.45s7.34-15.33,10-27S320,304.67,320,304.67" style="fill:none;stroke:#fff;stroke-linecap:round;stroke-linejoin:round;stroke-width:0.75px"></path><path d="M302.14,159.91s-14,2.38-15.67,2.94-.42,25.33-.42,25.33-.7,36.1.56,39.88,9,5,12.14,5.62a41.82,41.82,0,0,0,17.15-.34c3.27-.72,7.77-1.09,8.64-5s1.82-26.31,3.78-33.73,9.23-19.31,6.29-24.21-15.95-8.53-21.55-9.23S302.14,159.91,302.14,159.91Z" style="fill:#A9FF02;stroke:#263238;stroke-linecap:round;stroke-linejoin:round"></path><polygon points="299.21 166.34 301.02 175.86 291.23 221.63 296.69 230.86 303.54 222.74 302.7 176.42 307.6 168.02 304.8 162.57 299.21 166.34" style="fill:#263238"></polygon><path d="M304,157.67a19.59,19.59,0,0,0-5.45,4.34c-2.38,2.79-6.44,10.21-6,9.93s11.61-7.14,11.61-7.14Z" style="fill:#A9FF02;stroke:#263238;stroke-linecap:round;stroke-linejoin:round"></path><polygon points="313.34 156.27 304.52 165.93 307.04 174.74 317.4 161.59 313.34 156.27" style="fill:#A9FF02;stroke:#263238;stroke-linecap:round;stroke-linejoin:round"></polygon><path d="M297.11,122.54s-5.74,1.12-6.44-3.92,7.14-12.17,18.33-12.17,20,9.37,19.6,18.47a31.75,31.75,0,0,1-5.74,16.37c-.56.84-5.18,3.36-7.14,3.64s-3.36-2.52-2.38-6.16-2.1-4.61-.84-8,2.94-3.36,3.5-4.48-5.6-3.5-11.2-3.22S297.11,122.54,297.11,122.54Z" style="fill:#263238;stroke:#263238;stroke-linecap:round;stroke-linejoin:round"></path><path d="M308.4,117.71c6.69-.16,16.06,1,17.21,8.79" style="fill:none;stroke:#fff;stroke-linecap:round;stroke-linejoin:round"></path><path d="M301.61,118.35s1.39-.25,3.5-.44" style="fill:none;stroke:#fff;stroke-linecap:round;stroke-linejoin:round"></path><path d="M315.2,114.27s11.85.46,13.4,10.65" style="fill:none;stroke:#fff;stroke-linecap:round;stroke-linejoin:round"></path><path d="M303.26,152.21s0,.2-.09.54c-.3,1.72-1.21,7.11-1.45,10.38-.28,3.91,2.52,3.77,3.64,2.65s7-7,8-9.51,3.22-10.08,3.22-10.08Z" style="fill:#fff;stroke:#263238;stroke-linecap:round;stroke-linejoin:round"></path><path d="M297.11,122.54s-2,10.92-2.66,16.65-1.4,9.1,1,12.74,9.09,1.26,12.45-.14,10.22-5.88,10.22-5.88,4.76.28,6.72-2.1a3.6,3.6,0,0,0-1.26-5.46c-1.12-.28-3.64.7-4.48,1.68s-.7,2.1-1.68,2.1-2.38.28-2.1-.7,2.38-4.2,1.82-6.29-4.76-3.5-1.26-5.46,7.14-1.82,5.46-4.76-10.36-6-15.82-4.9A40.18,40.18,0,0,0,297.11,122.54Z" style="fill:#fff;stroke:#263238;stroke-linecap:round;stroke-linejoin:round"></path><path d="M298.93,125.76s3.27-.7,3.07,2.66c-.07,1.32-5.87,7.42-5,8.81a7.36,7.36,0,0,0,2.24,2.24" style="fill:none;stroke:#263238;stroke-linecap:round;stroke-linejoin:round"></path><path d="M305.92,129.26a3.86,3.86,0,0,1,5.88,1.26" style="fill:none;stroke:#263238;stroke-linecap:round;stroke-linejoin:round"></path><path d="M297.81,143.53s.84,2.1,4.19,1.82,4.34-1,4.34-1" style="fill:none;stroke:#263238;stroke-linecap:round;stroke-linejoin:round"></path><path d="M307.86,133.85c-.2.93-.75,1.59-1.24,1.49s-.73-.94-.53-1.86.75-1.59,1.24-1.49S308.05,132.93,307.86,133.85Z" style="fill:#263238"></path><path d="M299.71,130.76c-.17.89-.7,1.54-1.17,1.45s-.72-.9-.54-1.79.7-1.54,1.18-1.45S299.89,129.86,299.71,130.76Z" style="fill:#263238"></path><path d="M324.26,191.54a32.91,32.91,0,0,1,2.23-8.1c2-4.73,6.86-14.3,8.12-13s3.5,5.46,4.9,12.74,5.74,29.67,7.56,33.59,2.24,5.45,1.12,7c0,0-3.92,5.6-9.1,3.36s-13.85-23.51-13.85-23.51" style="fill:#A9FF02;stroke:#263238;stroke-linecap:round;stroke-linejoin:round"></path><path d="M237.56,148.61c-.83,1.88,1.82,3.41,3.34,3.73,1.26.27,2.57-1.84,1.63-2.79a6.48,6.48,0,0,0-3.09-1.59,1.92,1.92,0,0,0-1.78.49A.86.86,0,0,0,237.56,148.61Z" style="fill:#fff;stroke:#263238;stroke-linecap:round;stroke-linejoin:round"></path><path d="M242.43,154.45s-3.5-.79-4.52-.39-1,2.94-.45,3.61,5.59.34,6.27-.22S244.13,155,242.43,154.45Z" style="fill:#fff;stroke:#263238;stroke-linecap:round;stroke-linejoin:round"></path><path d="M238.08,158.07s-.05,2.6.68,3.33,5.93-.17,6.33-1.07-.45-3.11-.91-3S240.12,158.52,238.08,158.07Z" style="fill:#fff;stroke:#263238;stroke-linecap:round;stroke-linejoin:round"></path><path d="M239.1,161.63a4.72,4.72,0,0,0,.73,2.6c.74.79,5.09-.62,5.88-1.64a1.18,1.18,0,0,0-.57-1.92,25.52,25.52,0,0,1-4.06.9C239.78,161.63,239.1,161.63,239.1,161.63Z" style="fill:#fff;stroke:#263238;stroke-linecap:round;stroke-linejoin:round"></path></g><g id="freepik--Table--inject-2"><path d="M401.22,282.57v0q19.88,8.57,39.72,17.19a5,5,0,0,1,2.7,6.44c-2,5.13-5.74,13.56-11.15,20.14-8.35,10.16-11.3,19.16-12.28,29.32s0,28.83,0,28.83l-50.78-44.23s5.9-25.71,15.24-33.58A53.67,53.67,0,0,0,401.22,282.57Z" style="fill:#263238"></path><path d="M392.54,275.2s-18.68.65-20.31.65-6.72,24.74-8.36,36.36-3.44,20.31-3.44,20.31,16.71,10.16,24.9,13.93,16.87,7.86,16.87,7.86,9.5-27.19,15.23-38.66,10.81-11.95,7.37-18.34S410.72,282.73,406.62,280,392.54,275.2,392.54,275.2Z" style="fill:#A9FF02;stroke:#263238;stroke-linecap:round;stroke-linejoin:round"></path><path d="M385.33,287.65l1.15,7.86L365.84,336s9,6.88,9.17,5.9,14.09-45.53,14.09-45.53l6.71-5.41-3.44-8A21.07,21.07,0,0,0,385.33,287.65Z" style="fill:#263238"></path><path d="M388,273.72s-.49.17-2.95,3.93-3.27,16.06-2.78,15.56,6.39-8,7.86-7.53,5.57,10.16,5.73,11,6.72-5.73,8.68-11.3,1.15-11-1.14-12.61S391.72,270.45,388,273.72Z" style="fill:#A9FF02;stroke:#263238;stroke-linecap:round;stroke-linejoin:round"></path><path d="M84,294.52,54,318.08a3.13,3.13,0,0,0,.25,5.11c6.54,4.11,19.49,13.18,23.36,22.6,5.24,12.78,7.2,30.3,11.3,36.53A24.46,24.46,0,0,0,99.52,391l31.93-40.3s-5.89,1.32-10.15-18-15.89-31.45-21-35.22S84,294.52,84,294.52Z" style="fill:#263238"></path><path d="M125.39,293.05s26.54,12.94,27,16.54-2.13,12.29-3.77,13.43-16.54-5.07-19-6.55S123.76,297.47,125.39,293.05Z" style="fill:#A9FF02;stroke:#263238;stroke-linecap:round;stroke-linejoin:round"></path><path d="M107.38,285.35a33.07,33.07,0,0,1,8.84-3.44c2.34-.61,7.21,2,9,7.37A119.43,119.43,0,0,0,130.62,302c1.66,3.56,4.84,8.35,4.78,12.34-.08,4.65-3,9.8-5.26,13.76l5.25,12.12L102.3,382.48s-8.68-2.29-9.83-15.4.33-31.77.33-31.77-9.17-6.88-11-14.41,4.58-18.35,11-23.1S107.38,285.35,107.38,285.35Z" style="fill:#A9FF02;stroke:#263238;stroke-linecap:round;stroke-linejoin:round"></path><path d="M111.14,244.57s1.48,7.21,4.75,7.86,4.92-.33,4.59,3.11a11.48,11.48,0,0,1-1.8,5.41s1.47,8.51,1,12.28-3.27,2.95-6.55,3.44a39.38,39.38,0,0,1-5.24.49s.65,6.88,2,10.32,2.79,4.92,1.15,5.73-10.15-3.6-14.25-9.17,1.47-11.14,3.93-15.56-5.24-9.33-.82-15.56A24.2,24.2,0,0,1,111.14,244.57Z" style="fill:#fff;stroke:#263238;stroke-linecap:round;stroke-linejoin:round"></path><path d="M113.58,254.39c.29,1,.24,2-.11,2.06s-.87-.67-1.16-1.72-.24-2,.11-2.06S113.29,253.34,113.58,254.39Z" style="fill:#263238"></path><path d="M108.52,252.27s.17-3.28,3-3.28" style="fill:#fff;stroke:#263238;stroke-linecap:round;stroke-linejoin:round"></path><path d="M424.11,402.83C422.14,344.15,348.7,297,258.39,297c-91.54,0-165.75,48.47-165.75,108.27" style="fill:#fff;stroke:#263238;stroke-linecap:round;stroke-linejoin:round"></path><polygon points="174.86 325.64 152.26 358.4 179.44 363.81 200.41 328.92 174.86 325.64" style="fill:#fff;stroke:#263238;stroke-linecap:round;stroke-linejoin:round"></polygon><line x1="178.13" y1="328.78" x2="160.58" y2="356.65" style="fill:none;stroke:#263238;stroke-linecap:round;stroke-linejoin:round;stroke-width:0.5px"></line><line x1="181.9" y1="329.46" x2="164.22" y2="357.37" style="fill:none;stroke:#263238;stroke-linecap:round;stroke-linejoin:round;stroke-width:0.5px"></line><line x1="185.68" y1="330.15" x2="168.06" y2="358.1" style="fill:none;stroke:#263238;stroke-linecap:round;stroke-linejoin:round;stroke-width:0.5px"></line><line x1="189.45" y1="330.84" x2="171.8" y2="358.62" style="fill:none;stroke:#263238;stroke-linecap:round;stroke-linejoin:round;stroke-width:0.5px"></line><line x1="193.22" y1="331.52" x2="175.86" y2="359.35" style="fill:none;stroke:#263238;stroke-linecap:round;stroke-linejoin:round;stroke-width:0.5px"></line><line x1="172.53" y1="330.56" x2="195.4" y2="334.41" style="fill:none;stroke:#263238;stroke-linecap:round;stroke-linejoin:round;stroke-width:0.5px"></line><line x1="170.77" y1="332.95" x2="193.94" y2="336.9" style="fill:none;stroke:#263238;stroke-linecap:round;stroke-linejoin:round;stroke-width:0.5px"></line><line x1="169.21" y1="335.34" x2="192.49" y2="339.39" style="fill:none;stroke:#263238;stroke-linecap:round;stroke-linejoin:round;stroke-width:0.5px"></line><line x1="167.86" y1="337.73" x2="191.16" y2="341.81" style="fill:none;stroke:#263238;stroke-linecap:round;stroke-linejoin:round;stroke-width:0.5px"></line><line x1="165.98" y1="340.33" x2="189.45" y2="344.21" style="fill:none;stroke:#263238;stroke-linecap:round;stroke-linejoin:round;stroke-width:0.5px"></line><line x1="164.11" y1="342.62" x2="187.73" y2="346.61" style="fill:none;stroke:#263238;stroke-linecap:round;stroke-linejoin:round;stroke-width:0.5px"></line><line x1="162.76" y1="344.9" x2="186.02" y2="349.01" style="fill:none;stroke:#263238;stroke-linecap:round;stroke-linejoin:round;stroke-width:0.5px"></line><line x1="161.2" y1="347.4" x2="184.3" y2="351.41" style="fill:none;stroke:#263238;stroke-linecap:round;stroke-linejoin:round;stroke-width:0.5px"></line><line x1="159.44" y1="349.89" x2="182.59" y2="353.81" style="fill:none;stroke:#263238;stroke-linecap:round;stroke-linejoin:round;stroke-width:0.5px"></line><line x1="157.57" y1="352.18" x2="180.88" y2="356.21" style="fill:none;stroke:#263238;stroke-linecap:round;stroke-linejoin:round;stroke-width:0.5px"></line><line x1="155.8" y1="354.67" x2="179.16" y2="358.61" style="fill:none;stroke:#263238;stroke-linecap:round;stroke-linejoin:round;stroke-width:0.5px"></line><polygon points="179.44 363.81 195.99 359.55 219.9 318.44 200.41 328.92 179.44 363.81" style="fill:#263238;stroke:#263238;stroke-linecap:round;stroke-linejoin:round"></polygon><polygon points="288.43 349.88 251.69 351.4 242.93 314.33 279.67 312.81 288.43 349.88" style="fill:#fff;stroke:#263238;stroke-linecap:round;stroke-linejoin:round"></polygon><polygon points="307.24 356.85 270.51 358.37 261.75 321.3 298.48 319.78 307.24 356.85" style="fill:#A9FF02;stroke:#263238;stroke-linecap:round;stroke-linejoin:round"></polygon><polygon points="367.34 394.49 316.83 394.84 311.75 367.28 362.26 366.94 367.34 394.49" style="fill:#fff;stroke:#263238;stroke-linecap:round;stroke-linejoin:round"></polygon><polygon points="186.65 397.22 134.34 395.9 141.23 369.43 193.54 370.75 186.65 397.22" style="fill:#A9FF02;stroke:#263238;stroke-linecap:round;stroke-linejoin:round"></polygon><path d="M408.59,308,393,344.64a240.12,240.12,0,0,1-24.24,4.43c-11.3,1.31-22.44,1.63-22.44,1.63l.16,6.88s17.69,2,31.94,2.13,19.82,4.1,23.59.49,24.07-43.4,26.53-50.77-3.77-13.59-7.7-16.38" style="fill:#A9FF02;stroke:#263238;stroke-linecap:round;stroke-linejoin:round"></path><path d="M346.35,350.7s-11.14-5.07-14.09-6.55-13.59,3.61-14.9,4.1-4.26,2.29-3.77,3.44,4.59,1.64,4.59,1.64-3.77.49-2.95,1.63,13.43-.82,14.57-.82,3.77,2.95,6.88,3.61,9.83-.17,9.83-.17Z" style="fill:#fff;stroke:#263238;stroke-linecap:round;stroke-linejoin:round"></path><path d="M160.77,343.5c.58-.39,2-.66,4.92,0s7.69,2,7.2,2.62-1.8.65-3.44.65-3.93.17-3.93.17S157.66,345.63,160.77,343.5Z" style="fill:#fff;stroke:#263238;stroke-linecap:round;stroke-linejoin:round"></path><path d="M83.63,316.15s2.13,13.59,6.06,31.28,8.84,25.55,11.46,26.7,33.42-9.67,40.13-12.78,11.63-2.29,13.76-2.29,5.08-4.92,7.21-5.73S174,354.8,174.7,353s-4.75-5.41-6.39-6.55-5.08-3.77-7.54-2.95-9,9.66-10.81,10.64-19.16,2-27.84,1.81-9.5-.33-9.5-.33-6.55-28-6.55-33.42c0-5-1.41-12.73-6.66-14.84-3.57-1.42-9.46-1.68-12.51,1.09A10.18,10.18,0,0,0,83.63,316.15Z" style="fill:#fff;stroke:#263238;stroke-linecap:round;stroke-linejoin:round"></path><path d="M104.43,369.54c5.9-3,8.19-13.92,8.19-13.92s-6.55-28-6.55-33.42c0-5-1.41-12.73-6.66-14.84-3.57-1.42-9.46-1.68-12.51,1.09a10.18,10.18,0,0,0-3.27,7.7s2.13,13.59,6.06,31.28c2.8,12.62,6.1,20.22,8.72,24A18.87,18.87,0,0,0,104.43,369.54Z" style="fill:#A9FF02;stroke:#263238;stroke-linecap:round;stroke-linejoin:round"></path><path d="M174.7,353s-9.83-3.61-11.31-3.61a8.78,8.78,0,0,0-2.78.5" style="fill:#fff;stroke:#263238;stroke-linecap:round;stroke-linejoin:round"></path><path d="M160.94,346.77a7.11,7.11,0,0,1,4.58.17c2,1,8,3.6,8,3.6" style="fill:#fff;stroke:#263238;stroke-linecap:round;stroke-linejoin:round"></path><path d="M152.58,308.94s-2.94-1-5.57,3.77-2.62,8.84,1.15,11.46,13.92,5.08,16.38,6.88,4.59,4.26,5.9,4.59,6.22,1.31,4.91-5.41-11-13.76-15.89-17.69S152.58,308.94,152.58,308.94Z" style="fill:#fff;stroke:#263238;stroke-linecap:round;stroke-linejoin:round"></path><path d="M168.36,328a13.64,13.64,0,0,1-2.13,3.68c-1.27,1.41-2.4,2.12-1.27,4.11a61.3,61.3,0,0,1,3,6.23c.71,1.7,1.9-.37,2.18-2.64s-1.64-5.4-.19-5.72c.43-.09,1.69-2.55,4.39-1.27s7.22,5.8,7.64,2.4-2.26-6.23-5.38-7.79S169.92,325,168.36,328Z" style="fill:#fff;stroke:#263238;stroke-linecap:round;stroke-linejoin:round"></path><path d="M183.09,330.57s1.41,0,2.83,2.69,2.12,4.1,1.13,4.53-1.27,0-2.12-1.56-1.56-3.12-1.56-3.12v-1.84Z" style="fill:#fff;stroke:#263238;stroke-linecap:round;stroke-linejoin:round"></path><path d="M179.69,328.3a5,5,0,0,1,3.68,3c1,2.55,1.56,5.67.71,6.94s-2.55.57-2.83-1.7S179.69,328.3,179.69,328.3Z" style="fill:#fff;stroke:#263238;stroke-linecap:round;stroke-linejoin:round"></path><path d="M176.15,326.46s1.55-.28,3.54,1.84,2.41,9.49,1.7,10.05-2,.85-2.69-1S176.15,326.46,176.15,326.46Z" style="fill:#fff;stroke:#263238;stroke-linecap:round;stroke-linejoin:round"></path><path d="M171.05,326.74s2.69-3.82,4.39-1.84,3.4,12.46,2.83,13.17-2.26,1.13-3.4-1.41a47.77,47.77,0,0,1-2.12-7.37" style="fill:#fff;stroke:#263238;stroke-linecap:round;stroke-linejoin:round"></path><path d="M109.72,248c-2.63,2.14-5.37,4.09-6.11,7.71-1.15,5.57,4.42,9.33.82,14.41s-8.19,6.39-3.28,11.47,20.15,13.1,17.53,26.86-12.61,12.45-14.91,11-12.28-7.86-16.7-5.57-1.15,10.81-2.46,13.6-14.74,0-19.49-6.06-8.85-22.61-3.77-31.62S74.29,278,71.83,268.65s-5.07-20.64,1.81-31,20.29-16.2,30.79-13.76c4.94,1.15,10.33,4.34,11.79,9.52,1.29,4.62-.87,8.92-4,12.25A26.24,26.24,0,0,1,109.72,248Z" style="fill:#263238;stroke:#263238;stroke-linecap:round;stroke-linejoin:round"></path><path d="M112.23,239.33a13.17,13.17,0,0,1-4.81,5.54c-6.34,4.08-10.41,8.61-8.6,14.95s2.26,10.41-5.89,14.49S88.85,292,97.46,295.6s20.38,12.22,13.13,19.92" style="fill:none;stroke:#fff;stroke-linecap:round;stroke-linejoin:round"></path><path d="M113.76,233.1a14.84,14.84,0,0,1-.45,3.17" style="fill:none;stroke:#fff;stroke-linecap:round;stroke-linejoin:round"></path><path d="M73.58,316c.41,2.16,1.41,3.86,2.14,4.1" style="fill:none;stroke:#fff;stroke-linecap:round;stroke-linejoin:round"></path><path d="M101.53,249.4s-11.32,4.53-10.86,9.51,2.26,8.61-.91,12.23-14.49,7.25-14.49,14.49,9,11.32,8.6,16.76-7.24,3.62-9.51,7.7a7.12,7.12,0,0,0-.62,1.49" style="fill:none;stroke:#fff;stroke-linecap:round;stroke-linejoin:round"></path><path d="M383.69,236.05s-3.27,5.08-3.27,8.19,1,4.42.32,4.91-9.82.5-8.35,2.95a10,10,0,0,0,4.26,3.61s-.49,12.77,0,15.56,1.31,2.62,3.6,2a38.85,38.85,0,0,1,5.08-1s2.13,11.14,5.08,12.77,10.48-6.55,11.14-9.66-.82-9.17.16-11,5.24-4.92,4.59-9.34-4.59-5.73-6.39-7.7.32-6.22-1.31-8.68S385.33,235.23,383.69,236.05Z" style="fill:#fff;stroke:#263238;stroke-linecap:round;stroke-linejoin:round"></path><path d="M399.42,263.57s-2.3,3.6-4.59,3.27-3.77-3.44-3.77-3.44" style="fill:#fff;stroke:#263238;stroke-linecap:round;stroke-linejoin:round"></path><path d="M393.36,266.19s-4.75,3.6-8.52,4.59" style="fill:#fff;stroke:#263238;stroke-linecap:round;stroke-linejoin:round"></path><path d="M376.65,255.71s6.71,7.69,4.42,9.33-6.39-2.45-6.39-5.57S374.52,255.22,376.65,255.71Z" style="fill:#263238;stroke:#263238;stroke-linecap:round;stroke-linejoin:round"></path><path d="M383.54,250c-.06,1.09-.44,1.95-.87,1.93s-.72-.92-.66-2,.44-2,.86-1.93S383.59,248.91,383.54,250Z" style="fill:#263238"></path><path d="M381.79,245.37s2.84-.66,3.5,4.16" style="fill:none;stroke:#263238;stroke-linecap:round;stroke-linejoin:round"></path><path d="M394.83,239.33s-17-.82-19.16-6.55,13.92-15.07,31.44-11.63S426,249.48,419.4,254.72s-15.73,10.65-18.18,11-2.46-1-1.8-2.13,5.07-9.34,2.13-9.67-8.69,3-9.34,3-1.47-1-.82-2.45,3.11-2.46.49-4.92-4.58-3.27-3.27-5.08S394.83,239.33,394.83,239.33Z" style="fill:#263238;stroke:#263238;stroke-linecap:round;stroke-linejoin:round"></path><path d="M380.06,232.64s1.36.46,9.51,2.27,30.34,2.26,31.25,14" style="fill:none;stroke:#fff;stroke-linecap:round;stroke-linejoin:round"></path><path d="M414.49,253.61a5.63,5.63,0,0,1-.47,3" style="fill:none;stroke:#fff;stroke-linecap:round;stroke-linejoin:round"></path><path d="M391.38,243.51a41.53,41.53,0,0,0,14.94,5,12.94,12.94,0,0,1,6.08,1.92" style="fill:none;stroke:#fff;stroke-linecap:round;stroke-linejoin:round"></path><path d="M397.27,250.31s16.3,4.07,12.68,9.05" style="fill:none;stroke:#fff;stroke-linecap:round;stroke-linejoin:round"></path><path d="M372.23,275.85s-5.24,2.13-7.05,6.72-20.63,25.88-23.42,31.12-3.44,8.35,0,10.32,6.06.82,10.65-2.3,12.24-15.83,12.24-15.83Z" style="fill:#A9FF02;stroke:#263238;stroke-linecap:round;stroke-linejoin:round"></path><path d="M345.2,310.74s-5.08,3.77-6.88,9.5S329.64,342,329.64,342l6.23,4.75s13.92-21.78,14.9-25.06.16-4.91.16-4.91" style="fill:#A9FF02;stroke:#263238;stroke-linecap:round;stroke-linejoin:round"></path><path d="M331.61,341a4.41,4.41,0,0,1,3.6.49c1.64,1.15,5.57,6.55,4.26,7.05s-3.11-.17-4.42-1.64-2.79-2.46-3.44-2.46H330Z" style="fill:#fff;stroke:#263238;stroke-linecap:round;stroke-linejoin:round"></path><path d="M319.16,345.46a13.52,13.52,0,0,0-3.93,3.12c-1.15,1.63-2.46,7.2-1.8,7.69s1.47-1.14,2.62-4.09S319.16,345.46,319.16,345.46Z" style="fill:#fff;stroke:#263238;stroke-linecap:round;stroke-linejoin:round"></path><path d="M331.61,341c.6.42-3.12,7.21-4.59,10s-8,5.9-9.66,6.06-2.13-8.84,2.62-12.77S330,339.89,331.61,341Z" style="fill:#fff;stroke:#263238;stroke-linecap:round;stroke-linejoin:round"></path><path d="M319.81,356.11s-1.63-2-.16-6.22a65.11,65.11,0,0,1,3-7.21" style="fill:none;stroke:#263238;stroke-linecap:round;stroke-linejoin:round"></path><path d="M322.76,354.31s-.49-2,.66-5.9a33.82,33.82,0,0,1,3.27-7.37" style="fill:none;stroke:#263238;stroke-linecap:round;stroke-linejoin:round"></path></g></svg>