<?xml version="1.0" encoding="utf-8"?>
<!-- Generator: Adobe Illustrator 27.5.0, SVG Export Plug-In . SVG Version: 6.00 Build 0)  -->
<svg version="1.1" xmlns="http://www.w3.org/2000/svg" xmlns:xlink="http://www.w3.org/1999/xlink" x="0px" y="0px"
	 viewBox="0 0 500 500" style="enable-background:new 0 0 500 500;" xml:space="preserve">
<g id="Background_Simple">
	<g>
		<g>
			<path style="fill:#C6FF00;" d="M255.743,401.821c14.119,1.488,27.829,1.218,40.509-0.911c12.059-2.012,23.933-5.76,35.236-11.138
				c57.676-26.516,100.77-91.049,95.18-155.798c-3.275-35.86-24.46-65.258-61.9-80.406c-26.769-10.923-73.267,6.37-98.7-9.474
				c-26.542-16.569-26.334-48.651-81.613-62.148c-35.158-8.713-73.111,22.28-88.206,51.648
				c-17.97,36.566-15.793,76.96-5.374,121.257C107.013,324.819,182.326,393.765,255.743,401.821z"/>
		</g>
		<g style="opacity:0.8;">
			<path style="fill:#FFFFFF;" d="M255.743,401.821c14.119,1.488,27.829,1.218,40.509-0.911c12.059-2.012,23.933-5.76,35.236-11.138
				c57.676-26.516,100.77-91.049,95.18-155.798c-3.275-35.86-24.46-65.258-61.9-80.406c-26.769-10.923-73.267,6.37-98.7-9.474
				c-26.542-16.569-26.334-48.651-81.613-62.148c-35.158-8.713-73.111,22.28-88.206,51.648
				c-17.97,36.566-15.793,76.96-5.374,121.257C107.013,324.819,182.326,393.765,255.743,401.821z"/>
		</g>
	</g>
</g>
<g id="Window">
	<g>
		<defs>
			<path id="XMLID_1_" d="M182.621,324.43H86.582V97.347h96.039V324.43z M292.303,97.347h-96.039V324.43h96.039V97.347z
				 M401.986,97.347h-96.039V324.43h96.039V97.347z"/>
		</defs>
		<clipPath id="XMLID_00000062163010134474262160000001223012270074708612_">
			<use xlink:href="#XMLID_1_"  style="overflow:visible;"/>
		</clipPath>
		<g style="clip-path:url(#XMLID_00000062163010134474262160000001223012270074708612_);">
			<g>
				<path style="fill:#FFFFFF;" d="M297.135,140.607v1.459h0.844C297.724,141.588,297.449,141.102,297.135,140.607z"/>
			</g>
			<g style="opacity:0.2;">
				<path style="fill:#C6FF00;" d="M212.557,141.937c-3.425-1.868-4.982-0.311-6.228-1.868c-1.245-1.557,3.425-5.605-5.917-9.653
					c0,0-0.623-8.719-13.39-9.03c-12.767-0.311-9.342,8.719-12.767,10.899c-3.425,2.18-4.359-1.245-7.785,0.934
					c-3.426,2.18-1.868,6.539-4.671,7.162c-2.802,0.623-6.539-2.802-9.965-0.623c-3.425,2.18-3.425,4.048-4.982,4.048
					c-1.557,0-4.671-1.245-6.539,0c-1.868,1.246-4.048,2.803-4.048,2.803h78.782C215.048,146.608,215.982,143.805,212.557,141.937z"
					/>
			</g>
			<g style="opacity:0.2;">
				<path style="fill:#C6FF00;" d="M434.588,177.621c-3.425-1.868-4.982-0.311-6.228-1.868c-1.246-1.557,3.425-5.605-5.917-9.653
					c0,0-0.623-8.719-13.39-9.03c-12.767-0.311-9.342,8.719-12.767,10.899c-3.425,2.18-4.359-1.246-7.785,0.934
					c-3.426,2.18-1.869,6.539-4.671,7.162c-2.803,0.623-6.539-2.802-9.965-0.623c-3.425,2.18-3.425,4.048-4.982,4.048
					c-1.557,0-4.671-1.245-6.539,0c-1.868,1.246-4.048,2.803-4.048,2.803h78.782C437.079,182.292,438.013,179.489,434.588,177.621z"
					/>
			</g>
			<g style="opacity:0.2;">
				<path style="fill:#C6FF00;" d="M229.876,176.997c-2.138-1.166-3.11-0.194-3.887-1.166c-0.777-0.972,2.138-3.499-3.693-6.025
					c0,0-0.389-5.442-8.357-5.636c-7.969-0.194-5.831,5.442-7.969,6.803c-2.138,1.36-2.721-0.777-4.859,0.583
					c-2.138,1.361-1.166,4.082-2.915,4.47c-1.749,0.389-4.082-1.749-6.219-0.389c-2.138,1.36-2.138,2.527-3.11,2.527
					c-0.972,0-2.915-0.777-4.082,0c-1.166,0.778-2.527,1.749-2.527,1.749h49.172C231.43,179.913,232.013,178.163,229.876,176.997z"
					/>
			</g>
			<polyline style="opacity:0.1;" points="36.861,332.508 36.861,249.239 86.315,249.239 86.315,149.373 119.612,149.373 
				119.612,171.294 138.259,171.294 138.259,235.842 183.543,235.842 183.543,200.524 204.854,200.524 204.854,220.004 
				220.531,220.004 227.559,220.004 228.124,227.317 246.523,227.317 246.523,198.088 261.174,198.088 261.174,106.746 
				297.135,106.746 297.135,142.065 323.773,142.065 323.773,97.583 353.075,97.583 353.075,206.613 383.708,206.613 
				383.708,246.803 405.095,246.803 405.095,334.303 			"/>
			<rect x="92.202" y="171.002" style="opacity:0.1;" width="7.202" height="7.804"/>
			<rect x="107.207" y="171.002" style="opacity:0.1;" width="7.202" height="7.804"/>
			<rect x="92.202" y="187.261" style="opacity:0.1;" width="7.202" height="7.804"/>
			<rect x="107.207" y="187.261" style="opacity:0.1;" width="7.202" height="7.804"/>
			<rect x="123.411" y="187.261" style="opacity:0.1;" width="7.202" height="7.804"/>
			<rect x="123.411" y="203.52" style="opacity:0.1;" width="7.202" height="7.804"/>
			<rect x="123.411" y="219.779" style="opacity:0.1;" width="7.202" height="7.804"/>
			<rect x="123.411" y="236.038" style="opacity:0.1;" width="7.202" height="7.804"/>
			<rect x="123.411" y="252.297" style="opacity:0.1;" width="7.202" height="7.805"/>
			<rect x="123.411" y="268.556" style="opacity:0.1;" width="7.202" height="7.804"/>
			<rect x="92.202" y="203.52" style="opacity:0.1;" width="7.202" height="7.804"/>
			<rect x="107.207" y="203.52" style="opacity:0.1;" width="7.202" height="7.804"/>
			<rect x="92.202" y="219.779" style="opacity:0.1;" width="7.202" height="7.804"/>
			<rect x="107.207" y="219.779" style="opacity:0.1;" width="7.202" height="7.804"/>
			<rect x="92.202" y="236.038" style="opacity:0.1;" width="7.202" height="7.804"/>
			<rect x="107.207" y="236.038" style="opacity:0.1;" width="7.202" height="7.804"/>
			<rect x="92.202" y="252.297" style="opacity:0.1;" width="7.202" height="7.805"/>
			<rect x="59.193" y="261.402" style="opacity:0.1;" width="7.202" height="7.804"/>
			<rect x="163.023" y="243.843" style="opacity:0.1;" width="7.202" height="7.804"/>
			<rect x="177.427" y="243.843" style="opacity:0.1;" width="7.202" height="7.804"/>
			<rect x="328.564" y="117.673" style="opacity:0.1;" width="7.202" height="7.804"/>
			<rect x="337.566" y="117.673" style="opacity:0.1;" width="7.202" height="7.804"/>
			<rect x="328.564" y="133.932" style="opacity:0.1;" width="7.202" height="7.804"/>
			<rect x="337.566" y="133.932" style="opacity:0.1;" width="7.202" height="7.804"/>
			<rect x="328.564" y="150.191" style="opacity:0.1;" width="7.202" height="7.804"/>
			<rect x="337.566" y="150.191" style="opacity:0.1;" width="7.202" height="7.804"/>
			<rect x="328.564" y="166.45" style="opacity:0.1;" width="7.202" height="7.804"/>
			<rect x="337.566" y="166.45" style="opacity:0.1;" width="7.202" height="7.804"/>
			<rect x="328.564" y="182.709" style="opacity:0.1;" width="7.202" height="7.805"/>
			<rect x="337.566" y="182.709" style="opacity:0.1;" width="7.202" height="7.805"/>
			<rect x="267.346" y="182.709" style="opacity:0.1;" width="7.202" height="7.805"/>
			<rect x="282.951" y="182.709" style="opacity:0.1;" width="7.202" height="7.805"/>
			<rect x="298.555" y="182.709" style="opacity:0.1;" width="7.202" height="7.805"/>
			<rect x="267.346" y="217.828" style="opacity:0.1;" width="7.202" height="7.804"/>
			<rect x="282.951" y="217.828" style="opacity:0.1;" width="7.202" height="7.804"/>
			<rect x="298.555" y="217.828" style="opacity:0.1;" width="7.202" height="7.804"/>
			<rect x="267.346" y="252.948" style="opacity:0.1;" width="7.202" height="7.804"/>
			<rect x="282.951" y="252.948" style="opacity:0.1;" width="7.202" height="7.804"/>
			<rect x="298.555" y="252.948" style="opacity:0.1;" width="7.202" height="7.804"/>
			<rect x="328.564" y="198.968" style="opacity:0.1;" width="7.202" height="7.804"/>
			<rect x="337.566" y="198.968" style="opacity:0.1;" width="7.202" height="7.804"/>
			<rect x="328.564" y="215.227" style="opacity:0.1;" width="7.202" height="7.804"/>
			<rect x="337.566" y="215.227" style="opacity:0.1;" width="7.202" height="7.804"/>
			<rect x="328.564" y="231.486" style="opacity:0.1;" width="7.202" height="7.804"/>
			<rect x="337.566" y="231.486" style="opacity:0.1;" width="7.202" height="7.804"/>
			<rect x="352.57" y="215.227" style="opacity:0.1;" width="7.202" height="7.804"/>
			<rect x="369.375" y="215.227" style="opacity:0.1;" width="7.202" height="7.804"/>
			<rect x="352.57" y="230.835" style="opacity:0.1;" width="7.202" height="7.804"/>
			<rect x="369.375" y="230.835" style="opacity:0.1;" width="7.202" height="7.804"/>
			<rect x="352.57" y="246.444" style="opacity:0.1;" width="7.202" height="7.804"/>
			<rect x="369.375" y="246.444" style="opacity:0.1;" width="7.202" height="7.804"/>
			<rect x="352.57" y="262.053" style="opacity:0.1;" width="7.202" height="7.804"/>
			<rect x="369.375" y="262.053" style="opacity:0.1;" width="7.202" height="7.804"/>
			<rect x="328.564" y="247.745" style="opacity:0.1;" width="7.202" height="7.804"/>
			<rect x="337.566" y="247.745" style="opacity:0.1;" width="7.202" height="7.804"/>
			<rect x="328.564" y="264.004" style="opacity:0.1;" width="7.202" height="7.804"/>
			<rect x="337.566" y="264.004" style="opacity:0.1;" width="7.202" height="7.804"/>
			<rect x="107.207" y="252.297" style="opacity:0.1;" width="7.202" height="7.805"/>
			<rect x="92.202" y="268.556" style="opacity:0.1;" width="7.202" height="7.804"/>
			<rect x="107.207" y="268.556" style="opacity:0.1;" width="7.202" height="7.804"/>
			<rect x="92.202" y="284.815" style="opacity:0.1;" width="7.202" height="7.804"/>
			<rect x="107.207" y="284.815" style="opacity:0.1;" width="7.202" height="7.804"/>
			<rect x="92.202" y="301.074" style="opacity:0.1;" width="7.202" height="7.804"/>
			<rect x="107.207" y="301.074" style="opacity:0.1;" width="7.202" height="7.804"/>
		</g>
		<use xlink:href="#XMLID_1_"  style="overflow:visible;fill:none;stroke:#263238;stroke-miterlimit:10;"/>
	</g>
</g>
<g id="Lamps">
	<g>
		<path style="fill:#263238;" d="M385.092,142.168c-1.904-6.187-9.445-9.255-14.793-11.573c-2.506-1.086-3.227-3.031-3.41-5.681
			c-0.02-0.291,0.012-1.998,0.063-3.677h-2.417h-5.806h-2.417c0.051,1.678,0.083,3.386,0.063,3.677
			c-0.183,2.65-0.903,4.595-3.41,5.681c-5.349,2.318-12.889,5.386-14.793,11.573c-0.554,1.799-0.703,3.444-0.673,4.816h21.229h5.806
			h21.229C385.796,145.612,385.646,143.967,385.092,142.168z"/>
		<rect x="360.913" y="69.92" style="fill:#263238;" width="1.44" height="52.305"/>
	</g>
	<g>
		<path style="fill:#263238;" d="M153.942,142.168c-1.904-6.187-9.445-9.255-14.793-11.573c-2.506-1.086-3.226-3.031-3.41-5.681
			c-0.02-0.291,0.012-1.998,0.063-3.677h-2.417h-5.805h-2.417c0.051,1.678,0.083,3.386,0.063,3.677
			c-0.183,2.65-0.903,4.595-3.41,5.681c-5.348,2.318-12.889,5.386-14.793,11.573c-0.554,1.799-0.703,3.444-0.673,4.816h21.229h5.805
			h21.229C154.645,145.612,154.496,143.967,153.942,142.168z"/>
		<rect x="129.763" y="69.92" style="fill:#263238;" width="1.44" height="52.305"/>
	</g>
</g>
<g id="Plants">
	<g>
		<g>
			<g>
				<g>
					<path style="fill:#C6FF00;" d="M432.633,264.029c0,0,0-3.757-5.26-9.017c-5.26-5.26-8.641-8.265-8.641-8.265
						s-2.63,8.641,2.254,13.901c4.884,5.26,11.647,10.144,11.647,10.144V264.029z"/>
					<path style="fill:#C6FF00;" d="M424.999,287.492c0,0,0-3.757-5.26-9.017c-5.26-5.26-8.641-8.265-8.641-8.265
						s-2.63,8.641,2.254,13.901s11.647,10.144,11.647,10.144V287.492z"/>
					<path style="fill:#C6FF00;" d="M432.302,270.428c0,0,0.397-3.736,6.183-8.41c5.786-4.674,9.466-7.306,9.466-7.306
						s1.702,8.87-3.71,13.585c-5.413,4.714-12.653,8.856-12.653,8.856L432.302,270.428z"/>
					<path style="fill:#C6FF00;" d="M423.08,298.138c0,0,0.787-3.674,7.032-7.715c6.245-4.041,10.181-6.271,10.181-6.271
						s0.761,9-5.117,13.12c-5.878,4.12-13.513,7.478-13.513,7.478L423.08,298.138z"/>
					<path style="fill:#C6FF00;" d="M424.814,328.349c0,0,0-3.757,5.26-9.017c5.26-5.26,8.641-8.265,8.641-8.265
						s2.63,8.641-2.254,13.901c-4.884,5.26-11.647,10.144-11.647,10.144V328.349z"/>
					<path style="fill:#C6FF00;" d="M424.726,335.723c0,0,0.534-3.719-3.925-9.673c-4.459-5.954-7.379-9.409-7.379-9.409
						s-3.831,8.18,0.256,14.08c4.087,5.9,10.087,11.696,10.087,11.696L424.726,335.723z"/>
					<path style="fill:#C6FF00;" d="M419.54,357.578c0,0,0-3.757,5.26-9.017c5.26-5.26,8.641-8.265,8.641-8.265
						s2.63,8.641-2.254,13.901S419.54,364.34,419.54,364.34V357.578z"/>
					<path style="fill:#C6FF00;" d="M423.052,377.392c0,0-0.952-3.634,2.804-10.055c3.756-6.421,6.266-10.184,6.266-10.184
						s4.733,7.693,1.34,14.018s-8.698,12.763-8.698,12.763L423.052,377.392z"/>
				</g>
				<path style="fill:none;stroke:#263238;stroke-linecap:round;stroke-linejoin:round;stroke-miterlimit:10;" d="M433.109,263.067
					c-0.308,4.016-0.764,8.171-1.441,11.665c-2.079,10.742-7.277,17.673-9.356,27.375c-2.079,9.703,3.89,22.203,2.291,34.665
					c-1.598,12.462-6.45,19.393-5.063,27.71c1.386,8.317,8.663,30.841,8.663,30.841"/>
				
					<line style="fill:none;stroke:#263238;stroke-linecap:round;stroke-linejoin:round;stroke-miterlimit:10;" x1="432.25" y1="272.925" x2="437.918" y2="268.575"/>
				
					<line style="fill:none;stroke:#263238;stroke-linecap:round;stroke-linejoin:round;stroke-miterlimit:10;" x1="432.514" y1="267.916" x2="430.141" y2="263.698"/>
				<path style="fill:none;stroke:#263238;stroke-linecap:round;stroke-linejoin:round;stroke-miterlimit:10;" d="M422.627,301.662
					c0,0,4.745-3.559,9.623-7.118"/>
				<path style="fill:none;stroke:#263238;stroke-linecap:round;stroke-linejoin:round;stroke-miterlimit:10;" d="M424.999,294.255
					c0,0-3.954-7.752-8.436-12.893"/>
				<path style="fill:none;stroke:#263238;stroke-linecap:round;stroke-linejoin:round;stroke-miterlimit:10;" d="M425,333.694
					c0,0,3.691-7.25,10.15-13.577"/>
				<path style="fill:none;stroke:#263238;stroke-linecap:round;stroke-linejoin:round;stroke-miterlimit:10;" d="M424.077,338.967
					c0,0-2.373-5.668-5.141-9.755c-2.768-4.086-3.164-4.614-3.164-4.614"/>
				<path style="fill:none;stroke:#263238;stroke-linecap:round;stroke-linejoin:round;stroke-miterlimit:10;" d="M419.54,364.482
					c0,0,1.901-4.82,4.274-8.643c2.373-3.823,5.536-7.25,5.536-7.25"/>
				<path style="fill:none;stroke:#263238;stroke-linecap:round;stroke-linejoin:round;stroke-miterlimit:10;" d="M424.765,383.934
					c0,0-0.556-4.499,1.422-8.322c1.977-3.823,4.218-8.832,5.141-10.809"/>
			</g>
			<g>
				<g>
					<path style="fill:#C6FF00;" d="M389.71,314.22c0,0-0.408-2.356,2.319-6.225c2.727-3.869,4.521-6.121,4.521-6.121
						s2.587,5.133,0.096,8.961c-2.492,3.828-6.202,7.625-6.202,7.625L389.71,314.22z"/>
					<path style="fill:#C6FF00;" d="M397.044,328.104c0,0-0.408-2.356,2.319-6.225c2.727-3.869,4.521-6.121,4.521-6.121
						s2.587,5.133,0.096,8.961c-2.492,3.829-6.202,7.625-6.202,7.625L397.044,328.104z"/>
					<path style="fill:#C6FF00;" d="M390.612,318.197c0,0-0.654-2.3-4.79-4.603c-4.136-2.303-6.729-3.554-6.729-3.554
						s-0.104,5.747,3.801,8.116c3.906,2.369,8.896,4.18,8.896,4.18L390.612,318.197z"/>
					<path style="fill:#C6FF00;" d="M399.403,334.572c0,0-0.892-2.218-5.247-4.074c-4.355-1.856-7.065-2.827-7.065-2.827
						s0.5,5.727,4.633,7.672c4.133,1.945,9.286,3.223,9.286,3.223L399.403,334.572z"/>
					<path style="fill:#C6FF00;" d="M401.595,353.705c0,0-0.408-2.356-4.277-5.083c-3.869-2.727-6.316-4.245-6.316-4.245
						s-0.711,5.704,2.923,8.472s8.405,5.097,8.405,5.097L401.595,353.705z"/>
					<path style="fill:#C6FF00;" d="M402.451,358.319c0,0-0.738-2.274,1.411-6.492c2.15-4.218,3.606-6.701,3.606-6.701
						s3.29,4.713,1.368,8.857c-1.922,4.144-5.056,8.429-5.056,8.429L402.451,358.319z"/>
					<path style="fill:#C6FF00;" d="M409.053,377.323c0,0,0.273-2.375,3.98-5.319c3.707-2.944,6.063-4.599,6.063-4.599
						s1.035,5.654-2.434,8.625c-3.47,2.971-8.1,5.568-8.1,5.568L409.053,377.323z"/>
					<path style="fill:#C6FF00;" d="M408.076,371.461c0,0-0.408-2.356-4.277-5.083c-3.869-2.727-6.316-4.245-6.316-4.245
						s-0.711,5.704,2.923,8.472c3.634,2.768,8.404,5.097,8.404,5.097L408.076,371.461z"/>
					<path style="fill:#C6FF00;" d="M408.024,384.267c0,0,0.202-2.382-2.85-6.001c-3.052-3.618-5.035-5.706-5.035-5.706
						s-2.133,5.338,0.681,8.936c2.814,3.598,6.84,7.059,6.84,7.059L408.024,384.267z"/>
				</g>
				<path style="fill:none;stroke:#263238;stroke-linecap:round;stroke-linejoin:round;stroke-miterlimit:10;" d="M389.306,313.668
					c0.629,2.485,1.366,5.041,2.17,7.159c2.47,6.511,6.482,10.292,8.839,16.151c2.357,5.859-0.029,14.345,2.326,21.987
					c2.355,7.641,6.15,11.461,6.183,16.826c0.034,5.366-2.085,20.28-2.085,20.28"/>
				
					<line style="fill:none;stroke:#263238;stroke-linecap:round;stroke-linejoin:round;stroke-miterlimit:10;" x1="390.915" y1="319.757" x2="386.889" y2="317.644"/>
				
					<line style="fill:none;stroke:#263238;stroke-linecap:round;stroke-linejoin:round;stroke-miterlimit:10;" x1="390.206" y1="316.644" x2="391.236" y2="313.742"/>
				<path style="fill:none;stroke:#263238;stroke-linecap:round;stroke-linejoin:round;stroke-miterlimit:10;" d="M400.069,336.732
					c0,0-3.362-1.717-6.807-3.419"/>
				<path style="fill:none;stroke:#263238;stroke-linecap:round;stroke-linejoin:round;stroke-miterlimit:10;" d="M397.778,332.345
					c0,0,1.638-5.291,3.89-9.001"/>
				<path style="fill:none;stroke:#263238;stroke-linecap:round;stroke-linejoin:round;stroke-miterlimit:10;" d="M402.059,357.077
					c0,0-3.102-4.146-7.839-7.412"/>
				<path style="fill:none;stroke:#263238;stroke-linecap:round;stroke-linejoin:round;stroke-miterlimit:10;" d="M403.21,360.283
					c0,0,0.872-3.812,2.165-6.675c1.292-2.863,1.483-3.237,1.483-3.237"/>
				<path style="fill:none;stroke:#263238;stroke-linecap:round;stroke-linejoin:round;stroke-miterlimit:10;" d="M408.642,379.861
					c0,0,2.669-3.271,4.33-4.496c1.661-1.224,2.812-2.445,2.812-2.445"/>
				<path style="fill:none;stroke:#263238;stroke-linecap:round;stroke-linejoin:round;stroke-miterlimit:10;" d="M408.825,375.791
					c0,0-1.715-2.816-3.618-4.956c-1.903-2.14-4.259-3.945-4.259-3.945"/>
				<path style="fill:none;stroke:#263238;stroke-linecap:round;stroke-linejoin:round;stroke-miterlimit:10;" d="M407.66,388.556
					c0,0-0.14-2.882-1.795-5.064c-1.655-2.183-3.604-5.081-4.397-6.22"/>
			</g>
		</g>
		<g>
			<path style="fill:#FFFFFF;stroke:#263238;stroke-linecap:round;stroke-linejoin:round;stroke-miterlimit:10;" d="
				M431.839,407.831h-27.406c-1.933,0-3.5-1.567-3.5-3.5V393.47h34.406v10.861C435.339,406.264,433.772,407.831,431.839,407.831z"/>
			<path style="fill:#FFFFFF;stroke:#263238;stroke-linecap:round;stroke-linejoin:round;stroke-miterlimit:10;" d="M435.04,397.957
				h-34.107c-1.487,0-2.693-1.205-2.693-2.693l0,0c0-1.487,1.206-2.693,2.693-2.693h34.107c1.487,0,2.693,1.206,2.693,2.693l0,0
				C437.733,396.752,436.527,397.957,435.04,397.957z"/>
		</g>
	</g>
</g>
<g id="Character_2">
	<g>
		<g>
			<g>
				<g>
					<path style="fill:#FFFFFF;stroke:#263238;stroke-linecap:round;stroke-linejoin:round;stroke-miterlimit:10;" d="
						M361.634,258.743c0,0-10.457,33.632-12.718,34.762c-2.261,1.13-46.915-9.892-46.915-9.892s-3.674,3.109-5.935,3.957
						c-2.261,0.848-4.239,2.544-4.239,2.544s-5.385,6.342-5.102,4.646s2.559-4.081,2.559-4.081s-4.83,5.192-5.395,4.626
						c-0.565-0.565,3.7-5.192,3.7-5.192s-6.369,5.93-6.783,4.804c-0.299-0.813,3.847-5.504,3.847-5.504s-6.956,6.917-6.956,5.504
						c0-1.413,3.109-4.804,5.087-6.218c1.978-1.413,12.153-7.631,14.414-7.631c2.261,0,42.393,1.13,42.393,1.13l10.74-37.306"/>
					<path style="fill:#FFFFFF;stroke:#263238;stroke-linecap:round;stroke-linejoin:round;stroke-miterlimit:10;" d="
						M297.055,285.368c0,0-0.29,1.595-2.321,2.901c-2.03,1.305-4.931,0.435-6.382,1.45c-1.45,1.015-3.191,2.03-3.771,1.885
						c-0.58-0.145,0.725-2.321,1.595-2.901c0.87-0.58,5.656-4.641,5.656-4.641"/>
				</g>
				<g>
					<path style="fill:#263238;stroke:#263238;stroke-linecap:round;stroke-linejoin:round;stroke-miterlimit:10;" d="
						M301.758,392.455c0,0-4.776,1.606-7.133,2.572c-2.356,0.966-9.733,0.533-10.523,1.704c-0.79,1.171,2.405,1.907,6.899,4.088
						c4.494,2.18,8.289,0.765,9.202,1.096c0.912,0.332,3.255,1.912,6.66,0.233c3.405-1.679,1.287-8.221,1.287-8.221L301.758,392.455
						z"/>
					<path style="fill:#263238;stroke:#263238;stroke-linecap:round;stroke-linejoin:round;stroke-miterlimit:10;" d="
						M353.867,307.279c0,0-36.779,4.371-39.272,6.381c-2.493,2.01-13.01,79.051-13.01,79.051l6.392,1.473l18.846-59.267
						c0,0,22.1-5.741,33.637-4.799c11.537,0.942,15.069-1.648,17.424-8.241c2.354-6.593-0.706-11.537-4.238-12.479"/>
				</g>
				<path style="fill:#263238;stroke:#263238;stroke-linecap:round;stroke-linejoin:round;stroke-miterlimit:10;" d="
					M351.368,301.929c0,0-0.496,17.978-0.496,21.752c0,3.773,4.528,7.547,12.453,7.547c7.924,0,18.49-0.755,21.887-4.151
					c3.396-3.396,0.755-26.415,0.755-26.415L351.368,301.929z"/>
				<path style="fill:#C6FF00;stroke:#263238;stroke-linecap:round;stroke-linejoin:round;stroke-miterlimit:10;" d="
					M344.281,241.374c0,0-2.577,10.629-1.288,18.038c1.288,7.408,5.798,21.581,5.476,25.124c-0.322,3.543,0.966,16.105,2.899,17.394
					c1.933,1.288,33.177,0,33.177,0s2.899-0.966,2.255-5.798c-0.644-4.832-4.187-24.802-7.086-40.907
					c-2.899-16.105-21.581-26.412-21.581-26.412L344.281,241.374z"/>
				<path style="fill:#FFFFFF;stroke:#263238;stroke-linecap:round;stroke-linejoin:round;stroke-miterlimit:10;" d="
					M333.008,185.65c0,0-4.832,0-7.086,3.865c-2.255,3.865,2.255,6.442,2.255,6.442s-2.577,8.375-2.577,9.985
					c0,1.611,1.289,4.51,1.289,4.51l-1.933,7.408l3.221,1.288c0,0,1.288,7.73,3.543,8.375c2.255,0.644,7.086-1.611,7.086-1.611
					l6.12,10.629l13.206-7.73l-4.187-10.307c0,0,6.764-14.173,5.476-22.869C358.132,186.938,342.349,182.751,333.008,185.65z"/>
				<path style="fill:#263238;stroke:#263238;stroke-linecap:round;stroke-linejoin:round;stroke-miterlimit:10;" d="
					M359.42,195.635c-1.288-8.697-17.072-12.884-26.412-9.985c0,0-4.832,0-7.086,3.865c-2.255,3.865,2.255,6.442,2.255,6.442
					s10.629-2.899,10.629-0.322s-2.255,4.187-1.611,6.442c0.644,2.255,4.509,2.255,4.509,2.255l-0.322,4.832l2.899,1.933
					c0,0,0-4.832,1.933-4.51c1.933,0.322,3.221,0.966,3.221,4.51s-2.899,3.865-2.899,3.865s4.187,6.12,7.408,3.543
					C353.945,218.504,360.709,204.332,359.42,195.635z"/>
				<polygon style="fill:#FFFFFF;stroke:#263238;stroke-linecap:round;stroke-linejoin:round;stroke-miterlimit:10;" points="
					358.454,224.302 341.06,239.763 342.349,246.205 361.997,229.778 				"/>
				<g>
					<g>
						<path style="fill:#FFFFFF;stroke:#263238;stroke-linecap:round;stroke-linejoin:round;stroke-miterlimit:10;" d="
							M289.486,288.701c1.905-1.511,8.891-5.581,10.99-6.421c4.832-1.933,45.419-2.924,45.419-2.924l1.715-7.321l12.79,5.78
							c-1.931,6.458-3.769,11.882-4.622,12.364c-2.201,1.242-46.926-4.033-46.926-4.033s-3.26,1.616-5.476,2.577
							c-2.215,0.96-4.785,0.936-4.785,0.936s-5.06,6.604-4.863,4.896c0.197-1.708,2.351-4.204,2.351-4.204s-4.563,5.428-5.156,4.891
							c-0.593-0.536,3.434-5.371,3.434-5.371s-6.064,6.242-6.533,5.139c-0.339-0.797,3.566-5.691,3.566-5.691
							s-6.6,7.258-6.671,5.847C284.646,293.755,287.581,290.212,289.486,288.701z"/>
					</g>
					<path style="fill:#C6FF00;stroke:#263238;stroke-linecap:round;stroke-linejoin:round;stroke-miterlimit:10;" d="
						M355.555,242.662c0,0-4.187,1.611-4.509,5.154c-0.322,3.543-5.152,31.541-5.152,31.541l14.493,10.332l9.663-36.72"/>
					<path style="fill:#FFFFFF;stroke:#263238;stroke-linecap:round;stroke-linejoin:round;stroke-miterlimit:10;" d="
						M344.281,279.382c0,0,12.562,12.24,14.173,12.24c1.611,0,0.966-0.322,1.933-1.933c0.966-1.611,1.933-7.408,1.933-7.408
						l-15.461-8.053C346.858,274.228,344.926,276.161,344.281,279.382z"/>
				</g>
				<path style="fill:#263238;stroke:#263238;stroke-linecap:round;stroke-linejoin:round;stroke-miterlimit:10;" d="
					M368.985,307.832c0,0-17.462-3.78-39.111-2.806c-19.411,0.874-25.04,4.786-24.285,8.183
					c0.755,3.396,16.981,69.433,16.981,69.433l6.792-0.755l-3.774-59.999c0,0,23.396,7.831,37.736,9.34
					c14.339,1.509,18.038,0.143,21.887-4.151"/>
			</g>
			<path style="fill:#263238;stroke:#263238;stroke-linecap:round;stroke-linejoin:round;stroke-miterlimit:10;" d="M322.57,382.642
				c0,0-3.043,2.674-4.53,4.325s-11.229,7.266-12.055,8.257c-0.826,0.991,1.816,2.312,3.963,2.312
				c2.147,0,15.522-3.468,18.825-3.963c3.303-0.495,3.633-1.651,3.798-3.137c0.165-1.486-3.21-8.547-3.21-8.547L322.57,382.642z"/>
		</g>
		<g>
			
				<rect x="359.785" y="332.737" transform="matrix(-1 -1.224647e-16 1.224647e-16 -1 730.1365 694.908)" style="fill:#263238;" width="10.566" height="29.434"/>
			
				<rect x="362.427" y="354.624" transform="matrix(-1 -1.224647e-16 1.224647e-16 -1 730.1364 738.6812)" style="fill:#263238;" width="5.283" height="29.434"/>
			<g>
				<path style="fill:#263238;" d="M366.055,334.226c6.938,0,12.683-0.043,14.249-0.174c4.902-0.408,7.1-2.065,7.335-2.252
					c3.268-2.903,3.392-9.267,3.693-24.64c0.081-4.16,0.173-8.876,0.34-14.371c0.737-24.327,9.617-48.654,9.707-48.897
					c0.324-0.88-0.126-1.856-1.005-2.181c-0.881-0.325-1.856,0.125-2.181,1.005c-0.091,0.248-9.161,25.076-9.916,49.969
					c-0.167,5.513-0.259,10.239-0.34,14.408c-0.253,12.946-0.394,20.127-2.433,22.061c-0.261,0.176-1.946,1.218-5.482,1.512
					c-4.401,0.367-45.467-0.002-45.881-0.005c-0.005,0-0.01,0-0.016,0c-0.93,0-1.689,0.749-1.698,1.683
					c-0.008,0.938,0.745,1.705,1.683,1.714C335.224,334.068,352.81,334.226,366.055,334.226z"/>
			</g>
			<path style="fill:#263238;" d="M367.217,381.793c0,0,4.438,5.036,15.849,6.792c6.028,0.928,12.302,2.081,17.747,4.964
				c3.503,1.854,10.474,5.912,10.474,10.548c0,2.294-1.859,4.153-4.153,4.153c-2.294,0-4.153-1.859-4.153-4.153
				c0-1.097,0.433-2.087,1.128-2.829c-0.579-0.942-4.357-6.623-12.309-8.352c-8.679-1.887-15.015-1.118-27.224-9.236
				L367.217,381.793z"/>
			<path style="fill:#263238;" d="M363.44,381.793c0,0-4.438,5.036-15.849,6.792c-6.028,0.928-12.302,2.081-17.748,4.964
				c-3.503,1.854-10.474,5.912-10.474,10.548c0,2.294,1.859,4.153,4.153,4.153s4.153-1.859,4.153-4.153
				c0-1.097-0.433-2.087-1.128-2.829c0.579-0.942,4.357-6.623,12.309-8.352c8.679-1.887,15.015-1.118,27.224-9.236L363.44,381.793z"
				/>
			<path style="fill:#263238;" d="M363.525,400.456h3.464c0.362,0,0.655,0.293,0.655,0.655v6.484c0,0.362-0.293,0.655-0.655,0.655
				h-3.464c-0.362,0-0.655-0.293-0.655-0.655v-6.484C362.87,400.749,363.163,400.456,363.525,400.456z"/>
			
				<rect x="364.125" y="382.496" transform="matrix(-1 -1.224647e-16 1.224647e-16 -1 730.5138 790.7471)" style="fill:#263238;" width="2.264" height="25.754"/>
		</g>
	</g>
</g>
<g id="Character_1">
	<g>
		<g>
			<path style="fill:#FFFFFF;stroke:#263238;stroke-linecap:round;stroke-linejoin:round;stroke-miterlimit:10;" d="
				M166.227,198.608c0,0,0,4.004-0.267,5.072c-0.267,1.068-2.135,2.669-1.602,4.004c0.534,1.335,1.602,5.072,1.602,5.072
				l-3.203,0.534c0,0-3.737,6.94-6.14,7.741c-2.402,0.801-13.08-5.072-13.08-5.072l-3.47,15.749l-8.275-7.741
				c0,0,3.47-9.61,3.737-12.012c0.267-2.402,0.534-19.486,2.936-24.558c2.402-5.072,7.474-8.809,16.283-7.741
				C163.558,180.723,169.697,188.731,166.227,198.608z"/>
			<path style="fill:#263238;stroke:#263238;stroke-linecap:round;stroke-linejoin:round;stroke-miterlimit:10;" d="M151.813,197.54
				l-6.673,31.231l-21.889-13.614c0,0,11.478-20.554,13.881-26.961c2.402-6.406,7.474-11.478,16.283-10.41
				c8.809,1.068,13.881,8.542,15.215,12.546c1.335,4.004-1.068,9.343-1.068,9.343L151.813,197.54z"/>
			<g>
				<path style="fill:#FFFFFF;stroke:#263238;stroke-linecap:round;stroke-linejoin:round;stroke-miterlimit:10;" d="
					M142.572,307.454c0,0,47.924-1.887,51.32,2.641c3.396,4.528,8.679,67.924,13.275,78.563c2.308,5.343,19.177-0.073,17.668,2.946
					c-1.51,3.019-7.17,6.792-10.566,7.547c-3.396,0.755-5.66,2.641-9.811,3.773c-4.151,1.132-5.66-3.396-5.283-6.038
					c0.377-2.642-0.359-7.163-0.359-7.163s-2.13-12.593-4.169-18.497c-12.641-36.603-10.189-47.547-10.189-47.547
					s-23.019,8.302-41.886,7.547"/>
				<path style="fill:#263238;stroke:#263238;stroke-linecap:round;stroke-linejoin:round;stroke-miterlimit:10;" d="
					M224.836,391.604c0.883-1.767-4.527-0.646-9.63-0.482l0.951,3.124c0,0-5.283,1.698-9.622,2.83
					c-2.386,0.622-5.28,0.56-7.407,0.378c-0.108,2.668,1.464,6.526,5.332,5.471c4.151-1.132,6.415-3.019,9.811-3.773
					C217.666,398.397,223.326,394.623,224.836,391.604z"/>
			</g>
			<g>
				<path style="fill:#FFFFFF;stroke:#263238;stroke-linecap:round;stroke-linejoin:round;stroke-miterlimit:10;" d="
					M122.12,258.743c0,0,10.457,33.632,12.718,34.762c2.261,1.13,46.915-9.892,46.915-9.892s3.674,3.109,5.935,3.957
					c2.261,0.848,4.239,2.544,4.239,2.544s5.385,6.342,5.102,4.646c-0.283-1.696-2.559-4.081-2.559-4.081s4.83,5.192,5.395,4.626
					c0.565-0.565-3.7-5.192-3.7-5.192s6.369,5.93,6.783,4.804c0.299-0.813-3.847-5.504-3.847-5.504s6.956,6.917,6.956,5.504
					c0-1.413-3.109-4.804-5.087-6.218c-1.978-1.413-12.153-7.631-14.414-7.631s-42.393,1.13-42.393,1.13l-10.74-37.306"/>
				<path style="fill:#FFFFFF;stroke:#263238;stroke-linecap:round;stroke-linejoin:round;stroke-miterlimit:10;" d="M186.7,285.368
					c0,0,0.29,1.595,2.321,2.901c2.031,1.305,4.931,0.435,6.382,1.45c1.45,1.015,3.191,2.03,3.771,1.885
					c0.58-0.145-0.725-2.321-1.595-2.901c-0.87-0.58-5.656-4.641-5.656-4.641"/>
			</g>
			<path style="fill:#C6FF00;stroke:#263238;stroke-linecap:round;stroke-linejoin:round;stroke-miterlimit:10;" d="
				M132.577,220.589c0,0,9.326,6.783,11.022,12.718c1.696,5.935,8.196,25.718,6.5,29.393c-1.696,3.674-9.609,13.566-10.174,14.414
				c-0.565,0.848,6.783,36.458,7.348,40.98c0.565,4.522-1.978,10.174-8.479,12.435c-6.5,2.261-20.066,3.674-26.001-3.674
				c-5.935-7.348-5.693-16.381,1.696-34.48c2.15-5.266,3.674-10.174,3.674-10.174s-3.109-26.001-1.413-36.741
				C118.446,234.72,132.577,220.589,132.577,220.589z"/>
			<g>
				<path style="fill:#C6FF00;stroke:#263238;stroke-linecap:round;stroke-linejoin:round;stroke-miterlimit:10;" d="
					M125.591,305.568c0,0,61.919-1.955,67.579,1.063c5.66,3.019-18.523,86.86-18.523,86.86s2.324,3.485,4.454,6.281
					c2.13,2.795,5.191,5.591,5.857,5.99c0.665,0.399,2.529,0.666,1.863,1.597c-0.665,0.932-4.126,0.133-7.454-0.133
					c-3.328-0.266-6.522-1.73-7.055-2.662c-0.533-0.932-3.594-4.659-4.792-5.191c-1.198-0.532-3.195-2.13-2.263-3.86
					c0.932-1.73,3.86-4.393,3.993-5.324c0.133-0.932,4.044-24.575,4.419-29.755c2.198-30.327,3.956-37.798,3.956-37.798
					s-31.003,13.111-50.97,9.384"/>
				<path style="fill:#FFFFFF;stroke:#263238;stroke-linecap:round;stroke-linejoin:round;stroke-miterlimit:10;" d="
					M193.171,306.631c-2.563-1.367-16.658-1.714-31.317-1.685l0.265,23.069c8.982-2.626,15.507-5.381,15.507-5.381
					s-1.758,7.472-3.956,37.798c-0.375,5.179-4.286,28.823-4.419,29.755c-0.133,0.932-3.062,3.594-3.993,5.324
					c-0.932,1.73,1.065,3.328,2.263,3.86s4.259,4.259,4.792,5.191c0.533,0.932,3.727,2.396,7.055,2.662
					c3.328,0.266,6.789,1.065,7.454,0.133c0.666-0.932-1.198-1.198-1.863-1.597c-0.666-0.399-3.727-3.195-5.857-5.99
					c-2.13-2.795-4.454-6.28-4.454-6.28S198.831,309.65,193.171,306.631z"/>
				<path style="fill:#263238;stroke:#263238;stroke-linecap:round;stroke-linejoin:round;stroke-miterlimit:10;" d="
					M184.958,405.762c-0.367-0.22-1.47-1.182-2.738-2.459h-6.818l-7.465-11.197c-0.946,1.106-2.143,2.41-2.68,3.407
					c-0.932,1.73,1.065,3.328,2.263,3.86s4.259,4.259,4.792,5.191c0.533,0.932,3.727,2.396,7.055,2.662
					c3.328,0.266,6.789,1.065,7.454,0.133C187.487,406.427,185.624,406.161,184.958,405.762z"/>
			</g>
			<g>
				<path style="fill:#C6FF00;stroke:#263238;stroke-linecap:round;stroke-linejoin:round;stroke-miterlimit:10;" d="
					M123.449,255.121c0,0,14.304,32.184,16.682,33.044c2.377,0.859,45.443-15.291,45.443-15.291s4.011,2.659,6.356,3.238
					c2.344,0.579,4.507,2.032,4.507,2.032s6.087,5.671,5.609,4.02c-0.478-1.651-3.017-3.755-3.017-3.755s5.402,4.594,5.898,3.966
					c0.496-0.627-4.279-4.725-4.279-4.725s7.017,5.148,7.297,3.982c0.202-0.842-4.462-5.018-4.462-5.018s7.714,6.06,7.55,4.656
					c-0.165-1.404-3.647-4.41-5.777-5.583s-12.959-6.163-15.205-5.899c-2.245,0.264-41.973,6.062-41.973,6.062l-15.013-35.801"/>
				<path style="fill:#FFFFFF;stroke:#263238;stroke-linecap:round;stroke-linejoin:round;stroke-miterlimit:10;" d="
					M205.254,275.687c-2.13-1.173-12.959-6.163-15.204-5.899c-2.246,0.263-41.973,6.062-41.973,6.062l-2.908-6.934l-11.651,7.825
					c2.977,6.047,5.692,11.09,6.613,11.423c2.377,0.859,45.443-15.291,45.443-15.291s4.011,2.659,6.356,3.238
					c2.344,0.579,4.507,2.032,4.507,2.032s6.087,5.671,5.609,4.02c-0.478-1.651-3.017-3.755-3.017-3.755s5.402,4.594,5.898,3.966
					c0.495-0.627-4.279-4.725-4.279-4.725s7.017,5.147,7.297,3.982c0.202-0.842-4.462-5.018-4.462-5.018s7.714,6.06,7.55,4.656
					C210.866,279.866,207.383,276.86,205.254,275.687z"/>
			</g>
		</g>
		<g>
			<rect x="127.855" y="332.737" style="fill:#263238;" width="10.566" height="29.434"/>
			<rect x="130.497" y="354.624" style="fill:#263238;" width="5.283" height="29.434"/>
			<g>
				<path style="fill:#263238;" d="M132.152,334.226c-6.938,0-12.683-0.043-14.249-0.174c-4.902-0.408-7.1-2.065-7.335-2.252
					c-3.268-2.903-3.392-9.267-3.693-24.64c-0.081-4.16-0.173-8.876-0.34-14.371c-0.737-24.327-9.617-48.654-9.707-48.897
					c-0.324-0.88,0.126-1.856,1.005-2.181c0.881-0.325,1.856,0.125,2.181,1.005c0.091,0.248,9.161,25.076,9.915,49.969
					c0.167,5.513,0.259,10.239,0.341,14.408c0.253,12.946,0.393,20.127,2.433,22.061c0.261,0.176,1.946,1.218,5.482,1.512
					c4.401,0.367,45.467-0.002,45.881-0.005c0.005,0,0.01,0,0.016,0c0.93,0,1.689,0.749,1.698,1.683
					c0.008,0.938-0.745,1.705-1.683,1.714C162.983,334.068,145.396,334.226,132.152,334.226z"/>
			</g>
			<path style="fill:#263238;" d="M130.99,381.793c0,0-4.438,5.036-15.849,6.792c-6.028,0.928-12.301,2.081-17.748,4.964
				c-3.503,1.854-10.474,5.912-10.474,10.548c0,2.294,1.859,4.153,4.153,4.153c2.294,0,4.153-1.859,4.153-4.153
				c0-1.097-0.433-2.087-1.128-2.829c0.579-0.942,4.357-6.623,12.309-8.352c8.679-1.887,15.015-1.118,27.224-9.236L130.99,381.793z"
				/>
			<path style="fill:#263238;" d="M134.766,381.793c0,0,4.438,5.036,15.849,6.792c6.028,0.928,12.301,2.081,17.747,4.964
				c3.503,1.854,10.474,5.912,10.474,10.548c0,2.294-1.859,4.153-4.153,4.153c-2.294,0-4.153-1.859-4.153-4.153
				c0-1.097,0.433-2.087,1.128-2.829c-0.579-0.942-4.357-6.623-12.309-8.352c-8.679-1.887-15.015-1.118-27.224-9.236
				L134.766,381.793z"/>
			<path style="fill:#263238;" d="M134.682,400.456h-3.464c-0.362,0-0.655,0.293-0.655,0.655v6.484c0,0.362,0.293,0.655,0.655,0.655
				h3.464c0.362,0,0.655-0.293,0.655-0.655v-6.484C135.337,400.749,135.044,400.456,134.682,400.456z"/>
			<rect x="131.818" y="382.496" style="fill:#263238;" width="2.264" height="25.754"/>
		</g>
	</g>
</g>
<g id="Table">
	<g>
		
			<rect x="186.723" y="295.78" style="fill:#FFFFFF;stroke:#263238;stroke-linecap:round;stroke-linejoin:round;stroke-miterlimit:10;" width="30.566" height="1.509"/>
		<g>
			<polygon style="fill:#263238;stroke:#263238;stroke-linecap:round;stroke-linejoin:round;stroke-miterlimit:10;" points="
				231.154,228.975 234.854,234.885 229.757,278.873 225.79,278.414 			"/>
			
				<rect x="226.051" y="222.531" transform="matrix(0.9934 0.1151 -0.1151 0.9934 30.4117 -24.5221)" style="fill:#FFFFFF;stroke:#263238;stroke-linecap:round;stroke-linejoin:round;stroke-miterlimit:10;" width="2.904" height="56.986"/>
			<polygon style="fill:#FFFFFF;stroke:#263238;stroke-linecap:round;stroke-linejoin:round;stroke-miterlimit:10;" points="
				231.219,266.254 229.571,295.291 220.133,295.291 220.133,297.543 229.571,297.543 231.749,297.543 231.749,295.291 
				233.382,266.504 			"/>
		</g>
		
			<rect x="285.42" y="295.78" transform="matrix(-1 -1.224647e-16 1.224647e-16 -1 601.4055 593.069)" style="fill:#FFFFFF;stroke:#263238;stroke-linecap:round;stroke-linejoin:round;stroke-miterlimit:10;" width="30.566" height="1.509"/>
		<g>
			<polygon style="fill:#263238;stroke:#263238;stroke-linecap:round;stroke-linejoin:round;stroke-miterlimit:10;" points="
				271.554,228.975 267.854,234.885 272.952,278.873 276.918,278.414 			"/>
			
				<rect x="273.754" y="222.531" transform="matrix(-0.9934 0.1151 -0.1151 -0.9934 577.4802 468.6966)" style="fill:#FFFFFF;stroke:#263238;stroke-linecap:round;stroke-linejoin:round;stroke-miterlimit:10;" width="2.904" height="56.986"/>
			<polygon style="fill:#FFFFFF;stroke:#263238;stroke-linecap:round;stroke-linejoin:round;stroke-miterlimit:10;" points="
				271.49,266.254 273.137,295.291 282.575,295.291 282.575,297.543 273.137,297.543 270.959,297.543 270.959,295.291 
				269.326,266.504 			"/>
		</g>
		
			<polyline style="fill:none;stroke:#263238;stroke-width:3;stroke-linecap:round;stroke-linejoin:round;stroke-miterlimit:10;" points="
			190.583,299.056 249.764,394.835 319.457,299.056 		"/>
		
			<rect x="182.195" y="297.266" style="fill:#FFFFFF;stroke:#263238;stroke-linecap:round;stroke-linejoin:round;stroke-miterlimit:10;" width="145.659" height="3.019"/>
		
			<rect x="242.115" y="244.733" style="fill:#263238;stroke:#263238;stroke-linecap:round;stroke-linejoin:round;stroke-miterlimit:10;" width="15.244" height="158.947"/>
		<g>
			
				<rect x="206.286" y="318.497" style="fill:#FFFFFF;stroke:#263238;stroke-linecap:round;stroke-linejoin:round;stroke-miterlimit:10;" width="3.968" height="26.19"/>
			
				<rect x="206.286" y="348.214" style="fill:#FFFFFF;stroke:#263238;stroke-linecap:round;stroke-linejoin:round;stroke-miterlimit:10;" width="3.968" height="26.19"/>
			
				<rect x="206.286" y="377.93" style="fill:#FFFFFF;stroke:#263238;stroke-linecap:round;stroke-linejoin:round;stroke-miterlimit:10;" width="3.968" height="26.19"/>
			
				<rect x="208.609" y="314.624" style="fill:#263238;stroke:#263238;stroke-linecap:round;stroke-linejoin:round;stroke-miterlimit:10;" width="83.018" height="93.206"/>
		</g>
	</g>
</g>
<g id="Floor">
	
		<line style="fill:none;stroke:#263238;stroke-linecap:round;stroke-linejoin:round;stroke-miterlimit:10;" x1="48.706" y1="407.831" x2="468" y2="407.831"/>
</g>
</svg>
